<?xml version="1.0" standalone="no"?>
<!DOCTYPE svg PUBLIC "-//W3C//DTD SVG 1.1//EN" "http://www.w3.org/Graphics/SVG/1.1/DTD/svg11.dtd" >
<svg xmlns="http://www.w3.org/2000/svg" xmlns:xlink="http://www.w3.org/1999/xlink" version="1.1">
<metadata>
Created by FontForge 20170731 at Sun Feb 21 15:31:04 2010
 By ,,,
Copyright (c) 2009 by Hannes von Doehren. All rights reserved.
</metadata>
<defs>
<font id="BrandonGrotesque-Thin" horiz-adv-x="491" >
  <font-face 
    font-family="Brandon Grotesque Thin"
    font-weight="300"
    font-stretch="normal"
    units-per-em="1000"
    panose-1="2 11 4 3 2 2 3 6 2 2"
    ascent="700"
    descent="-300"
    x-height="400"
    cap-height="700"
    bbox="-156.5 -318.286 1036 1025.57"
    underline-thickness="50"
    underline-position="-200"
    unicode-range="U+0020-FB02"
  />
<missing-glyph horiz-adv-x="599" 
d="M50 30v640q0 30 30 30h439q30 0 30 -30v-640q0 -30 -30 -30h-439q-30 0 -30 30zM262 314q0 -12 14 -12h36q15 0 15 13v26q0 16 16.5 32t36 28.5t36 36.5t16.5 53q0 48 -35.5 79.5t-89.5 31.5q-24 0 -46.5 -6.5t-37 -15t-25.5 -17.5t-16 -15l-5 -7q-8 -12 0 -18l22 -22
q8 -6 17 0q1 1 7.5 7t9.5 9t11.5 8.5t15.5 8.5t18 5.5t22 2.5q29 0 45 -15t16 -37q0 -21 -15.5 -39t-34 -30t-34 -32.5t-15.5 -45.5v-29zM245 156q0 -20 14.5 -34t33.5 -14q20 0 34.5 14t14.5 34t-14.5 34t-34.5 14q-19 0 -33.5 -14t-14.5 -34z" />
    <glyph glyph-name="fi" unicode="fi" horiz-adv-x="509" 
d="M104 7v375h-70q-7 0 -7 7v4q0 7 7 7h70v126q0 86 48 135t117 49q52 0 88.5 -19.5t55.5 -40.5q3 -3 -1 -7l-6 -6q-4 -3 -7 0q-56 56 -130 56q-61 0 -104.5 -45t-43.5 -122v-126h300q7 0 7 -7v-386q0 -7 -7 -7h-4q-7 0 -7 7v375h-289v-375q0 -7 -7 -7h-3q-7 0 -7 7z" />
    <glyph glyph-name="fl" unicode="fl" horiz-adv-x="516" 
d="M104 7v375h-70q-7 0 -7 7v4q0 7 7 7h70v136q0 85 47.5 129.5t117.5 44.5q87 0 148 -56v39q0 7 7 7h4q7 0 7 -7v-686q0 -7 -7 -7h-4q-7 0 -7 7v623q-65 62 -148 62q-62 0 -105 -40t-43 -116v-136h191q7 0 7 -7v-4q0 -7 -7 -7h-191v-375q0 -7 -7 -7h-4q-6 0 -6 7z" />
    <glyph glyph-name="f_f" unicode="ff" horiz-adv-x="567" 
d="M99 7v375h-60q-7 0 -7 7v4q0 7 7 7h60v114q0 93 45 139.5t120 46.5q73 0 128 -52q38 62 122 62q69 0 114 -43q5 -5 0 -10l-3 -3q-5 -5 -10 0q-40 38 -101 38t-96 -39.5t-35 -118.5v-134h181q7 0 7 -7v-4q0 -7 -7 -7h-181v-375q0 -7 -7 -7h-4q-7 0 -7 7v375h-248v-375
q0 -7 -7 -7h-4q-7 0 -7 7zM117 400h248v134q0 58 18 97q-16 18 -49 34.5t-70 16.5q-67 0 -107 -41.5t-40 -126.5v-114z" />
    <glyph glyph-name="f_f_i" unicode="ffi" horiz-adv-x="771" 
d="M99 7v375h-60q-7 0 -7 7v4q0 7 7 7h60v114q0 92 46 139t116 47q79 0 139 -57q47 67 131 67q52 0 88.5 -19.5t55.5 -40.5q3 -3 -1 -7l-6 -6q-4 -3 -7 0q-56 56 -130 56q-61 0 -104.5 -45t-43.5 -122v-126h300q7 0 7 -7v-386q0 -7 -7 -7h-4q-7 0 -7 7v375h-289v-375
q0 -7 -7 -7h-3q-7 0 -7 7v375h-249v-375q0 -7 -7 -7h-4q-7 0 -7 7zM117 400h249v126q0 56 24 101q-17 19 -52.5 37t-76.5 18q-62 0 -103 -42t-41 -126v-114z" />
    <glyph glyph-name="f_f_l" unicode="ffl" horiz-adv-x="777" 
d="M99 7v375h-60q-7 0 -7 7v4q0 7 7 7h60v114q0 93 45 139.5t120 46.5q70 0 131 -55q46 65 135 65q87 0 148 -56v39q0 7 7 7h4q7 0 7 -7v-686q0 -7 -7 -7h-4q-7 0 -7 7v623q-65 62 -148 62q-62 0 -105 -40t-43 -116v-136h182q7 0 7 -7v-4q0 -7 -7 -7h-182v-375q0 -7 -7 -7
h-3q-7 0 -7 7v375h-248v-375q0 -7 -7 -7h-4q-7 0 -7 7zM117 400h248v136q0 54 20 92q-17 19 -51 36.5t-70 17.5q-67 0 -107 -41.5t-40 -126.5v-114z" />
    <glyph glyph-name="f_f_j" unicode="ffj" horiz-adv-x="771" 
d="M99 7v375h-60q-7 0 -7 7v4q0 7 7 7h60v114q0 92 46 139t116 47q79 0 139 -57q47 67 131 67q52 0 88.5 -19.5t55.5 -40.5q3 -3 -1 -7l-6 -6q-4 -3 -7 0q-56 56 -130 56q-61 0 -104.5 -45t-43.5 -122v-126h300q7 0 7 -7v-527q0 -176 -140 -176q-70 0 -113 43q-5 5 0 10l3 3
q4 4 9 0q40 -38 101 -38q122 0 122 158v516h-289v-375q0 -7 -7 -7h-3q-7 0 -7 7v375h-249v-375q0 -7 -7 -7h-4q-7 0 -7 7zM117 400h249v126q0 56 24 101q-17 19 -52.5 37t-76.5 18q-62 0 -103 -42t-41 -126v-114z" />
    <glyph glyph-name="f_j" unicode="fj" horiz-adv-x="509" 
d="M104 7v375h-70q-7 0 -7 7v4q0 7 7 7h70v126q0 86 48 135t117 49q52 0 88.5 -19.5t55.5 -40.5q3 -3 -1 -7l-6 -6q-4 -3 -7 0q-56 56 -130 56q-61 0 -104.5 -45t-43.5 -122v-126h300q7 0 7 -7v-527q0 -176 -140 -176q-70 0 -113 43q-5 5 0 10l3 3q4 4 9 0q40 -38 101 -38
q122 0 122 158v516h-289v-375q0 -7 -7 -7h-3q-7 0 -7 7z" />
    <glyph glyph-name="f_f_k" unicode="ffk" horiz-adv-x="1009" 
d="M99 7v375h-60q-7 0 -7 7v4q0 7 7 7h60v114q0 93 45 139.5t120 46.5q70 0 131 -55q46 65 135 65q87 0 148 -56v39q0 7 7 7h4q7 0 7 -7v-462l261 176q5 3 8 -1l4 -7q3 -5 -2 -8l-252 -169l270 -215q4 -4 2 -8l-6 -7q-3 -4 -7 -1l-278 223v-207q0 -7 -7 -7h-4q-7 0 -7 7v623
q-65 62 -148 62q-62 0 -105 -40t-43 -116v-136h182q7 0 7 -7v-4q0 -7 -7 -7h-182v-375q0 -7 -7 -7h-3q-7 0 -7 7v375h-248v-375q0 -7 -7 -7h-4q-7 0 -7 7zM117 400h248v136q0 54 20 92q-17 19 -51 36.5t-70 17.5q-67 0 -107 -41.5t-40 -126.5v-114z" />
    <glyph glyph-name="f_k" unicode="fk" horiz-adv-x="748" 
d="M104 7v375h-70q-7 0 -7 7v4q0 7 7 7h70v136q0 85 47.5 129.5t117.5 44.5q87 0 148 -56v39q0 7 7 7h4q7 0 7 -7v-462l261 176q5 3 8 -1l4 -7q3 -5 -2 -8l-252 -169l270 -215q4 -4 2 -8l-6 -7q-3 -4 -7 -1l-278 223v-207q0 -7 -7 -7h-4q-7 0 -7 7v623q-65 62 -148 62
q-62 0 -105 -40t-43 -116v-136h191q7 0 7 -7v-4q0 -7 -7 -7h-191v-375q0 -7 -7 -7h-4q-6 0 -6 7z" />
    <glyph glyph-name="f_b" unicode="fb" horiz-adv-x="827" 
d="M104 7v375h-70q-7 0 -7 7v4q0 7 7 7h70v136q0 85 47.5 129.5t117.5 44.5q87 0 148 -56v39q0 7 6 7h4q7 0 7 -7v-336q6 6 17.5 15t48 23.5t74.5 14.5q87 0 144 -59.5t57 -149.5q0 -89 -54 -150t-133 -61q-96 0 -154 65v-48q0 -7 -7 -7h-4q-6 0 -6 7v623q-65 62 -148 62
q-62 0 -105 -40t-43 -116v-136h191q7 0 7 -7v-4q0 -7 -7 -7h-191v-375q0 -7 -7 -7h-4q-6 0 -6 7zM434 83q2 -4 7.5 -10.5t19.5 -18.5t30.5 -21.5t42.5 -17t54 -7.5q71 0 120.5 56t49.5 137q0 83 -52 137t-132 54q-40 0 -75 -15t-50 -31l-15 -15v-248z" />
    <glyph glyph-name="f_h" unicode="fh" horiz-adv-x="832" 
d="M104 7v375h-70q-7 0 -7 7v4q0 7 7 7h70v136q0 85 47.5 129.5t117.5 44.5q87 0 148 -56v39q0 7 7 7h4q7 0 7 -7v-358q69 75 156 75q81 0 123.5 -47.5t42.5 -138.5v-217q0 -7 -7 -7h-4q-7 0 -7 7v217q0 82 -38 125t-110 43q-31 0 -60 -11t-49.5 -28t-30.5 -27.5t-16 -18.5
v-300q0 -7 -7 -7h-4q-7 0 -7 7v623q-65 62 -148 62q-62 0 -105 -40t-43 -116v-136h191q7 0 7 -7v-4q0 -7 -7 -7h-191v-375q0 -7 -7 -7h-4q-6 0 -6 7z" />
    <glyph glyph-name="f_f_h" unicode="ffh" horiz-adv-x="1093" 
d="M99 7v375h-60q-7 0 -7 7v4q0 7 7 7h60v114q0 93 45 139.5t120 46.5q70 0 131 -55q46 65 135 65q87 0 148 -56v39q0 7 7 7h4q7 0 7 -7v-358q69 75 156 75q81 0 123.5 -47.5t42.5 -138.5v-217q0 -7 -7 -7h-4q-7 0 -7 7v217q0 82 -38 125t-110 43q-31 0 -60 -11t-49.5 -28
t-30.5 -27.5t-16 -18.5v-300q0 -7 -7 -7h-4q-7 0 -7 7v623q-65 62 -148 62q-62 0 -105 -40t-43 -116v-136h182q7 0 7 -7v-4q0 -7 -7 -7h-182v-375q0 -7 -7 -7h-3q-7 0 -7 7v375h-248v-375q0 -7 -7 -7h-4q-7 0 -7 7zM117 400h248v136q0 54 20 92q-17 19 -51 36.5t-70 17.5
q-67 0 -107 -41.5t-40 -126.5v-114z" />
    <glyph glyph-name="f_f_b" unicode="ffb" horiz-adv-x="1088" 
d="M99 7v375h-60q-7 0 -7 7v4q0 7 7 7h60v114q0 93 45 139.5t120 46.5q70 0 131 -55q46 65 135 65q87 0 148 -56v39q0 7 6 7h4q7 0 7 -7v-336q6 6 17.5 15t48 23.5t74.5 14.5q87 0 144 -59.5t57 -149.5q0 -89 -54 -150t-133 -61q-96 0 -154 65v-48q0 -7 -7 -7h-4q-6 0 -6 7
v623q-65 62 -148 62q-62 0 -105 -40t-43 -116v-136h182q7 0 7 -7v-4q0 -7 -7 -7h-182v-375q0 -7 -7 -7h-3q-7 0 -7 7v375h-248v-375q0 -7 -7 -7h-4q-7 0 -7 7zM117 400h248v136q0 54 20 92q-17 19 -51 36.5t-70 17.5q-67 0 -107 -41.5t-40 -126.5v-114zM695 83
q2 -4 7.5 -10.5t19.5 -18.5t30.5 -21.5t42.5 -17t54 -7.5q71 0 120.5 56t49.5 137q0 83 -52 137t-132 54q-40 0 -75 -15t-50 -31l-15 -15v-248z" />
    <glyph glyph-name=".notdef" horiz-adv-x="599" 
d="M50 30v640q0 30 30 30h439q30 0 30 -30v-640q0 -30 -30 -30h-439q-30 0 -30 30zM262 314q0 -12 14 -12h36q15 0 15 13v26q0 16 16.5 32t36 28.5t36 36.5t16.5 53q0 48 -35.5 79.5t-89.5 31.5q-24 0 -46.5 -6.5t-37 -15t-25.5 -17.5t-16 -15l-5 -7q-8 -12 0 -18l22 -22
q8 -6 17 0q1 1 7.5 7t9.5 9t11.5 8.5t15.5 8.5t18 5.5t22 2.5q29 0 45 -15t16 -37q0 -21 -15.5 -39t-34 -30t-34 -32.5t-15.5 -45.5v-29zM245 156q0 -20 14.5 -34t33.5 -14q20 0 34.5 14t14.5 34t-14.5 34t-34.5 14q-19 0 -33.5 -14t-14.5 -34z" />
    <glyph glyph-name=".null" horiz-adv-x="0" 
 />
    <glyph glyph-name="nonmarkingreturn" horiz-adv-x="333" 
 />
    <glyph glyph-name="space" unicode=" " horiz-adv-x="213" 
 />
    <glyph glyph-name="exclam" unicode="!" horiz-adv-x="296" 
d="M146 267q-7 0 -7 7v419q0 7 7 7h4q7 0 7 -7v-419q0 -7 -7 -7h-4zM124 14q0 10 7 16.5t17 6.5t17 -6.5t7 -16.5t-7 -17t-17 -7t-17 7t-7 17z" />
    <glyph glyph-name="quotedbl" unicode="&#x22;" horiz-adv-x="289" 
d="M217 491q-7 0 -7 7v195q0 7 7 7h3q7 0 7 -7v-195q0 -7 -7 -7h-3zM69 491q-7 0 -7 7v195q0 7 7 7h3q7 0 7 -7v-195q0 -7 -7 -7h-3z" />
    <glyph glyph-name="numbersign" unicode="#" horiz-adv-x="564" 
d="M118 8l41 209h-97q-6 0 -6 7v3q0 7 6 7h99l38 194h-109q-7 0 -7 7v4q0 7 7 7h113l48 248q2 6 7 6h3q9 0 7 -8l-48 -246h175l48 248q2 6 7 6h4q8 0 6 -8l-48 -246h95q6 0 6 -7v-4q0 -7 -6 -7h-98l-37 -194h107q7 0 7 -7v-3q0 -7 -7 -7h-111l-40 -211q-2 -6 -7 -6h-4
q-9 0 -7 8l41 209h-175l-40 -211q-2 -6 -7 -6h-4q-9 0 -7 8zM180 234h174l37 194h-174z" />
    <glyph glyph-name="dollar" unicode="$" horiz-adv-x="545" 
d="M64 73q-5 4 0 9l3 3q5 5 10 0q82 -75 193 -77v339q-107 29 -160 68.5t-53 119.5q0 32 12 61t36.5 55t67 41.5t97.5 16.5v43q0 7 7 7h4q7 0 7 -7v-44q41 -2 81 -14.5t59 -23.5l20 -12q3 -3 3 -6l-2 -4q0 -4 -3.5 -6t-7.5 0q-65 44 -150 48v-329q106 -30 158 -74t52 -122
q0 -69 -62.5 -120t-147.5 -55v-113q0 -6 -7 -6h-4q-7 0 -7 6v113q-52 1 -102 21t-71 35t-33 27zM270 366v325q-98 -1 -146.5 -47.5t-48.5 -108.5q0 -71 48 -107t147 -62zM288 8q78 3 135 49t57 108q0 71 -48 110t-144 67v-334z" />
    <glyph glyph-name="percent" unicode="%" horiz-adv-x="704" 
d="M189 427q-59 0 -100 41.5t-41 100.5t41 100t100 41t100 -41t41 -100t-41 -100.5t-100 -41.5zM189 445q51 0 87.5 36t36.5 88q0 51 -36.5 87t-87.5 36q-52 0 -87.5 -36t-35.5 -87q0 -52 35.5 -88t87.5 -36zM358 131q0 59 41 100.5t100 41.5q58 0 99.5 -41.5t41.5 -100.5
q0 -58 -41.5 -99.5t-99.5 -41.5q-59 0 -100 41t-41 100zM375 131q0 -51 36 -87t88 -36q51 0 87 36t36 87q0 52 -36 88t-87 36q-52 0 -88 -36t-36 -88zM120 12l417 686q3 4 8 1l6 -3q5 -3 2 -8l-417 -686q-4 -5 -7 -3l-8 5q-4 3 -1 8z" />
    <glyph glyph-name="ampersand" unicode="&#x26;" horiz-adv-x="695" 
d="M102 173q0 128 156 205l-30 31q-78 78 -78 153q0 55 42.5 101.5t122.5 46.5q75 0 115 -43.5t40 -104.5q0 -104 -180 -187h-1l242 -239q80 107 80 230q0 9 -2 31q0 8 7 8h4q7 0 7 -6q2 -22 2 -33q0 -129 -85 -241l112 -111q4 -4 1 -8l-7 -6q-3 -3 -7 1l-111 109
q-98 -120 -244 -120q-83 0 -134.5 53.5t-51.5 129.5zM276 387q177 81 177 175q0 53 -36 91.5t-102 38.5q-72 0 -110 -41t-38 -89q0 -62 73 -139l14 -15q14 -14 22 -21zM119 173q0 -69 47 -117t122 -48q136 0 232 114l-249 245q-71 -36 -111.5 -81.5t-40.5 -112.5z" />
    <glyph glyph-name="quotesingle" unicode="'" horiz-adv-x="142" 
d="M69 491q-7 0 -7 7v195q0 7 7 7h4q7 0 7 -7v-195q0 -7 -7 -7h-4z" />
    <glyph glyph-name="parenleft" unicode="(" horiz-adv-x="344" 
d="M309 -61q7 0 7 -7v-4q0 -6 -7 -6q-46 2 -87 23t-76.5 64.5t-56.5 122t-21 184.5q0 105 21 183.5t56.5 122t76 65t87.5 23.5q7 0 7 -7v-4q0 -7 -7 -7q-34 -2 -64.5 -14t-60.5 -40t-51 -69.5t-34 -106.5t-13 -146q0 -82 13 -147t34 -106.5t51 -69.5t60.5 -40t64.5 -14z" />
    <glyph glyph-name="parenright" unicode=")" horiz-adv-x="344" 
d="M35 -61q34 2 64.5 14t60.5 40t51 69.5t34 106.5t13 147q0 81 -13 146t-34 106.5t-51 69.5t-60.5 40t-64.5 14q-7 0 -7 7v4q0 7 7 7q47 -2 87.5 -23.5t76 -65t56.5 -122t21 -183.5q0 -106 -21 -184.5t-56.5 -122t-76.5 -64.5t-87 -23q-7 0 -7 6v4q0 7 7 7z" />
    <glyph glyph-name="asterisk" unicode="*" horiz-adv-x="352" 
d="M174 406q-7 0 -7 7v124l-108 -62q-5 -3 -8 1l-4 7q-2 5 3 7l107 63l-107 63q-5 2 -2 7l3 6q3 5 8 2l108 -62v124q0 7 7 7h4q7 0 7 -7v-124l108 62q5 3 8 -2l3 -6q3 -5 -2 -7l-107 -63l107 -63q5 -2 3 -7l-4 -7q-3 -4 -8 -1l-108 62v-124q0 -7 -7 -7h-4z" />
    <glyph glyph-name="plus" unicode="+" horiz-adv-x="513" 
d="M248 153v186h-186q-7 0 -7 7v4q0 7 7 7h186v185q0 7 7 7h4q7 0 7 -7v-185h185q7 0 7 -7v-4q0 -7 -7 -7h-185v-186q0 -7 -7 -7h-4q-7 0 -7 7z" />
    <glyph glyph-name="comma" unicode="," horiz-adv-x="262" 
d="M103 13q0 9 6.5 15.5t16.5 6.5q19 0 35.5 -23t16.5 -69q0 -31 -15.5 -55.5t-30.5 -33.5l-16 -10q-7 -3 -9 1l-3 6q-3 7 3 9q6 3 14.5 8.5t23 27t14.5 47.5q0 35 -13 57q-10 -10 -20 -10t-16.5 7t-6.5 16z" />
    <glyph glyph-name="hyphen" unicode="-" horiz-adv-x="597" 
d="M177 243q-6 0 -6 7v4q0 7 6 7h243q6 0 6 -7v-4q0 -7 -6 -7h-243z" />
    <glyph glyph-name="period" unicode="." horiz-adv-x="240" 
d="M96 14q0 10 7 16.5t17 6.5t17 -6.5t7 -16.5t-7 -17t-17 -7t-17 7t-7 17z" />
    <glyph glyph-name="slash" unicode="/" horiz-adv-x="334" 
d="M44 6l245 689q2 5 7 5h7q6 0 4 -6l-246 -690q-2 -4 -7 -4h-7q-5 0 -3 6z" />
    <glyph glyph-name="zero" unicode="0" horiz-adv-x="660" 
d="M330 -11q-117 0 -182 93.5t-65 258.5q0 166 65 259t182 93t182 -93t65 -259q0 -165 -65 -258.5t-182 -93.5zM330 7q110 0 169.5 88t59.5 246t-59.5 246t-169.5 88t-169.5 -88t-59.5 -246t59.5 -246t169.5 -88z" />
    <glyph glyph-name="one" unicode="1" horiz-adv-x="320" 
d="M194 7v649l-166 -123q-5 -3 -8 1l-5 7q-2 4 2 7l184 135q4 3 7.5 1t3.5 -7v-670q0 -7 -7 -7h-4q-7 0 -7 7z" />
    <glyph glyph-name="two" unicode="2" horiz-adv-x="525" 
d="M39 12l285 266q120 112 120 216q0 76 -53.5 128.5t-149.5 52.5q-31 0 -59 -9.5t-45.5 -23.5t-30 -27.5t-18.5 -22.5l-5 -10q-3 -5 -7 -3l-7 4q-5 4 -2 9q2 4 6.5 11t20 24t33.5 30t49 24t65 11q105 0 163 -57t58 -141q0 -62 -32 -116.5t-94 -111.5l-265 -248h379
q7 0 7 -7v-4q0 -7 -7 -7h-406q-5 0 -7 4.5t2 7.5z" />
    <glyph glyph-name="three" unicode="3" horiz-adv-x="561" 
d="M59 80q-4 5 0 9l5 4q5 3 9 -1q15 -16 24.5 -24t34 -25.5t58 -26t73.5 -8.5q96 0 153 50t57 128q0 63 -50 111t-127 48h-135q-7 0 -7 7v4q0 7 7 7h135q64 0 111.5 44.5t47.5 111.5q0 68 -48 112t-126 44q-34 0 -65.5 -8.5t-51.5 -21t-36 -24.5t-23 -21l-7 -8q-3 -5 -8 -2
l-6 4q-5 3 -2 8q3 4 8 10t24 21.5t40.5 27.5t55.5 21.5t71 9.5q86 0 139 -48.5t53 -124.5q0 -58 -35 -103t-87 -61q61 -16 100.5 -64.5t39.5 -104.5q0 -85 -62.5 -140.5t-165.5 -55.5q-43 0 -79 9.5t-62 27.5t-37 27.5t-26 25.5z" />
    <glyph glyph-name="four" unicode="4" horiz-adv-x="588" 
d="M22 159q-5 0 -6.5 3.5t1.5 7.5l433 524q2 4 6.5 2.5t4.5 -6.5v-514h71q7 0 7 -6v-4q0 -7 -7 -7h-71v-152q0 -7 -7 -7h-3q-7 0 -7 7v152h-422zM45 176h399v484z" />
    <glyph glyph-name="five" unicode="5" horiz-adv-x="559" 
d="M76 76q-4 5 0 9l5 4q4 3 9 -2q68 -79 182 -79q95 0 157 62t62 152q0 93 -55.5 141t-162.5 47h-181q-7 0 -7 7v258q0 7 7 7h326q7 0 7 -7v-3q0 -7 -7 -7h-315v-238h170q115 1 175.5 -52t60.5 -153q0 -97 -67.5 -164.5t-169.5 -67.5q-124 0 -196 86z" />
    <glyph glyph-name="six" unicode="6" horiz-adv-x="566" 
d="M63 276q0 66 18.5 125.5t49.5 103t66 79t74 60t67 39t51 22.5q6 2 8 -3l2 -7q1 -5 -4 -8q-27 -9 -57.5 -24.5t-74 -47t-79 -70t-64.5 -96.5t-37 -124q88 118 221 118q90 0 154.5 -61.5t64.5 -159.5q0 -96 -66.5 -164t-158.5 -68q-109 0 -172 81t-63 205zM80 276
q0 -117 58.5 -192.5t159.5 -75.5q85 0 146.5 62.5t61.5 151.5q0 91 -59.5 147t-142.5 56q-40 0 -76 -12.5t-59.5 -28.5t-44 -37t-29 -33t-14.5 -22l-1 -2v-14z" />
    <glyph glyph-name="seven" unicode="7" horiz-adv-x="479" 
d="M154 9l288 656h-410q-7 0 -7 7v3q0 7 7 7h426q4 0 6 -3t0 -6l-295 -672q-3 -6 -8 -3l-5 2q-5 2 -2 9z" />
    <glyph glyph-name="eight" unicode="8" horiz-adv-x="584" 
d="M69 175q0 66 48 112t132 60q-73 14 -117.5 58t-44.5 105q0 74 50 126t153 52t155 -52.5t52 -125.5q0 -61 -44 -105t-117 -58q85 -15 132 -59t47 -113q0 -92 -62 -138.5t-162 -46.5q-99 0 -160.5 46.5t-61.5 138.5zM292 359q82 5 134.5 45t52.5 106q0 67 -48 114.5
t-141 47.5t-139 -47.5t-46 -114.5q0 -66 52.5 -106t134.5 -45zM86 175q0 -84 57 -126.5t148 -42.5q92 0 149.5 42.5t57.5 126.5q0 66 -56.5 110t-149.5 51q-95 -7 -150.5 -49t-55.5 -112z" />
    <glyph glyph-name="nine" unicode="9" horiz-adv-x="566" 
d="M167 -8q-1 5 4 8q27 9 57.5 24.5t74 47t79 70t64.5 96.5t37 124q-88 -118 -221 -118q-90 0 -154.5 61.5t-64.5 159.5q0 96 66.5 164t158.5 68q109 0 172 -81t63 -205q0 -66 -18.5 -125.5t-49.5 -103t-66 -79t-74 -60t-67 -39t-51 -22.5q-6 -2 -8 3zM262 262q40 0 76 12.5
t59.5 28.5t44 37t29 33t14.5 22l1 2v14q0 117 -58.5 192.5t-159.5 75.5q-85 0 -146.5 -62.5t-61.5 -151.5q0 -91 59.5 -147t142.5 -56z" />
    <glyph glyph-name="colon" unicode=":" horiz-adv-x="290" 
d="M145 363q-10 0 -17 7t-7 16q0 10 7 17t17 7q11 0 17.5 -7t6.5 -17q0 -9 -7 -16t-17 -7zM121 14q0 10 7 16.5t17 6.5t17 -6.5t7 -16.5t-7 -17t-17 -7t-17 7t-7 17z" />
    <glyph glyph-name="semicolon" unicode=";" horiz-adv-x="301" 
d="M145 363q-9 0 -16 7t-7 16q0 10 7 17t16 7q11 0 17.5 -7t6.5 -17q0 -9 -7 -16t-17 -7zM123 13q0 9 6.5 15.5t16.5 6.5q19 0 35.5 -23t16.5 -69q0 -31 -16 -56t-32 -35l-15 -9q-1 -1 -3.5 -0.5t-3.5 1.5l-3 5q-7 7 2 11q6 3 14.5 8.5t23 27t14.5 47.5q0 35 -13 57
q-10 -10 -20 -10t-16.5 7t-6.5 16z" />
    <glyph glyph-name="less" unicode="&#x3c;" horiz-adv-x="438" 
d="M32 226q-10 6 0 12l365 235q6 3 9 -2l3 -5q4 -6 -2 -9l-350 -225l350 -218q6 -3 2 -9l-3 -5q-3 -5 -9 -2z" />
    <glyph glyph-name="equal" unicode="=" horiz-adv-x="665" 
d="M167 382q-7 0 -7 7v4q0 7 7 7h331q7 0 7 -7v-4q0 -7 -7 -7h-331zM167 176q-7 0 -7 7v4q0 7 7 7h331q7 0 7 -7v-4q0 -7 -7 -7h-331z" />
    <glyph glyph-name="greater" unicode="&#x3e;" horiz-adv-x="438" 
d="M29 5q-4 6 2 9l350 218l-350 225q-6 3 -2 9l3 5q3 5 9 2l365 -235q10 -6 0 -12l-365 -228q-6 -3 -9 2z" />
    <glyph glyph-name="question" unicode="?" horiz-adv-x="504" 
d="M234 257q-7 0 -7 7v60q0 17 5 30.5t17.5 24.5t16.5 13.5t19 11.5q127 68 127 159q0 56 -45 92.5t-117 36.5q-33 0 -63 -8.5t-49 -20.5t-33.5 -24t-20.5 -21l-6 -8q-4 -6 -8 -2l-5 4q-4 4 -2 8t7 10t22 21.5t36.5 27.5t52.5 21.5t69 9.5q79 0 129 -42t50 -105
q0 -97 -136 -175q-48 -25 -48 -64v-60q0 -7 -7 -7h-4zM217 14q0 10 6.5 16.5t16.5 6.5t17 -6.5t7 -16.5t-7 -17t-17 -7t-16.5 7t-6.5 17z" />
    <glyph glyph-name="at" unicode="@" horiz-adv-x="1000" 
d="M52 225q0 215 125.5 350t334.5 135q196 0 309 -117t113 -302q0 -55 -9 -104t-29.5 -95.5t-62 -74t-99.5 -27.5q-45 0 -73 22t-36 58q-48 -80 -152 -80q-86 0 -139 61t-53 153q0 89 55.5 147.5t139.5 58.5q87 0 146 -54v37q0 7 7 7h4q7 0 7 -7v-289q0 -43 24.5 -69.5
t69.5 -26.5q52 0 90 26t57 69.5t27.5 89.5t8.5 98q0 178 -108 289.5t-297 111.5q-201 0 -322 -129.5t-121 -337.5q0 -151 80.5 -263.5t214.5 -169.5q5 -3 3 -7l-3 -6q-3 -6 -8 -3q-138 58 -221 175t-83 274zM299 204q0 -84 48 -140t126 -56q33 0 60.5 10t43 24t26.5 28.5
t15 24.5l4 10v224q-4 7 -18.5 20t-50.5 28t-77 15q-77 0 -127 -53.5t-50 -134.5z" />
    <glyph glyph-name="A" unicode="A" horiz-adv-x="639" 
d="M8 7l308 710q2 4 5 4h2q3 0 5 -4l302 -710q2 -5 -3 -6l-9 -3q-3 -1 -5 3l-89 209h-409l-90 -209q-2 -4 -5 -3l-9 3q-5 1 -3 6zM123 227h393l-194 458z" />
    <glyph glyph-name="B" unicode="B" horiz-adv-x="625" 
d="M112 7v686q0 7 7 7h206q96 0 153 -46.5t57 -130.5q0 -60 -34 -102t-93 -60q69 -13 109 -56.5t40 -116.5q0 -84 -62 -136t-161 -52h-215q-7 0 -7 7zM130 367h197q85 0 137.5 42t52.5 114q0 76 -52 117.5t-140 41.5h-195v-315zM130 18h204q92 0 148.5 47t56.5 123
q0 80 -52.5 120.5t-140.5 40.5h-216v-331z" />
    <glyph glyph-name="C" unicode="C" horiz-adv-x="730" 
d="M61 349q0 151 106 256t257 105q132 0 243 -93q4 -4 1 -8l-5 -6q-4 -4 -8 0q-103 89 -231 89q-143 0 -244 -100t-101 -243t100.5 -242t244.5 -99q129 0 231 93q5 5 8 0l5 -6q4 -3 0 -7q-102 -98 -244 -98q-151 0 -257 104.5t-106 254.5z" />
    <glyph glyph-name="D" unicode="D" horiz-adv-x="733" 
d="M112 7v686q0 7 6 7h200q146 0 249.5 -102t103.5 -247q0 -146 -103.5 -248.5t-249.5 -102.5h-200q-6 0 -6 7zM129 18h189q139 0 237.5 97.5t98.5 235.5q0 137 -98.5 234t-237.5 97h-189v-664z" />
    <glyph glyph-name="E" unicode="E" horiz-adv-x="610" 
d="M112 7v686q0 7 7 7h407q7 0 7 -7v-4q0 -7 -7 -7h-396v-309h348q7 0 7 -7v-4q0 -7 -7 -7h-348v-337h396q7 0 7 -7v-4q0 -7 -7 -7h-407q-7 0 -7 7z" />
    <glyph glyph-name="F" unicode="F" horiz-adv-x="585" 
d="M112 7v686q0 7 7 7h407q7 0 7 -7v-4q0 -7 -7 -7h-396v-334h348q7 0 7 -7v-4q0 -7 -7 -7h-348v-323q0 -7 -7 -7h-4q-7 0 -7 7z" />
    <glyph glyph-name="G" unicode="G" horiz-adv-x="755" 
d="M61 349q0 151 106 256t257 105q132 0 243 -93q4 -4 1 -8l-5 -6q-4 -4 -8 0q-103 89 -231 89q-143 0 -244 -100t-101 -243t100.5 -242t244.5 -99q61 0 115.5 14.5t79.5 28.5t40 26v235h-227q-7 0 -7 7v4q0 6 7 6h238q7 0 7 -6v-253q-6 -9 -32 -26t-88 -35.5t-133 -18.5
q-151 0 -257 104.5t-106 254.5z" />
    <glyph glyph-name="H" unicode="H" horiz-adv-x="752" 
d="M112 7v686q0 7 7 7h4q7 0 7 -7v-320h492v320q0 7 7 7h4q7 0 7 -7v-686q0 -7 -7 -7h-4q-7 0 -7 7v348h-492v-348q0 -7 -7 -7h-4q-7 0 -7 7z" />
    <glyph glyph-name="I" unicode="I" horiz-adv-x="242" 
d="M112 7v686q0 7 7 7h4q7 0 7 -7v-686q0 -7 -7 -7h-4q-7 0 -7 7z" />
    <glyph glyph-name="J" unicode="J" horiz-adv-x="379" 
d="M-30 67q-4 5 1 9l4 3q5 3 8 -2q55 -69 142 -69q82 0 125.5 53.5t43.5 152.5v479q0 7 7 7h3q7 0 7 -7v-479q0 -106 -48.5 -165t-137.5 -59q-96 0 -155 77z" />
    <glyph glyph-name="K" unicode="K" horiz-adv-x="559" 
d="M112 7v686q0 7 7 7h4q7 0 7 -7v-333l372 339q5 5 10 0l3 -3q5 -5 0 -10l-369 -335l379 -340q7 -7 2 -11l-4 -4q-3 -4 -9 2l-384 344v-335q0 -7 -7 -7h-4q-7 0 -7 7z" />
    <glyph glyph-name="L" unicode="L" horiz-adv-x="489" 
d="M112 7v686q0 7 7 7h4q6 0 6 -7v-675h349q7 0 7 -7v-4q0 -7 -7 -7h-359q-7 0 -7 7z" />
    <glyph glyph-name="M" unicode="M" horiz-adv-x="859" 
d="M52 8l147 704q1 5 7 5t7 -5l217 -676l214 676q2 5 7 5t7 -5l151 -704q1 -7 -3 -8l-8 -2q-4 -2 -6 6l-144 662l-211 -674q-1 -5 -7 -5t-7 5l-215 674l-139 -662q-1 -8 -6 -6l-8 2q-4 1 -3 8z" />
    <glyph glyph-name="N" unicode="N" horiz-adv-x="772" 
d="M112 7v703q0 5 5 6.5t8 -2.5l517 -689v668q0 7 7 7h4q7 0 7 -7v-701q0 -5 -5 -6.5t-8 2.5l-517 689v-670q0 -7 -7 -7h-4q-7 0 -7 7z" />
    <glyph glyph-name="O" unicode="O" horiz-adv-x="846" 
d="M62 349q0 151 105 256t256 105t256.5 -105t105.5 -256q0 -150 -105.5 -254.5t-256.5 -104.5t-256 104t-105 255zM80 349q0 -143 100 -242t243 -99q144 0 244 99t100 242t-100.5 243t-243.5 100t-243 -100t-100 -243z" />
    <glyph glyph-name="P" unicode="P" horiz-adv-x="596" 
d="M112 7v686q0 7 7 7h208q94 0 161.5 -66.5t67.5 -159.5q0 -94 -67 -161.5t-161 -67.5h-198v-238q0 -7 -7 -7h-4q-7 0 -7 7zM130 263h198q86 0 148 62t62 149q0 86 -62 147t-149 61h-197v-419z" />
    <glyph glyph-name="Q" unicode="Q" horiz-adv-x="847" 
d="M62 349q0 151 105 256t256 105t256.5 -105t105.5 -256q0 -116 -65.5 -207t-171.5 -129l117 -192q3 -5 -1 -8l-9 -5q-4 -1 -6 3l-118 196q-53 -17 -108 -17q-151 0 -256 104t-105 255zM80 349q0 -143 100 -242t243 -99q144 0 244 99t100 242t-100.5 243t-243.5 100
t-243 -100t-100 -243z" />
    <glyph glyph-name="R" unicode="R" horiz-adv-x="648" 
d="M112 7v686q0 7 7 7h237q95 0 161.5 -61t66.5 -153q0 -82 -51.5 -141t-130.5 -74l156 -261q3 -5 -1 -8l-9 -5q-4 -1 -6 3l-159 268q-9 -1 -26 -1h-228v-260q0 -7 -6 -7h-4q-7 0 -7 7zM129 284h228q87 0 148.5 58t61.5 144q0 84 -61.5 140t-149.5 56h-227v-398z" />
    <glyph glyph-name="S" unicode="S" horiz-adv-x="556" 
d="M72 73q-4 5 0 9l4 4q4 4 9 -1q91 -77 200 -77q81 0 142 46.5t61 111.5q0 40 -14.5 69.5t-45.5 50t-66 34.5t-88 28q-51 14 -84.5 27.5t-64.5 34.5t-45.5 52t-14.5 73q0 70 54.5 122.5t163.5 52.5q44 0 87.5 -13t64.5 -25l21 -13q5 -3 2 -8l-4 -6q-3 -5 -8 -2
q-8 5 -22.5 13.5t-57 22t-83.5 13.5q-100 0 -150 -47t-50 -110q0 -71 48 -107t148 -62q116 -32 171.5 -75.5t55.5 -124.5q0 -72 -66.5 -124t-154.5 -52q-53 0 -105.5 20t-72.5 35t-35 28z" />
    <glyph glyph-name="T" unicode="T" horiz-adv-x="462" 
d="M221 7v675h-208q-7 0 -7 7v4q0 7 7 7h436q7 0 7 -7v-4q0 -7 -7 -7h-210v-675q0 -7 -7 -7h-4q-7 0 -7 7z" />
    <glyph glyph-name="U" unicode="U" horiz-adv-x="724" 
d="M103 252v441q0 7 7 7h4q7 0 7 -7v-441q0 -109 65 -176.5t175 -67.5q111 0 176.5 67.5t65.5 176.5v441q0 7 7 7h4q7 0 7 -7v-441q0 -117 -70.5 -189.5t-189.5 -72.5q-118 0 -188 72.5t-70 189.5z" />
    <glyph glyph-name="V" unicode="V" horiz-adv-x="639" 
d="M310 -16l-301 709q-1 5 3 6l9 3q3 1 5 -3l290 -683l297 683q2 4 5 3l9 -3q5 -1 3 -6l-308 -709q-2 -4 -6 -4t-6 4z" />
    <glyph glyph-name="W" unicode="W" horiz-adv-x="889" 
d="M245 -12l-204 705q-1 5 3 6l8 3q4 2 6 -3l194 -668l184 677q2 5 7 5t7 -5l193 -676l187 667q2 5 6 3l8 -3q4 -1 3 -6l-197 -705q-2 -5 -7 -5t-7 5l-193 676l-184 -676q-1 -5 -7 -5t-7 5z" />
    <glyph glyph-name="X" unicode="X" horiz-adv-x="546" 
d="M39 3q-5 3 -1 9l223 345l-213 331q-4 6 1 9l6 4q5 2 8 -3l210 -325l210 325q3 5 8 3l6 -4q5 -3 1 -9l-214 -331l225 -345q4 -6 -1 -9l-6 -4q-4 -2 -8 3l-221 338l-220 -338q-3 -5 -8 -3z" />
    <glyph glyph-name="Y" unicode="Y" horiz-adv-x="544" 
d="M263 7v336l-264 345q-4 6 1 9l6 4q3 2 8 -3l258 -339l258 339q4 6 8 3l6 -4q5 -3 1 -9l-264 -344v-337q0 -7 -7 -7h-4q-7 0 -7 7z" />
    <glyph glyph-name="Z" unicode="Z" horiz-adv-x="528" 
d="M29 11l439 671h-399q-7 0 -7 7v4q0 7 7 7h419q4 0 6 -3.5t0 -7.5l-439 -671h411q7 0 7 -7v-4q0 -7 -7 -7h-431q-4 0 -6 3.5t0 7.5z" />
    <glyph glyph-name="bracketleft" unicode="[" horiz-adv-x="333" 
d="M106 -282h192q7 0 7 -7v-4q0 -7 -7 -7h-203q-7 0 -7 7v986q0 7 7 7h203q7 0 7 -7v-4q0 -7 -7 -7h-192v-964z" />
    <glyph glyph-name="backslash" unicode="\" horiz-adv-x="334" 
d="M273 4l-245 689q-2 6 3 7h7q6 0 7 -4l245 -690q2 -6 -3 -6h-7q-5 0 -7 4z" />
    <glyph glyph-name="bracketright" unicode="]" horiz-adv-x="333" 
d="M35 -282h192v964h-192q-7 0 -7 7v4q0 7 7 7h203q7 0 7 -7v-986q0 -7 -7 -7h-203q-7 0 -7 7v4q0 7 7 7z" />
    <glyph glyph-name="asciicircum" unicode="^" horiz-adv-x="524" 
d="M48 398l-6 4q-5 3 -2 8l219 305q6 8 12 0l213 -305q3 -5 -2 -8l-6 -4q-5 -3 -8 2l-203 291l-209 -291q-3 -5 -8 -2z" />
    <glyph glyph-name="underscore" unicode="_" horiz-adv-x="401" 
d="M28 -17q0 7 7 7h331q7 0 7 -7v-4q0 -6 -7 -6h-331q-7 0 -7 6v4z" />
    <glyph glyph-name="grave" unicode="`" horiz-adv-x="302" 
d="M239 560l-182 90q-6 3 -3 9l2 4q3 5 9 3l182 -91q5 -3 3 -7l-2 -5q-3 -5 -9 -3z" />
    <glyph glyph-name="a" unicode="a" horiz-adv-x="436" 
d="M47 125q0 60 48.5 98.5t127.5 38.5q55 0 118 -23v37q0 61 -24.5 88.5t-86.5 27.5q-34 0 -64.5 -7.5t-43.5 -14.5l-14 -8q-5 -3 -9 2l-3 5q-3 5 2 8q50 33 132 33q72 0 100.5 -32t28.5 -102v-269q0 -7 -7 -7h-4q-7 0 -7 7v45q-71 -62 -155 -62q-60 0 -99.5 36.5
t-39.5 98.5zM65 125q0 -54 34 -85.5t87 -31.5q49 0 92.5 22.5t62.5 46.5v144q-80 23 -118 23q-71 0 -114.5 -33.5t-43.5 -85.5z" />
    <glyph glyph-name="b" unicode="b" 
d="M81 7v686q0 7 6 7h4q7 0 7 -7v-339q7 6 19 15.5t50 25t76 15.5q87 0 141.5 -59t54.5 -150q0 -88 -56 -149.5t-135 -61.5q-92 0 -150 65v-48q0 -7 -7 -7h-4q-6 0 -6 7zM98 83q6 -10 18 -23.5t49.5 -32.5t82.5 -19q72 0 123 56t51 137q0 83 -49.5 137t-129.5 54
q-25 0 -49.5 -6.5t-41 -15t-29.5 -17.5t-19 -15l-6 -7v-248z" />
    <glyph glyph-name="c" unicode="c" horiz-adv-x="476" 
d="M50 202q0 89 62.5 148.5t151.5 59.5q42 0 80.5 -14t55.5 -28l17 -13q4 -4 0 -8l-4 -4q-5 -5 -10 1q-6 5 -17 13t-47 21.5t-75 13.5q-82 0 -139.5 -54t-57.5 -136q0 -83 58.5 -138.5t138.5 -55.5q40 0 76.5 16t53.5 32l17 15q5 5 8 1l5 -5q4 -3 1 -6l-7.5 -7.5t-20.5 -17
t-33.5 -22t-44.5 -17t-55 -7.5q-87 0 -150.5 60.5t-63.5 151.5z" />
    <glyph glyph-name="d" unicode="d" 
d="M52 201q0 91 55 150t142 59q38 0 74 -14t53 -28l17 -15v340q0 7 7 7h4q6 0 6 -7v-686q0 -7 -6 -7h-4q-7 0 -7 7v48q-58 -65 -150 -65q-79 0 -135 61.5t-56 149.5zM69 201q0 -81 51 -137t123 -56q45 0 82.5 19t49.5 32.5t18 23.5v244q-6 7 -17.5 18t-49 29t-77.5 18
q-80 0 -130 -54t-50 -137z" />
    <glyph glyph-name="e" unicode="e" horiz-adv-x="477" 
d="M71 193q2 -80 50 -132.5t128 -52.5q83 0 136 43q5 4 8 -1l4 -6q2 -3 -2 -7q-62 -47 -146 -47q-89 0 -143 60.5t-54 151.5q0 89 54 148.5t143 59.5q80 0 131 -51t51 -132q0 -23 -4 -30q-2 -4 -6 -4h-350zM71 210h341q1 6 1 17q0 73 -46.5 119t-117.5 46q-79 0 -127 -51.5
t-51 -130.5z" />
    <glyph glyph-name="f" unicode="f" horiz-adv-x="301" 
d="M99 7v375h-60q-7 0 -7 7v4q0 7 7 7h60v134q0 87 40 131.5t109 44.5t114 -43q5 -5 0 -10l-3 -3q-5 -5 -10 0q-40 38 -101 38t-96 -39.5t-35 -118.5v-134h181q7 0 7 -7v-4q0 -7 -7 -7h-181v-375q0 -7 -7 -7h-4q-7 0 -7 7z" />
    <glyph glyph-name="g" unicode="g" horiz-adv-x="464" 
d="M40 50q0 66 64 98q-30 40 -30 101q0 68 45.5 114.5t120.5 46.5h31h1h143q7 0 7 -7v-4q0 -7 -7 -7h-91q80 -42 80 -143q0 -67 -45.5 -114.5t-118.5 -47.5q-80 0 -124 47q-58 -27 -58 -84q0 -31 20 -49.5t46 -18.5h184q146 0 146 -128q0 -67 -56.5 -115.5t-145.5 -48.5
q-95 0 -146.5 49.5t-51.5 108.5q0 74 68 117q-32 1 -57 24.5t-25 60.5zM240 105q65 0 105.5 42t40.5 102q0 38 -12 66.5t-29 42.5t-34 22.5t-29 9.5l-12 2h-30q-67 0 -107.5 -41.5t-40.5 -101.5q0 -62 36.5 -103t111.5 -41zM72 -152q0 -53 46.5 -96.5t133.5 -43.5
q83 0 133.5 43t50.5 103q0 111 -128 111h-142q-24 -3 -59 -34.5t-35 -82.5z" />
    <glyph glyph-name="h" unicode="h" horiz-adv-x="496" 
d="M81 7v686q0 7 7 7h4q7 0 7 -7v-358q69 75 156 75q81 0 123.5 -47.5t42.5 -138.5v-217q0 -7 -7 -7h-4q-7 0 -7 7v217q0 82 -38 125t-110 43q-31 0 -60 -11t-49.5 -28t-30.5 -27.5t-16 -18.5v-300q0 -7 -7 -7h-4q-7 0 -7 7z" />
    <glyph glyph-name="i" unicode="i" horiz-adv-x="180" 
d="M91 607q-9 0 -14.5 6t-5.5 14q0 9 5.5 15t14.5 6q8 0 14 -6.5t6 -14.5t-6 -14t-14 -6zM81 7v386q0 7 7 7h4q7 0 7 -7v-386q0 -7 -7 -7h-4q-7 0 -7 7z" />
    <glyph glyph-name="j" unicode="j" horiz-adv-x="180" 
d="M90 607q-9 0 -15 6t-6 14t6 14.5t15 6.5q8 0 14 -6.5t6 -14.5t-6 -14t-14 -6zM81 -134v527q0 7 7 7h4q7 0 7 -7v-527q0 -176 -140 -176q-70 0 -113 43q-5 5 0 10l3 3q5 4 9 0q40 -38 101 -38q122 0 122 158z" />
    <glyph glyph-name="k" unicode="k" horiz-adv-x="413" 
d="M81 7v686q0 7 7 7h4q7 0 7 -7v-462l261 174q5 3 8 -1l4 -7q3 -5 -2 -8l-252 -167l268 -210q5 -5 1 -9l-5 -6q-3 -5 -7 -1l-276 218v-207q0 -7 -7 -7h-4q-7 0 -7 7z" />
    <glyph glyph-name="l" unicode="l" horiz-adv-x="180" 
d="M81 7v686q0 7 7 7h4q7 0 7 -7v-686q0 -7 -7 -7h-4q-7 0 -7 7z" />
    <glyph glyph-name="m" unicode="m" horiz-adv-x="763" 
d="M81 7v386q0 7 7 7h4q7 0 7 -7v-55q55 72 147 72q97 0 134 -80q56 80 150 80q77 0 117.5 -47.5t40.5 -138.5v-217q0 -7 -7 -7h-4q-7 0 -7 7v217q0 82 -36 125t-104 43q-39 0 -72.5 -17.5t-47 -32.5t-22.5 -30q13 -41 13 -88v-217q0 -7 -7 -7h-4q-7 0 -7 7v217
q0 82 -35.5 125t-101.5 43q-32 0 -59.5 -10t-45.5 -25.5t-27 -26t-15 -20.5v-303q0 -7 -7 -7h-4q-7 0 -7 7z" />
    <glyph glyph-name="n" unicode="n" horiz-adv-x="496" 
d="M81 7v386q0 7 7 7h4q7 0 7 -7v-55q67 72 156 72q81 0 123.5 -47.5t42.5 -138.5v-217q0 -7 -7 -7h-4q-7 0 -7 7v217q0 82 -38 125t-110 43q-40 0 -78 -20t-53.5 -35t-24.5 -27v-303q0 -7 -7 -7h-4q-7 0 -7 7z" />
    <glyph glyph-name="o" unicode="o" horiz-adv-x="508" 
d="M51 201q0 87 59 148t144 61t144 -61t59 -148q0 -89 -59 -150t-144 -61t-144 61t-59 150zM69 201q0 -81 53.5 -137t131.5 -56t131.5 56t53.5 137q0 80 -53.5 135.5t-131.5 55.5t-131.5 -55.5t-53.5 -135.5z" />
    <glyph glyph-name="p" unicode="p" 
d="M98 40v-333q0 -7 -7 -7h-4q-6 0 -6 7v686q0 7 6 7h4q7 0 7 -7v-37q59 54 144 54t141 -59.5t56 -148.5q0 -92 -56.5 -152t-149.5 -60q-80 0 -135 50zM98 67q5 -7 18.5 -18.5t46.5 -26t70 -14.5q86 0 137.5 55t51.5 139q0 81 -51.5 135.5t-128.5 54.5q-41 0 -76 -15
t-48.5 -27t-19.5 -21v-262z" />
    <glyph glyph-name="q" unicode="q" 
d="M52 202q0 88 58.5 148t143.5 60q76 0 139 -55v38q0 7 7 7h4q6 0 6 -7v-686q0 -7 -6 -7h-4q-7 0 -7 7v334q-56 -51 -134 -51q-94 0 -150.5 60t-56.5 152zM69 202q0 -84 52 -139t138 -55q36 0 68.5 14t45.5 25.5t20 20.5v260q-7 10 -18 21t-45.5 27t-75.5 16
q-78 0 -131.5 -54.5t-53.5 -135.5z" />
    <glyph glyph-name="r" unicode="r" horiz-adv-x="314" 
d="M81 7v386q0 7 7 7h4q7 0 7 -7v-53q50 70 130 70q22 0 40.5 -4.5t26.5 -9.5l7 -4q6 -4 2 -9l-3 -5q-3 -5 -9 -2q-23 16 -64 16q-28 0 -52.5 -10.5t-41 -27t-24 -26t-12.5 -18.5v-303q0 -7 -7 -7h-4q-7 0 -7 7z" />
    <glyph glyph-name="s" unicode="s" horiz-adv-x="381" 
d="M61 35q-4 3 -3 7l5 7q3 5 9 0q51 -41 121 -41q54 0 90 26.5t36 65.5t-33.5 59.5t-101.5 39.5q-70 20 -101 44t-31 64q0 39 35 71t100 32t114 -32q5 -3 2 -8l-3 -5q-4 -5 -9 -2q-46 29 -104 29q-56 0 -86 -26.5t-30 -58.5q0 -34 27.5 -53.5t89.5 -37.5q32 -9 47.5 -14
t39.5 -15.5t35 -21t20 -27.5t9 -38q0 -46 -42.5 -78t-103.5 -32q-74 0 -132 45z" />
    <glyph glyph-name="t" unicode="t" horiz-adv-x="315" 
d="M87 107v275h-42q-6 0 -6 7v4q0 7 6 7h42v108q0 7 6 7h4q7 0 7 -7v-108h163q7 0 7 -7v-4q0 -7 -7 -7h-163v-275q0 -26 1.5 -40t8 -29.5t22 -22.5t40.5 -7q29 0 62 11.5t46 20.5q6 4 8 -2l3 -6q1 -4 -2 -7q-15 -10 -50 -22.5t-67 -12.5q-31 0 -50 8t-27 27t-10 35t-2 47z
" />
    <glyph glyph-name="u" unicode="u" horiz-adv-x="486" 
d="M75 174v219q0 7 7 7h4q7 0 7 -7v-219q0 -82 38 -124t110 -42q31 0 59 11t46.5 27.5t27 26t13.5 17.5v303q0 7 7 7h4q7 0 7 -7v-386q0 -7 -7 -7h-4q-7 0 -7 7v53q-57 -70 -146 -70q-81 0 -123.5 46.5t-42.5 137.5z" />
    <glyph glyph-name="v" unicode="v" horiz-adv-x="398" 
d="M193 -10l-177 405q-3 7 1 8l7 3q4 2 7 -3l168 -383l168 383q3 5 7 3l7 -3q4 -1 1 -8l-177 -405q-2 -4 -6 -4t-6 4z" />
    <glyph glyph-name="w" unicode="w" horiz-adv-x="596" 
d="M165 -12l-134 408q-2 6 3 8l6 2q6 1 7 -3l125 -376l119 388q1 5 7 5t7 -5l119 -388l125 376q1 4 7 3l6 -2q5 -2 3 -8l-134 -408q-1 -5 -7 -5t-7 5l-119 387l-119 -387q-1 -5 -7 -5t-7 5z" />
    <glyph glyph-name="x" unicode="x" horiz-adv-x="405" 
d="M38 3q-4 3 -1 7l154 197l-147 187q-3 4 1 7l6 4q4 2 7 -1l144 -183l145 183q3 3 7 1l6 -4q4 -3 1 -7l-148 -187l155 -197q3 -4 -1 -7l-6 -4q-4 -2 -7 1l-152 193l-151 -193q-3 -3 -7 -1z" />
    <glyph glyph-name="y" unicode="y" horiz-adv-x="422" 
d="M207 8l-194 387q-3 7 1 8l7 3q4 2 7 -3l188 -376l176 376q3 5 7 3l7 -3q4 -1 1 -8l-326 -696q-3 -6 -8 -3l-5 3q-4 3 -2 8z" />
    <glyph glyph-name="z" unicode="z" horiz-adv-x="377" 
d="M31 11l277 371h-243q-6 0 -6 7v4q0 7 6 7h267q5 0 7 -3.5t-1 -7.5l-279 -371h262q7 0 7 -7v-4q0 -7 -7 -7h-284q-5 0 -7 3.5t1 7.5z" />
    <glyph glyph-name="braceleft" unicode="{" horiz-adv-x="333" 
d="M108 -65v168q0 41 -24.5 66t-48.5 25q-7 0 -7 7v4q0 7 7 7q22 0 47.5 24.5t25.5 66.5v165q0 242 190 242q7 0 7 -7v-4q0 -7 -7 -7q-172 0 -172 -224v-165q0 -68 -60 -100q60 -32 60 -100v-168q0 -227 172 -227q7 0 7 -7v-4q0 -7 -7 -7q-190 0 -190 245z" />
    <glyph glyph-name="bar" unicode="|" horiz-adv-x="192" 
d="M87 -293v1045q0 7 7 7h4q7 0 7 -7v-1045q0 -7 -7 -7h-4q-7 0 -7 7z" />
    <glyph glyph-name="braceright" unicode="}" horiz-adv-x="333" 
d="M207 -65v168q0 68 60 100q-60 32 -60 100v165q0 224 -172 224q-7 0 -7 7v4q0 7 7 7q190 0 190 -242v-165q0 -42 25.5 -66.5t47.5 -24.5q7 0 7 -7v-4q0 -7 -7 -7q-24 0 -48.5 -25t-24.5 -66v-168q0 -245 -190 -245q-7 0 -7 7v4q0 7 7 7q172 0 172 227z" />
    <glyph glyph-name="asciitilde" unicode="~" horiz-adv-x="591" 
d="M84 250l-5 3q-4 3 -2 8q2 4 5.5 10.5t15.5 23.5t26.5 30t37 23.5t47.5 10.5q53 0 102 -63q43 -56 86 -56q34 0 63.5 22t41.5 44l12 22q2 5 7 3l5 -2q6 -3 3 -8q-2 -4 -5.5 -10.5t-15.5 -23.5t-26.5 -30t-37 -23.5t-47.5 -10.5q-23 0 -44 11t-31.5 22t-25.5 30
q-42 55 -87 55q-34 0 -63.5 -22t-41.5 -44l-12 -22q-3 -6 -8 -3z" />
    <glyph glyph-name="uni00A0" unicode="&#xa0;" horiz-adv-x="213" 
 />
    <glyph glyph-name="exclamdown" unicode="&#xa1;" horiz-adv-x="222" 
d="M111 365q-10 0 -17 6.5t-7 16.5t7 17t17 7t17 -7t7 -17t-7 -16.5t-17 -6.5zM102 133q0 7 7 7h4q7 0 7 -7v-419q0 -7 -7 -7h-4q-7 0 -7 7v419z" />
    <glyph glyph-name="cent" unicode="&#xa2;" horiz-adv-x="461" 
d="M158 -81l22 84q-62 22 -101 75.5t-39 123.5q0 89 62.5 148.5t151.5 59.5q18 0 35 -3l10 38q2 7 8 5l4 -1q7 -2 5 -9l-10 -36q28 -6 53.5 -18.5t36.5 -21.5l11 -9q4 -4 0 -8l-4 -4q-5 -5 -10 1q-34 30 -91 43l-100 -373q26 -6 52 -6q40 0 76.5 16t53.5 32l17 15q5 5 8 1
l5 -5q4 -3 1 -6l-7.5 -7.5t-20.5 -17t-33.5 -22t-44.5 -17t-55 -7.5t-57 8l-22 -84q-2 -7 -8 -5l-4 1q-7 2 -5 9zM185 20l99 370q-20 2 -30 2q-82 0 -139.5 -54t-57.5 -136q0 -64 36 -113t92 -69z" />
    <glyph glyph-name="sterling" unicode="&#xa3;" horiz-adv-x="536" 
d="M82 10q51 123 51 217q0 35 -9 84h-43q-7 0 -7 7v4q0 6 7 6h40q-2 6 -7.5 29t-7.5 31t-6 27.5t-5.5 31.5t-3 29.5t-1.5 34.5q0 87 58.5 143t137.5 56q109 0 187 -72q5 -4 0 -9l-4 -4q-5 -5 -8 -1q-74 68 -175 68q-72 0 -125.5 -50.5t-53.5 -130.5q0 -59 32 -183h240
q7 0 7 -6v-4q0 -7 -7 -7h-236q7 -46 7 -84q0 -94 -47 -209h350q7 0 7 -7v-4q0 -7 -7 -7h-365q-10 0 -6 10z" />
    <glyph glyph-name="currency" unicode="&#xa4;" horiz-adv-x="449" 
d="M108 311q0 -47 34 -81.5t82 -34.5q47 0 82 34.5t35 82.5q0 47 -34 81.5t-82 34.5t-82.5 -34.5t-34.5 -82.5zM65 151l-2 2q-3 5 0 10l60 61q-32 38 -32 86q0 54 33 91l-61 62q-3 5 0 10l2 2q5 3 10 0l62 -62q36 32 88 32q50 0 87 -32l63 62q5 3 10 0l2 -2q3 -5 0 -10
l-62 -63q34 -39 34 -88q0 -50 -32 -88l60 -61q3 -5 0 -10l-2 -2q-5 -3 -10 0l-61 60q-37 -33 -89 -33q-51 0 -89 33l-61 -60q-5 -3 -10 0z" />
    <glyph glyph-name="yen" unicode="&#xa5;" horiz-adv-x="606" 
d="M125 155q-6 0 -6 6v4q0 3 2 5.5t4 1.5h169v101h-169q-6 0 -6 6v4q0 3 2 5.5t4 1.5h169v53l-264 345q-4 6 1 9l6 4q3 2 8 -3l258 -339l258 339q4 6 8 3l6 -4q5 -3 1 -9l-264 -344v-54h170q6 0 6 -7v-4q0 -6 -6 -6h-170v-101h170q6 0 6 -7v-4q0 -6 -6 -6h-170v-148
q0 -7 -7 -7h-4q-7 0 -7 7v148h-169z" />
    <glyph glyph-name="brokenbar" unicode="&#xa6;" horiz-adv-x="358" 
d="M177 384q-7 0 -7 7v361q0 7 7 7h4q7 0 7 -7v-361q0 -7 -7 -7h-4zM170 69q0 6 7 6h4q7 0 7 -6v-361q0 -7 -7 -7h-4q-7 0 -7 7v361z" />
    <glyph glyph-name="section" unicode="&#xa7;" horiz-adv-x="541" 
d="M79 -120q3 4 8 -1q12 -12 30.5 -25.5t64 -31t93.5 -17.5q76 0 133 42.5t57 101.5q0 70 -51 108t-151 63t-154.5 67t-54.5 120q0 66 49 112q-47 44 -47 115q0 70 54.5 123t162.5 53q44 0 86.5 -13t62.5 -25l21 -13q4 -2 1 -7l-4 -7q-3 -7 -8 -3q-8 6 -21.5 14t-55 22
t-82.5 14q-100 0 -150 -47.5t-50 -110.5q0 -69 50.5 -109t143.5 -62q109 -28 163 -68t54 -118q0 -52 -56 -108q54 -44 54 -120q0 -66 -62 -113.5t-145 -47.5q-50 0 -99 18.5t-69 32.5t-33 26q-5 5 -1 9zM267 137q99 -25 146 -57q52 48 52 97q0 69 -51 106.5t-151 62.5
q-97 23 -146 62q-44 -41 -44 -101q0 -68 50.5 -108t143.5 -62z" />
    <glyph glyph-name="dieresis" unicode="&#xa8;" horiz-adv-x="414" 
d="M319 607q-9 0 -14.5 6t-5.5 14q0 21 20 21q9 0 15 -6t6 -15q0 -8 -6 -14t-15 -6zM130 607q-9 0 -15 6t-6 14q0 9 6 15t15 6q20 0 20 -21q0 -8 -5.5 -14t-14.5 -6z" />
    <glyph glyph-name="copyright" unicode="&#xa9;" horiz-adv-x="845" 
d="M61 350q0 149 106 254.5t255 105.5t255.5 -105.5t106.5 -254.5t-106.5 -254.5t-255.5 -105.5t-255 105.5t-106 254.5zM79 350q0 -142 100.5 -242t242.5 -100t243 100t101 242t-101 242t-243 100t-242.5 -100t-100.5 -242zM239 348q0 81 56 137t136 56q66 0 117 -39
q5 -3 2 -8l-4 -5q-3 -4 -7 -1q-46 36 -108 36q-72 0 -123.5 -51.5t-51.5 -124.5q0 -72 51.5 -123t123.5 -51q63 0 109 39q5 5 9 -2l3 -5q2 -4 -1 -7q-50 -43 -120 -43q-79 0 -135.5 56t-56.5 136z" />
    <glyph glyph-name="ordfeminine" unicode="&#xaa;" horiz-adv-x="336" 
d="M147 401q-44 0 -73 27.5t-29 73.5q0 43 35.5 70.5t92.5 27.5q44 0 81 -13v26q0 42 -16.5 60.5t-58.5 18.5q-24 0 -46 -5t-31 -11l-10 -5q-5 -1 -7 1l-3 6q-4 4 2 8q35 24 95 24q51 0 72 -23.5t21 -73.5v-196q0 -7 -7 -7h-4q-7 0 -7 7v25q-50 -41 -107 -41zM147 419
q33 0 63 15.5t44 32.5v102q-45 15 -81 15q-49 0 -79.5 -23.5t-30.5 -58.5q0 -39 23.5 -61t60.5 -22z" />
    <glyph glyph-name="guillemotleft" unicode="&#xab;" horiz-adv-x="390" 
d="M196 204q-3 4 0 8l122 170q3 5 9 2l5 -3q6 -3 2 -8l-117 -165l117 -167q4 -5 -2 -8l-5 -3q-6 -3 -9 2zM158 32l-122 172q-3 4 0 8l122 170q3 5 9 2l5 -3q6 -3 2 -8l-117 -165l117 -167q4 -5 -2 -8l-5 -3q-6 -3 -9 2z" />
    <glyph glyph-name="logicalnot" unicode="&#xac;" horiz-adv-x="565" 
d="M88 340q-7 0 -7 7v4q0 7 7 7h389q7 0 7 -7v-197q0 -7 -7 -7h-4q-7 0 -7 7v186h-378z" />
    <glyph glyph-name="uni00AD" unicode="&#xad;" horiz-adv-x="347" 
d="M52 243q-6 0 -6 7v4q0 7 6 7h243q6 0 6 -7v-4q0 -7 -6 -7h-243z" />
    <glyph glyph-name="registered" unicode="&#xae;" horiz-adv-x="845" 
d="M61 350q0 149 106 254.5t255 105.5t255.5 -105.5t106.5 -254.5t-106.5 -254.5t-255.5 -105.5t-255 105.5t-106 254.5zM79 350q0 -142 100.5 -242t242.5 -100t243 100t101 242t-101 242t-243 100t-242.5 -100t-100.5 -242zM291 173v359q0 7 6 7h150q54 0 92 -29t38 -85
q0 -49 -32 -78.5t-77 -36.5l78 -134q3 -4 -2 -7l-6 -3q-4 -3 -8 3l-81 140h-2h-139v-136q0 -7 -7 -7h-4q-6 0 -6 7zM308 326h139q44 0 78 26t34 73q0 48 -33 72.5t-79 24.5h-139v-196z" />
    <glyph glyph-name="macron" unicode="&#xaf;" horiz-adv-x="414" 
d="M63 607q-7 0 -7 7v4q0 7 7 7h288q7 0 7 -7v-4q0 -7 -7 -7h-288z" />
    <glyph glyph-name="degree" unicode="&#xb0;" horiz-adv-x="365" 
d="M183 427q-59 0 -100 41.5t-41 100.5t41 100t100 41q58 0 99.5 -41.5t41.5 -99.5q0 -59 -41.5 -100.5t-99.5 -41.5zM183 445q51 0 86.5 36t35.5 88q0 51 -35.5 87t-86.5 36q-52 0 -87.5 -36t-35.5 -87q0 -52 35.5 -88t87.5 -36z" />
    <glyph glyph-name="plusminus" unicode="&#xb1;" horiz-adv-x="632" 
d="M306 225v156h-186q-7 0 -7 7v4q0 7 7 7h186v185q0 7 7 7h4q7 0 7 -7v-185h185q7 0 7 -7v-4q0 -7 -7 -7h-185v-156q0 -7 -7 -7h-4q-7 0 -7 7zM116 92v4q0 7 7 7h389q7 0 7 -7v-4q0 -7 -7 -7h-389q-7 0 -7 7z" />
    <glyph glyph-name="twosuperior" unicode="&#xb2;" horiz-adv-x="330" 
d="M69 504q-5 0 -7 4.5t2 7.5l132 110q56 47 56 93q0 30 -23.5 51.5t-62.5 21.5q-24 0 -42.5 -9t-25.5 -18l-6 -9q-3 -7 -9 -3l-5 4q-4 4 -2 8q3 5 9 12.5t29.5 20t51.5 12.5q48 0 76 -27t28 -64q0 -52 -62 -104l-112 -93h165q6 0 6 -7v-4q0 -7 -6 -7h-192z" />
    <glyph glyph-name="threesuperior" unicode="&#xb3;" horiz-adv-x="334" 
d="M170 494q-61 0 -107 42q-5 5 0 10l3 3q5 5 10 0q41 -37 95 -37q43 0 68.5 19.5t25.5 49.5q0 27 -22.5 46t-60.5 19h-65q-7 0 -7 7v4q0 7 7 7h65q32 0 53 19t21 46q0 29 -21.5 46t-59.5 17q-26 0 -48 -9t-31 -18l-8 -9q-4 -4 -7 -1l-5 4q-5 4 -2 9q4 5 11.5 12t33.5 18.5
t56 11.5q46 0 73 -21.5t27 -59.5q0 -22 -15.5 -43t-36.5 -30q27 -9 44 -30t17 -45q0 -38 -31.5 -62.5t-82.5 -24.5z" />
    <glyph glyph-name="acute" unicode="&#xb4;" horiz-adv-x="302" 
d="M63 560q-6 -2 -9 3l-2 5q-2 4 3 7l182 91q6 2 9 -3l2 -4q3 -6 -3 -9z" />
    <glyph glyph-name="mu" unicode="&#xb5;" horiz-adv-x="504" 
d="M100 78v-371q0 -7 -7 -7h-4q-7 0 -7 7v686q0 7 7 7h4q7 0 7 -7v-219q0 -82 38 -124t110 -42q31 0 59 11t46.5 27.5t27 26t13.5 17.5v303q0 7 7 7h4q7 0 7 -7v-386q0 -7 -7 -7h-4q-7 0 -7 7v53q-58 -70 -146 -70q-117 0 -148 88z" />
    <glyph glyph-name="paragraph" unicode="&#xb6;" horiz-adv-x="669" 
d="M241 274q-88 0 -150.5 62.5t-62.5 151.5q0 88 57.5 150t141.5 62h414q7 0 7 -7v-4q0 -7 -7 -7h-100v-975q0 -7 -7 -7h-4q-7 0 -7 7v975h-193v-975q0 -7 -7 -7h-4q-6 0 -6 7v975h-86q-76 0 -128.5 -56.5t-52.5 -137.5q0 -83 57.5 -140t137.5 -57q7 0 7 -7v-4q0 -6 -7 -6z
" />
    <glyph glyph-name="periodcentered" unicode="&#xb7;" horiz-adv-x="258" 
d="M129 238q-10 0 -17 7t-7 17t7 16.5t17 6.5t17 -6.5t7 -16.5t-7 -17t-17 -7z" />
    <glyph glyph-name="cedilla" unicode="&#xb8;" horiz-adv-x="247" 
d="M88 -6q0 6 6 6h6q5 0 5 -6v-48q109 -11 109 -91q0 -37 -26 -63.5t-65 -26.5q-46 0 -78 34q-5 5 0 9l6 5q5 3 9 -1q25 -29 63 -29q32 0 52 21t20 51q0 66 -101 74q-6 0 -6 6v59z" />
    <glyph glyph-name="onesuperior" unicode="&#xb9;" horiz-adv-x="181" 
d="M103 504q-7 0 -7 7v266l-55 -41q-5 -3 -8 1l-5 7q-2 4 2 7l73 53q4 3 7.5 1t3.5 -7v-287q0 -7 -7 -7h-4z" />
    <glyph glyph-name="ordmasculine" unicode="&#xba;" horiz-adv-x="337" 
d="M168 394q-57 0 -89 42.5t-32 115.5q0 74 32 116t89 42t89.5 -42t32.5 -116q0 -73 -32.5 -115.5t-89.5 -42.5zM168 412q49 0 76.5 37t27.5 103t-27.5 103.5t-76.5 37.5t-76.5 -37.5t-27.5 -103.5q0 -65 27.5 -102.5t76.5 -37.5z" />
    <glyph glyph-name="guillemotright" unicode="&#xbb;" horiz-adv-x="390" 
d="M216 41l117 167l-117 165q-4 5 2 8l5 3q6 3 9 -2l122 -170q3 -4 0 -8l-122 -172q-3 -5 -9 -2l-5 3q-6 3 -2 8zM58 33q-6 3 -2 8l117 167l-117 165q-4 5 2 8l5 3q6 3 9 -2l122 -170q3 -4 0 -8l-122 -172q-3 -5 -9 -2z" />
    <glyph glyph-name="onequarter" unicode="&#xbc;" horiz-adv-x="637" 
d="M130 404q-7 0 -7 7v266l-55 -41q-5 -3 -8 1l-5 7q-2 4 2 7l73 53q4 3 7.5 1t3.5 -7v-287q0 -7 -7 -7h-4zM66 12l417 686q3 4 8 1l6 -3q5 -3 2 -8l-417 -686q-4 -5 -7 -3l-8 5q-4 3 -1 8zM306 79l203 223q4 3 8 1.5t4 -6.5v-212h50q7 0 7 -7v-4q0 -6 -7 -6h-50v-61
q0 -7 -7 -7h-4q-7 0 -7 7v61h-192q-5 0 -6.5 3.5t1.5 7.5zM333 85h170v185z" />
    <glyph glyph-name="onehalf" unicode="&#xbd;" horiz-adv-x="625" 
d="M130 404q-7 0 -7 7v266l-55 -41q-5 -3 -8 1l-5 7q-2 4 2 7l73 53q4 3 7.5 1t3.5 -7v-287q0 -7 -7 -7h-4zM66 12l417 686q3 4 8 1l6 -3q5 -3 2 -8l-417 -686q-4 -5 -7 -3l-8 5q-4 3 -1 8zM347 12l132 110q56 47 56 93q0 30 -23.5 51.5t-62.5 21.5q-24 0 -42.5 -9
t-24.5 -18l-7 -9q-3 -7 -9 -3l-5 4q-4 4 -2 8q3 5 9 12.5t29.5 20t51.5 12.5q48 0 76 -27t28 -64q0 -52 -62 -104l-112 -93h165q6 0 6 -7v-4q0 -7 -6 -7h-192q-5 0 -7 4.5t2 7.5z" />
    <glyph glyph-name="threequarters" unicode="&#xbe;" horiz-adv-x="695" 
d="M162 394q-61 0 -107 42q-5 5 0 10l3 3q5 5 10 0q41 -37 95 -37q43 0 68.5 19.5t25.5 49.5q0 27 -22.5 46t-60.5 19h-65q-7 0 -7 7v4q0 7 7 7h65q32 0 53 19t21 46q0 29 -21.5 46t-59.5 17q-26 0 -48 -9t-31 -18l-8 -9q-4 -4 -7 -1l-5 4q-5 4 -2 9q4 5 11.5 12t33.5 18.5
t56 11.5q46 0 73 -21.5t27 -59.5q0 -22 -15.5 -43t-36.5 -30q27 -9 44 -30t17 -45q0 -38 -31.5 -62.5t-82.5 -24.5zM124 12l417 686q3 4 8 1l6 -3q5 -3 2 -8l-417 -686q-4 -5 -7 -3l-8 5q-4 3 -1 8zM364 79l203 223q4 3 8 1.5t4 -6.5v-212h50q7 0 7 -7v-4q0 -6 -7 -6h-50
v-61q0 -7 -7 -7h-4q-7 0 -7 7v61h-192q-5 0 -6.5 3.5t1.5 7.5zM391 85h170v185z" />
    <glyph glyph-name="questiondown" unicode="&#xbf;" horiz-adv-x="241" 
d="M131 364q-10 0 -17 6.5t-7 16.5t7 17t17 7t16.5 -7t6.5 -17t-6.5 -16.5t-16.5 -6.5zM78 13q48 25 48 64v60q0 7 7 7h4q7 0 7 -7v-60q0 -17 -5 -30.5t-17.5 -24.5t-16.5 -13.5t-19 -11.5q-127 -68 -127 -159q0 -56 45 -92.5t117 -36.5q33 0 63 8.5t49 20.5t33.5 24
t20.5 20l6 9q4 6 8 2l5 -4q4 -4 2 -8t-7 -10t-22 -21.5t-36.5 -27.5t-52.5 -21.5t-69 -9.5q-79 0 -129 42t-50 105q0 97 136 175z" />
    <glyph glyph-name="Agrave" unicode="&#xc0;" horiz-adv-x="639" 
d="M8 7l308 710q2 4 5 4h2q3 0 5 -4l302 -710q2 -5 -3 -6l-9 -3q-3 -1 -5 3l-89 209h-409l-90 -209q-2 -4 -5 -3l-9 3q-5 1 -3 6zM123 227h393l-194 458zM419 778l-182 90q-6 3 -3 9l2 4q3 5 9 3l182 -91q5 -3 3 -7l-2 -5q-3 -5 -9 -3z" />
    <glyph glyph-name="Aacute" unicode="&#xc1;" horiz-adv-x="639" 
d="M8 7l308 710q2 4 5 4h2q3 0 5 -4l302 -710q2 -5 -3 -6l-9 -3q-3 -1 -5 3l-89 209h-409l-90 -209q-2 -4 -5 -3l-9 3q-5 1 -3 6zM123 227h393l-194 458zM241 778q-6 -2 -9 3l-2 5q-2 4 3 7l182 91q6 2 9 -3l2 -4q3 -6 -3 -9z" />
    <glyph glyph-name="Acircumflex" unicode="&#xc2;" horiz-adv-x="639" 
d="M8 7l308 710q2 4 5 4h2q3 0 5 -4l302 -710q2 -5 -3 -6l-9 -3q-3 -1 -5 3l-89 209h-409l-90 -209q-2 -4 -5 -3l-9 3q-5 1 -3 6zM123 227h393l-194 458zM197 763q-3 -3 -7 1l-4 5q-2 4 2 8l129 106q4 4 8 0l129 -106q4 -4 2 -8l-4 -5q-4 -4 -7 -1l-124 101z" />
    <glyph glyph-name="Atilde" unicode="&#xc3;" horiz-adv-x="639" 
d="M8 7l308 710q2 4 5 4h2q3 0 5 -4l302 -710q2 -5 -3 -6l-9 -3q-3 -1 -5 3l-89 209h-409l-90 -209q-2 -4 -5 -3l-9 3q-5 1 -3 6zM123 227h393l-194 458zM185 802l-8 2q-6 2 -3 9q27 84 86 84q16 0 28 -5.5t20 -17t11.5 -18t9.5 -20.5q19 -46 53 -46q47 0 68 72q2 7 7 5
l8 -2q6 -1 3 -9q-28 -84 -86 -84q-46 0 -71 60q-6 14 -9.5 21t-15 17t-26.5 10q-47 0 -68 -73q-2 -7 -7 -5z" />
    <glyph glyph-name="Adieresis" unicode="&#xc4;" horiz-adv-x="639" 
d="M8 7l308 710q2 4 5 4h2q3 0 5 -4l302 -710q2 -5 -3 -6l-9 -3q-3 -1 -5 3l-89 209h-409l-90 -209q-2 -4 -5 -3l-9 3q-5 1 -3 6zM123 227h393l-194 458zM425 810q-9 0 -15 6t-6 14q0 9 6 15t15 6t15 -6t6 -15q0 -8 -6 -14t-15 -6zM218 810q-9 0 -15 6t-6 14q0 9 6 15t15 6
t15 -6t6 -15q0 -8 -6 -14t-15 -6z" />
    <glyph glyph-name="Aring" unicode="&#xc5;" horiz-adv-x="639" 
d="M8 7l308 710q2 4 5 4h2q3 0 5 -4l302 -710q2 -5 -3 -6l-9 -3q-3 -1 -5 3l-89 209h-409l-90 -209q-2 -4 -5 -3l-9 3q-5 1 -3 6zM123 227h393l-194 458zM322 750q-44 0 -74 30t-30 74t30 74t74 30t74 -30t30 -74t-30 -74t-74 -30zM322 766q35 0 61 26t26 62q0 35 -26 61.5
t-61 26.5q-36 0 -61.5 -26t-25.5 -62t25.5 -62t61.5 -26z" />
    <glyph glyph-name="AE" unicode="&#xc6;" horiz-adv-x="936" 
d="M-1 -1l-5 3q-5 3 -2 8l445 682q5 8 17 8h398q7 0 7 -7v-4q0 -7 -7 -7h-396v-309h348q7 0 7 -7v-4q0 -7 -7 -7h-348v-337h396q7 0 7 -7v-4q0 -7 -7 -7h-406q-7 0 -7 7v203h-295l-137 -210q-3 -4 -8 -1zM154 227h285v435z" />
    <glyph glyph-name="Ccedilla" unicode="&#xc7;" horiz-adv-x="731" 
d="M62 349q0 151 106 256t257 105q132 0 243 -93q4 -4 1 -8l-5 -6q-4 -4 -8 0q-103 89 -231 89q-143 0 -244 -100t-101 -243t100.5 -242t244.5 -99q129 0 231 93q5 5 8 0l5 -6q3 -3 0 -7q-102 -98 -244 -98q-3 0 -7.5 0.5t-6.5 0.5v-45q109 -11 109 -91q0 -37 -26 -63.5
t-65 -26.5q-46 0 -78 34q-5 5 0 9l6 5q5 3 9 -1q25 -29 63 -29q32 0 52 21t20 51q0 66 -101 74q-6 0 -6 6v56q-141 11 -236.5 113.5t-95.5 244.5z" />
    <glyph glyph-name="Egrave" unicode="&#xc8;" horiz-adv-x="610" 
d="M112 7v686q0 7 7 7h407q7 0 7 -7v-4q0 -7 -7 -7h-396v-309h348q7 0 7 -7v-4q0 -7 -7 -7h-348v-337h396q7 0 7 -7v-4q0 -7 -7 -7h-407q-7 0 -7 7zM421 778l-182 90q-6 3 -3 9l2 4q3 5 9 3l182 -91q5 -3 3 -7l-2 -5q-3 -5 -9 -3z" />
    <glyph glyph-name="Eacute" unicode="&#xc9;" horiz-adv-x="610" 
d="M112 7v686q0 7 7 7h407q7 0 7 -7v-4q0 -7 -7 -7h-396v-309h348q7 0 7 -7v-4q0 -7 -7 -7h-348v-337h396q7 0 7 -7v-4q0 -7 -7 -7h-407q-7 0 -7 7zM243 778q-6 -2 -9 3l-2 5q-2 4 3 7l182 91q6 2 9 -3l2 -4q3 -6 -3 -9z" />
    <glyph glyph-name="Ecircumflex" unicode="&#xca;" horiz-adv-x="610" 
d="M112 7v686q0 7 7 7h407q7 0 7 -7v-4q0 -7 -7 -7h-396v-309h348q7 0 7 -7v-4q0 -7 -7 -7h-348v-337h396q7 0 7 -7v-4q0 -7 -7 -7h-407q-7 0 -7 7zM198 763q-3 -3 -7 1l-4 5q-2 4 2 8l129 106q4 4 8 0l129 -106q4 -4 2 -8l-4 -5q-4 -4 -7 -1l-124 101z" />
    <glyph glyph-name="Edieresis" unicode="&#xcb;" horiz-adv-x="610" 
d="M112 7v686q0 7 7 7h407q7 0 7 -7v-4q0 -7 -7 -7h-396v-309h348q7 0 7 -7v-4q0 -7 -7 -7h-348v-337h396q7 0 7 -7v-4q0 -7 -7 -7h-407q-7 0 -7 7zM427 810q-9 0 -15 6t-6 14q0 9 6 15t15 6t15 -6t6 -15q0 -8 -6 -14t-15 -6zM220 810q-9 0 -15 6t-6 14q0 9 6 15t15 6t15 -6
t6 -15q0 -8 -6 -14t-15 -6z" />
    <glyph glyph-name="Igrave" unicode="&#xcc;" horiz-adv-x="242" 
d="M112 7v686q0 7 7 7h4q7 0 7 -7v-686q0 -7 -7 -7h-4q-7 0 -7 7zM219 778l-182 90q-6 3 -3 9l2 4q3 5 9 3l182 -91q5 -3 3 -7l-2 -5q-3 -5 -9 -3z" />
    <glyph glyph-name="Iacute" unicode="&#xcd;" horiz-adv-x="242" 
d="M112 7v686q0 7 7 7h4q7 0 7 -7v-686q0 -7 -7 -7h-4q-7 0 -7 7zM40 778q-6 -2 -9 3l-2 5q-2 4 3 7l182 91q6 2 9 -3l2 -4q3 -6 -3 -9z" />
    <glyph glyph-name="Icircumflex" unicode="&#xce;" horiz-adv-x="242" 
d="M112 7v686q0 7 7 7h4q7 0 7 -7v-686q0 -7 -7 -7h-4q-7 0 -7 7zM-3 763q-3 -3 -7 1l-4 5q-2 4 2 8l129 106q4 4 8 0l129 -106q4 -4 2 -8l-4 -5q-4 -4 -7 -1l-124 101z" />
    <glyph glyph-name="Idieresis" unicode="&#xcf;" horiz-adv-x="242" 
d="M112 7v686q0 7 7 7h4q7 0 7 -7v-686q0 -7 -7 -7h-4q-7 0 -7 7zM225 810q-9 0 -15 6t-6 14q0 9 6 15t15 6t15 -6t6 -15q0 -8 -6 -14t-15 -6zM18 810q-9 0 -15 6t-6 14q0 9 6 15t15 6t15 -6t6 -15q0 -8 -6 -14t-15 -6z" />
    <glyph glyph-name="Eth" unicode="&#xd0;" horiz-adv-x="755" 
d="M114 7v333h-40q-7 0 -7 7v4q0 7 7 7h40v335q0 7 7 7h220q146 0 249.5 -102t103.5 -247q0 -146 -103.5 -248.5t-249.5 -102.5h-220q-7 0 -7 7zM132 18h209q138 0 236.5 97.5t98.5 235.5q0 137 -98.5 234t-236.5 97h-209v-324h289q7 0 7 -7v-4q0 -7 -7 -7h-289v-322z" />
    <glyph glyph-name="Ntilde" unicode="&#xd1;" horiz-adv-x="772" 
d="M112 7v703q0 5 5 6.5t8 -2.5l517 -689v668q0 7 7 7h4q7 0 7 -7v-701q0 -5 -5 -6.5t-8 2.5l-517 689v-670q0 -7 -7 -7h-4q-7 0 -7 7zM272 802l-8 2q-6 2 -3 9q27 84 86 84q16 0 28 -5.5t20 -17t11.5 -18t9.5 -20.5q19 -46 53 -46q47 0 68 72q2 7 7 5l8 -2q6 -1 3 -9
q-28 -84 -86 -84q-46 0 -71 60q-6 14 -9.5 21t-15 17t-26.5 10q-47 0 -68 -73q-2 -7 -7 -5z" />
    <glyph glyph-name="Ograve" unicode="&#xd2;" horiz-adv-x="846" 
d="M62 349q0 151 105 256t256 105t256.5 -105t105.5 -256q0 -150 -105.5 -254.5t-256.5 -104.5t-256 104t-105 255zM80 349q0 -143 100 -242t243 -99q144 0 244 99t100 242t-100.5 243t-243.5 100t-243 -100t-100 -243zM521 778l-182 90q-6 3 -3 9l2 4q3 5 9 3l182 -91
q5 -3 3 -7l-2 -5q-3 -5 -9 -3z" />
    <glyph glyph-name="Oacute" unicode="&#xd3;" horiz-adv-x="846" 
d="M62 349q0 151 105 256t256 105t256.5 -105t105.5 -256q0 -150 -105.5 -254.5t-256.5 -104.5t-256 104t-105 255zM80 349q0 -143 100 -242t243 -99q144 0 244 99t100 242t-100.5 243t-243.5 100t-243 -100t-100 -243zM343 778q-6 -2 -9 3l-2 5q-2 4 3 7l182 91q6 2 9 -3
l2 -4q3 -6 -3 -9z" />
    <glyph glyph-name="Ocircumflex" unicode="&#xd4;" horiz-adv-x="846" 
d="M62 349q0 151 105 256t256 105t256.5 -105t105.5 -256q0 -150 -105.5 -254.5t-256.5 -104.5t-256 104t-105 255zM80 349q0 -143 100 -242t243 -99q144 0 244 99t100 242t-100.5 243t-243.5 100t-243 -100t-100 -243zM298 763q-3 -3 -7 1l-4 5q-2 4 2 8l129 106q4 4 8 0
l129 -106q4 -4 2 -8l-4 -5q-4 -4 -7 -1l-124 101z" />
    <glyph glyph-name="Otilde" unicode="&#xd5;" horiz-adv-x="846" 
d="M62 349q0 151 105 256t256 105t256.5 -105t105.5 -256q0 -150 -105.5 -254.5t-256.5 -104.5t-256 104t-105 255zM80 349q0 -143 100 -242t243 -99q144 0 244 99t100 242t-100.5 243t-243.5 100t-243 -100t-100 -243zM286 802l-8 2q-6 2 -3 9q27 84 86 84q16 0 28 -5.5
t20 -17t11.5 -18t9.5 -20.5q19 -46 53 -46q47 0 68 72q2 7 7 5l8 -2q6 -1 3 -9q-28 -84 -86 -84q-46 0 -71 60q-6 14 -9.5 21t-15 17t-26.5 10q-47 0 -68 -73q-2 -7 -7 -5z" />
    <glyph glyph-name="Odieresis" unicode="&#xd6;" horiz-adv-x="846" 
d="M62 349q0 151 105 256t256 105t256.5 -105t105.5 -256q0 -150 -105.5 -254.5t-256.5 -104.5t-256 104t-105 255zM80 349q0 -143 100 -242t243 -99q144 0 244 99t100 242t-100.5 243t-243.5 100t-243 -100t-100 -243zM527 810q-9 0 -15 6t-6 14q0 9 6 15t15 6t15 -6t6 -15
q0 -8 -6 -14t-15 -6zM320 810q-9 0 -15 6t-6 14q0 9 6 15t15 6t15 -6t6 -15q0 -8 -6 -14t-15 -6z" />
    <glyph glyph-name="multiply" unicode="&#xd7;" horiz-adv-x="432" 
d="M75 204l-3 3q-2 1 -2 4t2 5l131 132l-131 131q-3 5 0 10l3 3q5 3 10 0l131 -131l131 131q5 3 10 0l3 -3q3 -5 0 -10l-131 -131l131 -132q2 -2 2 -5t-2 -4l-3 -3q-1 -2 -4 -2t-5 2l-132 131l-132 -131q-2 -2 -5 -2t-4 2z" />
    <glyph glyph-name="Oslash" unicode="&#xd8;" horiz-adv-x="848" 
d="M88 34q-5 5 0 10l66 64q-91 104 -91 241q0 151 105 256t256 105t255 -104l68 65q4 5 9 0l3 -3q5 -5 0 -10l-68 -65q95 -106 95 -244q0 -150 -105.5 -254.5t-256.5 -104.5q-154 0 -258 104l-66 -63q-4 -5 -9 0zM167 120l499 474q-101 98 -242 98q-143 0 -243 -100
t-100 -243q0 -133 86 -229zM180 107q97 -99 244 -99q144 0 244 99t100 242q0 133 -89 232z" />
    <glyph glyph-name="Ugrave" unicode="&#xd9;" horiz-adv-x="726" 
d="M103 252v441q0 7 7 7h4q7 0 7 -7v-441q0 -109 65 -176.5t175 -67.5q111 0 176.5 67.5t65.5 176.5v441q0 7 7 7h4q7 0 7 -7v-441q0 -117 -70.5 -189.5t-189.5 -72.5q-118 0 -188 72.5t-70 189.5zM460 778l-182 90q-6 3 -3 9l2 4q3 5 9 3l182 -91q5 -3 3 -7l-2 -5
q-3 -5 -9 -3z" />
    <glyph glyph-name="Uacute" unicode="&#xda;" horiz-adv-x="726" 
d="M103 252v441q0 7 7 7h4q7 0 7 -7v-441q0 -109 65 -176.5t175 -67.5q111 0 176.5 67.5t65.5 176.5v441q0 7 7 7h4q7 0 7 -7v-441q0 -117 -70.5 -189.5t-189.5 -72.5q-118 0 -188 72.5t-70 189.5zM282 778q-6 -2 -9 3l-2 5q-2 4 3 7l182 91q6 2 9 -3l2 -4q3 -6 -3 -9z" />
    <glyph glyph-name="Ucircumflex" unicode="&#xdb;" horiz-adv-x="726" 
d="M103 252v441q0 7 7 7h4q7 0 7 -7v-441q0 -109 65 -176.5t175 -67.5q111 0 176.5 67.5t65.5 176.5v441q0 7 7 7h4q7 0 7 -7v-441q0 -117 -70.5 -189.5t-189.5 -72.5q-118 0 -188 72.5t-70 189.5zM237 763q-3 -3 -7 1l-4 5q-2 4 2 8l129 106q4 4 8 0l129 -106q4 -4 2 -8
l-4 -5q-4 -4 -7 -1l-124 101z" />
    <glyph glyph-name="Udieresis" unicode="&#xdc;" horiz-adv-x="726" 
d="M103 252v441q0 7 7 7h4q7 0 7 -7v-441q0 -109 65 -176.5t175 -67.5q111 0 176.5 67.5t65.5 176.5v441q0 7 7 7h4q7 0 7 -7v-441q0 -117 -70.5 -189.5t-189.5 -72.5q-118 0 -188 72.5t-70 189.5zM466 810q-9 0 -15 6t-6 14q0 9 6 15t15 6t15 -6t6 -15q0 -8 -6 -14t-15 -6z
M259 810q-9 0 -15 6t-6 14q0 9 6 15t15 6t15 -6t6 -15q0 -8 -6 -14t-15 -6z" />
    <glyph glyph-name="Yacute" unicode="&#xdd;" horiz-adv-x="544" 
d="M263 7v336l-264 345q-4 6 1 9l6 4q3 2 8 -3l258 -339l258 339q4 6 8 3l6 -4q5 -3 1 -9l-264 -344v-337q0 -7 -7 -7h-4q-7 0 -7 7zM186 778q-6 -2 -9 3l-2 5q-2 4 3 7l182 91q6 2 9 -3l2 -4q3 -6 -3 -9z" />
    <glyph glyph-name="Thorn" unicode="&#xde;" horiz-adv-x="598" 
d="M112 7v686q0 7 7 7h4q7 0 7 -7v-115h197q94 1 161.5 -65.5t67.5 -159.5q0 -95 -67 -162t-161 -67h-198v-117q0 -7 -7 -7h-4q-7 0 -7 7zM130 141h198q86 0 148 62t62 150q0 86 -62 147.5t-149 60.5h-197v-420z" />
    <glyph glyph-name="germandbls" unicode="&#xdf;" horiz-adv-x="569" 
d="M81 7v403q0 149 55 224.5t160 75.5q74 0 124 -39t50 -118q0 -38 -21.5 -79.5t-43 -73t-21.5 -47.5q0 -14 39 -46q23 -20 35.5 -32t31 -34t27.5 -47.5t9 -54.5q0 -74 -49.5 -111.5t-120.5 -37.5q-55 0 -99 20q-5 2 -3 7l3 6q3 5 8 3q32 -18 91 -18q63 0 107.5 33t44.5 98
q0 31 -18 63.5t-34.5 49.5t-44.5 41q-46 40 -46 59q0 18 21.5 50.5t43.5 73t22 77.5q0 70 -45 104.5t-111 34.5q-96 0 -146.5 -71t-50.5 -211v-403q0 -7 -7 -7h-4q-7 0 -7 7z" />
    <glyph glyph-name="agrave" unicode="&#xe0;" horiz-adv-x="436" 
d="M47 125q0 60 48.5 98.5t127.5 38.5q55 0 118 -23v37q0 61 -24.5 88.5t-86.5 27.5q-34 0 -64.5 -7.5t-43.5 -14.5l-14 -8q-5 -3 -9 2l-3 5q-3 5 2 8q50 33 132 33q72 0 100.5 -32t28.5 -102v-269q0 -7 -7 -7h-4q-7 0 -7 7v45q-71 -62 -155 -62q-60 0 -99.5 36.5
t-39.5 98.5zM65 125q0 -54 34 -85.5t87 -31.5q49 0 92.5 22.5t62.5 46.5v144q-80 23 -118 23q-71 0 -114.5 -33.5t-43.5 -85.5zM311 560l-182 90q-6 3 -3 9l2 4q3 5 9 3l182 -91q5 -3 3 -7l-2 -5q-3 -5 -9 -3z" />
    <glyph glyph-name="aacute" unicode="&#xe1;" horiz-adv-x="436" 
d="M47 125q0 60 48.5 98.5t127.5 38.5q55 0 118 -23v37q0 61 -24.5 88.5t-86.5 27.5q-34 0 -64.5 -7.5t-43.5 -14.5l-14 -8q-5 -3 -9 2l-3 5q-3 5 2 8q50 33 132 33q72 0 100.5 -32t28.5 -102v-269q0 -7 -7 -7h-4q-7 0 -7 7v45q-71 -62 -155 -62q-60 0 -99.5 36.5
t-39.5 98.5zM65 125q0 -54 34 -85.5t87 -31.5q49 0 92.5 22.5t62.5 46.5v144q-80 23 -118 23q-71 0 -114.5 -33.5t-43.5 -85.5zM135 560q-6 -2 -9 3l-2 5q-2 4 3 7l182 91q6 2 9 -3l2 -4q3 -6 -3 -9z" />
    <glyph glyph-name="acircumflex" unicode="&#xe2;" horiz-adv-x="436" 
d="M47 125q0 60 48.5 98.5t127.5 38.5q55 0 118 -23v37q0 61 -24.5 88.5t-86.5 27.5q-34 0 -64.5 -7.5t-43.5 -14.5l-14 -8q-5 -3 -9 2l-3 5q-3 5 2 8q50 33 132 33q72 0 100.5 -32t28.5 -102v-269q0 -7 -7 -7h-4q-7 0 -7 7v45q-71 -62 -155 -62q-60 0 -99.5 36.5
t-39.5 98.5zM65 125q0 -54 34 -85.5t87 -31.5q49 0 92.5 22.5t62.5 46.5v144q-80 23 -118 23q-71 0 -114.5 -33.5t-43.5 -85.5zM98 548q-3 -3 -7 1l-4 5q-2 4 2 8l129 106q4 4 8 0l129 -106q4 -4 2 -8l-4 -5q-4 -4 -7 -1l-124 101z" />
    <glyph glyph-name="atilde" unicode="&#xe3;" horiz-adv-x="436" 
d="M47 125q0 60 48.5 98.5t127.5 38.5q55 0 118 -23v37q0 61 -24.5 88.5t-86.5 27.5q-34 0 -64.5 -7.5t-43.5 -14.5l-14 -8q-5 -3 -9 2l-3 5q-3 5 2 8q50 33 132 33q72 0 100.5 -32t28.5 -102v-269q0 -7 -7 -7h-4q-7 0 -7 7v45q-71 -62 -155 -62q-60 0 -99.5 36.5
t-39.5 98.5zM65 125q0 -54 34 -85.5t87 -31.5q49 0 92.5 22.5t62.5 46.5v144q-80 23 -118 23q-71 0 -114.5 -33.5t-43.5 -85.5zM91 583l-8 2q-6 1 -3 9q27 84 86 84q16 0 28 -5.5t20 -17t11.5 -18t9.5 -20.5q19 -46 53 -46q47 0 68 72q2 7 7 5l8 -2q6 -2 3 -9
q-28 -84 -86 -84q-46 0 -71 60q-6 14 -9.5 21t-15 17t-26.5 10q-47 0 -68 -73q-2 -7 -7 -5z" />
    <glyph glyph-name="adieresis" unicode="&#xe4;" horiz-adv-x="436" 
d="M47 125q0 60 48.5 98.5t127.5 38.5q55 0 118 -23v37q0 61 -24.5 88.5t-86.5 27.5q-34 0 -64.5 -7.5t-43.5 -14.5l-14 -8q-5 -3 -9 2l-3 5q-3 5 2 8q50 33 132 33q72 0 100.5 -32t28.5 -102v-269q0 -7 -7 -7h-4q-7 0 -7 7v45q-71 -62 -155 -62q-60 0 -99.5 36.5
t-39.5 98.5zM65 125q0 -54 34 -85.5t87 -31.5q49 0 92.5 22.5t62.5 46.5v144q-80 23 -118 23q-71 0 -114.5 -33.5t-43.5 -85.5zM325 607q-9 0 -14.5 6t-5.5 14q0 21 20 21q9 0 15 -6t6 -15q0 -8 -6 -14t-15 -6zM136 607q-9 0 -15 6t-6 14q0 9 6 15t15 6q20 0 20 -21
q0 -8 -5.5 -14t-14.5 -6z" />
    <glyph glyph-name="aring" unicode="&#xe5;" horiz-adv-x="436" 
d="M47 125q0 60 48.5 98.5t127.5 38.5q55 0 118 -23v37q0 61 -24.5 88.5t-86.5 27.5q-34 0 -64.5 -7.5t-43.5 -14.5l-14 -8q-5 -3 -9 2l-3 5q-3 5 2 8q50 33 132 33q72 0 100.5 -32t28.5 -102v-269q0 -7 -7 -7h-4q-7 0 -7 7v45q-71 -62 -155 -62q-60 0 -99.5 36.5
t-39.5 98.5zM65 125q0 -54 34 -85.5t87 -31.5q49 0 92.5 22.5t62.5 46.5v144q-80 23 -118 23q-71 0 -114.5 -33.5t-43.5 -85.5zM223 500q-44 0 -74 30t-30 74t30 74t74 30q43 0 73.5 -30t30.5 -74t-30 -74t-74 -30zM223 516q35 0 61 26t26 62q0 35 -26 61.5t-61 26.5
q-36 0 -61.5 -26t-25.5 -62t25.5 -62t61.5 -26z" />
    <glyph glyph-name="ae" unicode="&#xe6;" horiz-adv-x="721" 
d="M47 126q0 60 48.5 98t127.5 38q58 0 121 -23v37q0 61 -25.5 88.5t-87.5 27.5q-34 0 -65 -7.5t-44 -14.5l-14 -8q-6 -3 -9 2l-3 6q-2 5 2 7q50 33 133 33q96 0 120 -64q56 64 142 64q80 0 131.5 -51.5t51.5 -132.5q0 -22 -5 -30q-2 -4 -6 -4h-303v-121q56 -63 131 -63
q82 0 137 43q5 4 7 -1l3 -6q2 -4 -1 -7q-59 -47 -146 -47q-82 0 -140 65q-25 -25 -71 -45t-96 -20q-60 0 -99.5 37t-39.5 99zM362 210h295q1 6 1 16q0 73 -46.5 119.5t-118.5 46.5q-89 0 -136 -68q5 -23 5 -48v-66zM65 126q0 -54 34.5 -86t86.5 -32q49 0 94.5 20.5
t63.5 43.5v149q-80 23 -121 23q-71 0 -114.5 -33t-43.5 -85z" />
    <glyph glyph-name="ccedilla" unicode="&#xe7;" horiz-adv-x="479" 
d="M52 202q0 89 62.5 148.5t151.5 59.5q42 0 80.5 -14t55.5 -28l17 -13q4 -4 0 -8l-4 -4q-5 -5 -10 1q-6 5 -17 13t-47 21.5t-75 13.5q-82 0 -139.5 -54t-57.5 -136q0 -83 58.5 -138.5t138.5 -55.5q40 0 76.5 16t53.5 32l17 15q5 5 8 1l5 -5q4 -3 1 -6l-7.5 -7.5t-20.5 -17
t-33.5 -22t-44.5 -17t-55 -7.5q-10 0 -14 1v-45q109 -11 109 -91q0 -37 -26 -63.5t-65 -26.5q-46 0 -78 34q-4 5 0 9l6 5q5 3 9 -1q25 -29 63 -29q32 0 52 21t20 51q0 66 -101 74q-6 0 -6 6v57q-78 11 -130.5 69.5t-52.5 140.5z" />
    <glyph glyph-name="egrave" unicode="&#xe8;" horiz-adv-x="477" 
d="M71 193q2 -80 50 -132.5t128 -52.5q83 0 136 43q5 4 8 -1l4 -6q2 -3 -2 -7q-62 -47 -146 -47q-89 0 -143 60.5t-54 151.5q0 89 54 148.5t143 59.5q80 0 131 -51t51 -132q0 -23 -4 -30q-2 -4 -6 -4h-350zM71 210h341q1 6 1 17q0 73 -46.5 119t-117.5 46q-79 0 -127 -51.5
t-51 -130.5zM334 560l-182 90q-6 3 -3 9l2 4q3 5 9 3l182 -91q5 -3 3 -7l-2 -5q-3 -5 -9 -3z" />
    <glyph glyph-name="eacute" unicode="&#xe9;" horiz-adv-x="477" 
d="M71 193q2 -80 50 -132.5t128 -52.5q83 0 136 43q5 4 8 -1l4 -6q2 -3 -2 -7q-62 -47 -146 -47q-89 0 -143 60.5t-54 151.5q0 89 54 148.5t143 59.5q80 0 131 -51t51 -132q0 -23 -4 -30q-2 -4 -6 -4h-350zM71 210h341q1 6 1 17q0 73 -46.5 119t-117.5 46q-79 0 -127 -51.5
t-51 -130.5zM158 560q-6 -2 -9 3l-2 5q-2 4 3 7l182 91q6 2 9 -3l2 -4q3 -6 -3 -9z" />
    <glyph glyph-name="ecircumflex" unicode="&#xea;" horiz-adv-x="477" 
d="M71 193q2 -80 50 -132.5t128 -52.5q83 0 136 43q5 4 8 -1l4 -6q2 -3 -2 -7q-62 -47 -146 -47q-89 0 -143 60.5t-54 151.5q0 89 54 148.5t143 59.5q80 0 131 -51t51 -132q0 -23 -4 -30q-2 -4 -6 -4h-350zM71 210h341q1 6 1 17q0 73 -46.5 119t-117.5 46q-79 0 -127 -51.5
t-51 -130.5zM121 548q-3 -3 -7 1l-4 5q-2 4 2 8l129 106q4 4 8 0l129 -106q4 -4 2 -8l-4 -5q-4 -4 -7 -1l-124 101z" />
    <glyph glyph-name="edieresis" unicode="&#xeb;" horiz-adv-x="477" 
d="M71 193q2 -80 50 -132.5t128 -52.5q83 0 136 43q5 4 8 -1l4 -6q2 -3 -2 -7q-62 -47 -146 -47q-89 0 -143 60.5t-54 151.5q0 89 54 148.5t143 59.5q80 0 131 -51t51 -132q0 -23 -4 -30q-2 -4 -6 -4h-350zM71 210h341q1 6 1 17q0 73 -46.5 119t-117.5 46q-79 0 -127 -51.5
t-51 -130.5zM358 607q-9 0 -14.5 6t-5.5 14q0 21 20 21q9 0 15 -6t6 -15q0 -8 -6 -14t-15 -6zM169 607q-9 0 -15 6t-6 14q0 9 6 15t15 6q20 0 20 -21q0 -8 -5.5 -14t-14.5 -6z" />
    <glyph glyph-name="igrave" unicode="&#xec;" horiz-adv-x="180" 
d="M81 7v386q0 7 7 7h4q7 0 7 -7v-386q0 -7 -7 -7h-4q-7 0 -7 7zM178 560l-182 90q-6 3 -3 9l2 4q3 5 9 3l182 -91q5 -3 3 -7l-2 -5q-3 -5 -9 -3z" />
    <glyph glyph-name="iacute" unicode="&#xed;" horiz-adv-x="180" 
d="M81 7v386q0 7 7 7h4q7 0 7 -7v-386q0 -7 -7 -7h-4q-7 0 -7 7zM2 560q-6 -2 -9 3l-2 5q-2 4 3 7l182 91q6 2 9 -3l2 -4q3 -6 -3 -9z" />
    <glyph glyph-name="icircumflex" unicode="&#xee;" horiz-adv-x="180" 
d="M81 7v386q0 7 7 7h4q7 0 7 -7v-386q0 -7 -7 -7h-4q-7 0 -7 7zM-34 548q-3 -3 -7 1l-4 5q-2 4 2 8l129 106q4 4 8 0l129 -106q4 -4 2 -8l-4 -5q-4 -4 -7 -1l-124 101z" />
    <glyph glyph-name="idieresis" unicode="&#xef;" horiz-adv-x="180" 
d="M81 7v386q0 7 7 7h4q7 0 7 -7v-386q0 -7 -7 -7h-4q-7 0 -7 7zM185 607q-9 0 -14.5 6t-5.5 14q0 21 20 21q9 0 15 -6t6 -15q0 -8 -6 -14t-15 -6zM-4 607q-9 0 -15 6t-6 14q0 9 6 15t15 6q20 0 20 -21q0 -8 -5.5 -14t-14.5 -6z" />
    <glyph glyph-name="eth" unicode="&#xf0;" horiz-adv-x="564" 
d="M49 222q0 98 64.5 159.5t154.5 61.5q133 0 221 -118q-19 158 -156 272l-134 -77q-6 -4 -9 3l-2 3q-4 6 3 9l127 73q-66 50 -141 79q-5 3 -4 8l2 7q2 5 8 3q78 -28 152 -87l68 39q5 4 9 -2l2 -3q3 -7 -3 -10l-62 -36q160 -135 160 -330q0 -124 -63 -205t-172 -81
q-92 0 -158.5 68t-66.5 164zM66 222q0 -89 61.5 -151.5t146.5 -62.5q101 0 159.5 75.5t58.5 192.5v14q-36 54 -72 82q-69 53 -152 53t-142.5 -56t-59.5 -147z" />
    <glyph glyph-name="ntilde" unicode="&#xf1;" horiz-adv-x="495" 
d="M81 7v386q0 7 7 7h4q7 0 7 -7v-55q67 72 156 72q81 0 123.5 -47.5t42.5 -138.5v-217q0 -7 -7 -7h-4q-7 0 -7 7v217q0 82 -38 125t-110 43q-40 0 -78 -20t-53.5 -35t-24.5 -27v-303q0 -7 -7 -7h-4q-7 0 -7 7zM107 584l-8 2q-6 2 -3 9q27 84 86 84q16 0 28 -5.5t20 -17
t11.5 -18t9.5 -20.5q19 -46 53 -46q47 0 68 72q2 7 7 5l8 -2q6 -1 3 -9q-28 -84 -86 -84q-46 0 -71 60q-6 14 -9.5 21t-15 17t-26.5 10q-47 0 -68 -73q-2 -7 -7 -5z" />
    <glyph glyph-name="ograve" unicode="&#xf2;" horiz-adv-x="508" 
d="M51 201q0 87 59 148t144 61t144 -61t59 -148q0 -89 -59 -150t-144 -61t-144 61t-59 150zM69 201q0 -81 53.5 -137t131.5 -56t131.5 56t53.5 137q0 80 -53.5 135.5t-131.5 55.5t-131.5 -55.5t-53.5 -135.5zM342 560l-182 90q-6 3 -3 9l2 4q3 5 9 3l182 -91q5 -3 3 -7
l-2 -5q-3 -5 -9 -3z" />
    <glyph glyph-name="oacute" unicode="&#xf3;" horiz-adv-x="508" 
d="M51 201q0 87 59 148t144 61t144 -61t59 -148q0 -89 -59 -150t-144 -61t-144 61t-59 150zM69 201q0 -81 53.5 -137t131.5 -56t131.5 56t53.5 137q0 80 -53.5 135.5t-131.5 55.5t-131.5 -55.5t-53.5 -135.5zM166 560q-6 -2 -9 3l-2 5q-2 4 3 7l182 91q6 2 9 -3l2 -4
q3 -6 -3 -9z" />
    <glyph glyph-name="ocircumflex" unicode="&#xf4;" horiz-adv-x="508" 
d="M51 201q0 87 59 148t144 61t144 -61t59 -148q0 -89 -59 -150t-144 -61t-144 61t-59 150zM69 201q0 -81 53.5 -137t131.5 -56t131.5 56t53.5 137q0 80 -53.5 135.5t-131.5 55.5t-131.5 -55.5t-53.5 -135.5zM129 548q-3 -3 -7 1l-4 5q-2 4 2 8l129 106q4 4 8 0l129 -106
q4 -4 2 -8l-4 -5q-4 -4 -7 -1l-124 101z" />
    <glyph glyph-name="otilde" unicode="&#xf5;" horiz-adv-x="508" 
d="M51 201q0 87 59 148t144 61t144 -61t59 -148q0 -89 -59 -150t-144 -61t-144 61t-59 150zM69 201q0 -81 53.5 -137t131.5 -56t131.5 56t53.5 137q0 80 -53.5 135.5t-131.5 55.5t-131.5 -55.5t-53.5 -135.5zM118 583l-8 2q-6 1 -3 9q27 84 86 84q16 0 28 -5.5t20 -17
t11.5 -18t9.5 -20.5q19 -46 53 -46q47 0 68 72q2 7 7 5l8 -2q6 -2 3 -9q-28 -84 -86 -84q-46 0 -71 60q-6 14 -9.5 21t-15 17t-26.5 10q-47 0 -68 -73q-2 -7 -7 -5z" />
    <glyph glyph-name="odieresis" unicode="&#xf6;" horiz-adv-x="508" 
d="M51 201q0 87 59 148t144 61t144 -61t59 -148q0 -89 -59 -150t-144 -61t-144 61t-59 150zM69 201q0 -81 53.5 -137t131.5 -56t131.5 56t53.5 137q0 80 -53.5 135.5t-131.5 55.5t-131.5 -55.5t-53.5 -135.5zM347 607q-9 0 -14.5 6t-5.5 14q0 21 20 21q9 0 15 -6t6 -15
q0 -8 -6 -14t-15 -6zM158 607q-9 0 -15 6t-6 14q0 9 6 15t15 6q20 0 20 -21q0 -8 -5.5 -14t-14.5 -6z" />
    <glyph glyph-name="divide" unicode="&#xf7;" horiz-adv-x="713" 
d="M352 465q-10 0 -17 7t-7 17t7 16.5t17 6.5t17 -6.5t7 -16.5t-7 -17t-17 -7zM161 340q-7 0 -7 7v4q0 7 7 7h389q7 0 7 -7v-4q0 -7 -7 -7h-389zM328 209q0 10 7 16.5t17 6.5t17 -6.5t7 -16.5t-7 -17t-17 -7t-17 7t-7 17z" />
    <glyph glyph-name="oslash" unicode="&#xf8;" horiz-adv-x="510" 
d="M72 43q-5 5 0 10l20 20q-40 55 -40 125q0 88 59 150t144 62q89 0 148 -66l26 23q4 4 9 0l3 -3q5 -5 0 -10l-26 -24q43 -59 43 -132q0 -88 -58.5 -148t-144.5 -60q-91 0 -151 68l-20 -19q-4 -5 -10 1zM107 85l281 246q-53 61 -133 61q-77 0 -131 -57t-54 -137
q0 -63 37 -113zM119 71q53 -63 136 -63q78 0 131.5 54.5t53.5 135.5q0 67 -39 120z" />
    <glyph glyph-name="ugrave" unicode="&#xf9;" horiz-adv-x="486" 
d="M75 174v219q0 7 7 7h4q7 0 7 -7v-219q0 -82 38 -124t110 -42q31 0 59 11t46.5 27.5t27 26t13.5 17.5v303q0 7 7 7h4q7 0 7 -7v-386q0 -7 -7 -7h-4q-7 0 -7 7v53q-57 -70 -146 -70q-81 0 -123.5 46.5t-42.5 137.5zM331 560l-182 90q-6 3 -3 9l2 4q3 5 9 3l182 -91
q5 -3 3 -7l-2 -5q-3 -5 -9 -3z" />
    <glyph glyph-name="uacute" unicode="&#xfa;" horiz-adv-x="486" 
d="M75 174v219q0 7 7 7h4q7 0 7 -7v-219q0 -82 38 -124t110 -42q31 0 59 11t46.5 27.5t27 26t13.5 17.5v303q0 7 7 7h4q7 0 7 -7v-386q0 -7 -7 -7h-4q-7 0 -7 7v53q-57 -70 -146 -70q-81 0 -123.5 46.5t-42.5 137.5zM155 560q-6 -2 -9 3l-2 5q-2 4 3 7l182 91q6 2 9 -3l2 -4
q3 -6 -3 -9z" />
    <glyph glyph-name="ucircumflex" unicode="&#xfb;" horiz-adv-x="486" 
d="M75 174v219q0 7 7 7h4q7 0 7 -7v-219q0 -82 38 -124t110 -42q31 0 59 11t46.5 27.5t27 26t13.5 17.5v303q0 7 7 7h4q7 0 7 -7v-386q0 -7 -7 -7h-4q-7 0 -7 7v53q-57 -70 -146 -70q-81 0 -123.5 46.5t-42.5 137.5zM118 548q-3 -3 -7 1l-4 5q-2 4 2 8l129 106q4 4 8 0
l129 -106q4 -4 2 -8l-4 -5q-4 -4 -7 -1l-124 101z" />
    <glyph glyph-name="udieresis" unicode="&#xfc;" horiz-adv-x="486" 
d="M75 174v219q0 7 7 7h4q7 0 7 -7v-219q0 -82 38 -124t110 -42q31 0 59 11t46.5 27.5t27 26t13.5 17.5v303q0 7 7 7h4q7 0 7 -7v-386q0 -7 -7 -7h-4q-7 0 -7 7v53q-57 -70 -146 -70q-81 0 -123.5 46.5t-42.5 137.5zM340 607q-9 0 -14.5 6t-5.5 14q0 21 20 21q9 0 15 -6
t6 -15q0 -8 -6 -14t-15 -6zM151 607q-9 0 -15 6t-6 14q0 9 6 15t15 6q20 0 20 -21q0 -8 -5.5 -14t-14.5 -6z" />
    <glyph glyph-name="yacute" unicode="&#xfd;" horiz-adv-x="422" 
d="M207 8l-194 387q-3 7 1 8l7 3q4 2 7 -3l188 -376l176 376q3 5 7 3l7 -3q4 -1 1 -8l-326 -696q-3 -6 -8 -3l-5 3q-4 3 -2 8zM128 560q-6 -2 -9 3l-2 5q-2 4 3 7l182 91q6 2 9 -3l2 -4q3 -6 -3 -9z" />
    <glyph glyph-name="thorn" unicode="&#xfe;" 
d="M98 41v-334q0 -7 -7 -7h-4q-6 0 -6 7v986q0 7 6 7h4q7 0 7 -7v-339q61 56 146 56q84 0 139.5 -61t55.5 -150q0 -91 -58.5 -150t-152.5 -59q-74 0 -130 51zM98 68q6 -8 17.5 -19t43.5 -26t69 -15q87 0 140.5 54t53.5 137q0 82 -50.5 137.5t-127.5 55.5q-41 0 -76.5 -15.5
t-49.5 -28t-20 -21.5v-259z" />
    <glyph glyph-name="ydieresis" unicode="&#xff;" horiz-adv-x="422" 
d="M207 8l-194 387q-3 7 1 8l7 3q4 2 7 -3l188 -376l176 376q3 5 7 3l7 -3q4 -1 1 -8l-326 -696q-3 -6 -8 -3l-5 3q-4 3 -2 8zM310 607q-9 0 -14.5 6t-5.5 14q0 21 20 21q9 0 15 -6t6 -15q0 -8 -6 -14t-15 -6zM121 607q-9 0 -15 6t-6 14q0 9 6 15t15 6q20 0 20 -21
q0 -8 -5.5 -14t-14.5 -6z" />
    <glyph glyph-name="Amacron" unicode="&#x100;" horiz-adv-x="639" 
d="M8 7l308 710q2 4 5 4h2q3 0 5 -4l302 -710q2 -5 -3 -6l-9 -3q-3 -1 -5 3l-89 209h-409l-90 -209q-2 -4 -5 -3l-9 3q-5 1 -3 6zM123 227h393l-194 458zM177 842q-7 0 -7 7v4q0 7 7 7h288q7 0 7 -7v-4q0 -7 -7 -7h-288z" />
    <glyph glyph-name="amacron" unicode="&#x101;" horiz-adv-x="436" 
d="M47 125q0 60 48.5 98.5t127.5 38.5q55 0 118 -23v37q0 61 -24.5 88.5t-86.5 27.5q-34 0 -64.5 -7.5t-43.5 -14.5l-14 -8q-5 -3 -9 2l-3 5q-3 5 2 8q50 33 132 33q72 0 100.5 -32t28.5 -102v-269q0 -7 -7 -7h-4q-7 0 -7 7v45q-71 -62 -155 -62q-60 0 -99.5 36.5
t-39.5 98.5zM65 125q0 -54 34 -85.5t87 -31.5q49 0 92.5 22.5t62.5 46.5v144q-80 23 -118 23q-71 0 -114.5 -33.5t-43.5 -85.5zM79 607q-7 0 -7 7v4q0 7 7 7h288q7 0 7 -7v-4q0 -7 -7 -7h-288z" />
    <glyph glyph-name="Abreve" unicode="&#x102;" horiz-adv-x="639" 
d="M8 7l308 710q2 4 5 4h2q3 0 5 -4l302 -710q2 -5 -3 -6l-9 -3q-3 -1 -5 3l-89 209h-409l-90 -209q-2 -4 -5 -3l-9 3q-5 1 -3 6zM123 227h393l-194 458zM321 780q-50 0 -85 31t-42 77q-1 2 1.5 4.5t4.5 2.5h5q5 0 5 -6q6 -40 37 -66t74 -26q42 0 73 26t38 66q0 6 5 6h5
q2 0 4.5 -2.5t1.5 -4.5q-8 -47 -43 -77.5t-84 -30.5z" />
    <glyph glyph-name="abreve" unicode="&#x103;" horiz-adv-x="436" 
d="M47 125q0 60 48.5 98.5t127.5 38.5q55 0 118 -23v37q0 61 -24.5 88.5t-86.5 27.5q-34 0 -64.5 -7.5t-43.5 -14.5l-14 -8q-5 -3 -9 2l-3 5q-3 5 2 8q50 33 132 33q72 0 100.5 -32t28.5 -102v-269q0 -7 -7 -7h-4q-7 0 -7 7v45q-71 -62 -155 -62q-60 0 -99.5 36.5
t-39.5 98.5zM65 125q0 -54 34 -85.5t87 -31.5q49 0 92.5 22.5t62.5 46.5v144q-80 23 -118 23q-71 0 -114.5 -33.5t-43.5 -85.5zM223 545q-49 0 -84.5 30.5t-42.5 76.5q-1 3 1.5 5.5t4.5 2.5h5q5 0 5 -6q6 -41 37 -67t74 -26q42 0 73 26t38 67q0 6 5 6h5q2 0 4.5 -2.5
t1.5 -5.5q-8 -46 -43 -76.5t-84 -30.5z" />
    <glyph glyph-name="Aogonek" unicode="&#x104;" horiz-adv-x="639" 
d="M8 7l308 710q2 4 5 4h2q3 0 5 -4l300 -705q4 -9 -2 -13q-4 -2 -10 -5.5t-22 -16t-28 -26t-22 -35t-10 -43.5q0 -39 26 -57.5t65 -18.5q40 0 68 14q6 3 8 -2l3 -6q3 -5 -3 -8q-35 -16 -76 -16q-47 0 -78 23t-31 71q0 34 19.5 65.5t38 46.5t35.5 24l-85 201h-409l-90 -209
q-2 -4 -5 -3l-9 3q-5 1 -3 6zM123 227h393l-194 458z" />
    <glyph glyph-name="aogonek" unicode="&#x105;" horiz-adv-x="436" 
d="M47 125q0 60 48.5 98.5t127.5 38.5q55 0 118 -23v37q0 61 -24.5 88.5t-86.5 27.5q-34 0 -64.5 -7.5t-43.5 -14.5l-14 -8q-5 -3 -9 2l-3 5q-3 5 2 8q50 33 132 33q72 0 100.5 -32t28.5 -102v-269q0 -5 -5 -8q-4 -2 -10 -5.5t-22 -16t-28 -26t-22 -35t-10 -43.5
q0 -39 26 -57.5t65 -18.5q40 0 68 14q6 3 8 -2l3 -6q3 -5 -3 -8q-35 -16 -76 -16q-47 0 -78 23t-31 71q0 36 22 69t39.5 46t35.5 23v41q-71 -62 -155 -62q-60 0 -99.5 36.5t-39.5 98.5zM65 125q0 -54 34 -85.5t87 -31.5q49 0 92.5 22.5t62.5 46.5v144q-80 23 -118 23
q-71 0 -114.5 -33.5t-43.5 -85.5z" />
    <glyph glyph-name="Cacute" unicode="&#x106;" horiz-adv-x="730" 
d="M61 349q0 151 106 256t257 105q132 0 243 -93q4 -4 1 -8l-5 -6q-4 -4 -8 0q-103 89 -231 89q-143 0 -244 -100t-101 -243t100.5 -242t244.5 -99q129 0 231 93q5 5 8 0l5 -6q4 -3 0 -7q-102 -98 -244 -98q-151 0 -257 104.5t-106 254.5zM346 778q-6 -2 -9 3l-2 5q-2 4 3 7
l182 91q6 2 9 -3l2 -4q3 -6 -3 -9z" />
    <glyph glyph-name="cacute" unicode="&#x107;" horiz-adv-x="476" 
d="M50 202q0 89 62.5 148.5t151.5 59.5q42 0 80.5 -14t55.5 -28l17 -13q4 -4 0 -8l-4 -4q-5 -5 -10 1q-6 5 -17 13t-47 21.5t-75 13.5q-82 0 -139.5 -54t-57.5 -136q0 -83 58.5 -138.5t138.5 -55.5q40 0 76.5 16t53.5 32l17 15q5 5 8 1l5 -5q4 -3 1 -6l-7.5 -7.5t-20.5 -17
t-33.5 -22t-44.5 -17t-55 -7.5q-87 0 -150.5 60.5t-63.5 151.5zM169 560q-6 -2 -9 3l-2 5q-2 4 3 7l182 91q6 2 9 -3l2 -4q3 -6 -3 -9z" />
    <glyph glyph-name="Ccircumflex" unicode="&#x108;" horiz-adv-x="730" 
d="M61 349q0 151 106 256t257 105q132 0 243 -93q4 -4 1 -8l-5 -6q-4 -4 -8 0q-103 89 -231 89q-143 0 -244 -100t-101 -243t100.5 -242t244.5 -99q129 0 231 93q5 5 8 0l5 -6q4 -3 0 -7q-102 -98 -244 -98q-151 0 -257 104.5t-106 254.5zM301 763q-3 -3 -7 1l-4 5q-2 4 2 8
l129 106q4 4 8 0l129 -106q4 -4 2 -8l-4 -5q-4 -4 -7 -1l-124 101z" />
    <glyph glyph-name="ccircumflex" unicode="&#x109;" horiz-adv-x="476" 
d="M50 202q0 89 62.5 148.5t151.5 59.5q42 0 80.5 -14t55.5 -28l17 -13q4 -4 0 -8l-4 -4q-5 -5 -10 1q-6 5 -17 13t-47 21.5t-75 13.5q-82 0 -139.5 -54t-57.5 -136q0 -83 58.5 -138.5t138.5 -55.5q40 0 76.5 16t53.5 32l17 15q5 5 8 1l5 -5q4 -3 1 -6l-7.5 -7.5t-20.5 -17
t-33.5 -22t-44.5 -17t-55 -7.5q-87 0 -150.5 60.5t-63.5 151.5zM132 548q-3 -3 -7 1l-4 5q-2 4 2 8l129 106q4 4 8 0l129 -106q4 -4 2 -8l-4 -5q-4 -4 -7 -1l-124 101z" />
    <glyph glyph-name="Cdotaccent" unicode="&#x10a;" horiz-adv-x="730" 
d="M61 349q0 151 106 256t257 105q132 0 243 -93q4 -4 1 -8l-5 -6q-4 -4 -8 0q-103 89 -231 89q-143 0 -244 -100t-101 -243t100.5 -242t244.5 -99q129 0 231 93q5 5 8 0l5 -6q4 -3 0 -7q-102 -98 -244 -98q-151 0 -257 104.5t-106 254.5zM425 825q-8 0 -13.5 5.5t-5.5 12.5
q0 8 5.5 13.5t13.5 5.5q19 0 19 -19q0 -8 -5.5 -13t-13.5 -5z" />
    <glyph glyph-name="cdotaccent" unicode="&#x10b;" horiz-adv-x="476" 
d="M50 202q0 89 62.5 148.5t151.5 59.5q42 0 80.5 -14t55.5 -28l17 -13q4 -4 0 -8l-4 -4q-5 -5 -10 1q-6 5 -17 13t-47 21.5t-75 13.5q-82 0 -139.5 -54t-57.5 -136q0 -83 58.5 -138.5t138.5 -55.5q40 0 76.5 16t53.5 32l17 15q5 5 8 1l5 -5q4 -3 1 -6l-7.5 -7.5t-20.5 -17
t-33.5 -22t-44.5 -17t-55 -7.5q-87 0 -150.5 60.5t-63.5 151.5zM256 599q-8 0 -13.5 5.5t-5.5 13.5q0 7 5.5 12.5t13.5 5.5t13.5 -5t5.5 -13t-5.5 -13.5t-13.5 -5.5z" />
    <glyph glyph-name="Ccaron" unicode="&#x10c;" horiz-adv-x="730" 
d="M61 349q0 151 106 256t257 105q132 0 243 -93q4 -4 1 -8l-5 -6q-4 -4 -8 0q-103 89 -231 89q-143 0 -244 -100t-101 -243t100.5 -242t244.5 -99q129 0 231 93q5 5 8 0l5 -6q4 -3 0 -7q-102 -98 -244 -98q-151 0 -257 104.5t-106 254.5zM421 771l-129 106q-4 4 -2 8l4 5
q4 4 7 1l124 -101l124 101q3 3 7 -1l4 -5q2 -4 -2 -8l-129 -106q-4 -4 -8 0z" />
    <glyph glyph-name="ccaron" unicode="&#x10d;" horiz-adv-x="476" 
d="M50 202q0 89 62.5 148.5t151.5 59.5q42 0 80.5 -14t55.5 -28l17 -13q4 -4 0 -8l-4 -4q-5 -5 -10 1q-6 5 -17 13t-47 21.5t-75 13.5q-82 0 -139.5 -54t-57.5 -136q0 -83 58.5 -138.5t138.5 -55.5q40 0 76.5 16t53.5 32l17 15q5 5 8 1l5 -5q4 -3 1 -6l-7.5 -7.5t-20.5 -17
t-33.5 -22t-44.5 -17t-55 -7.5q-87 0 -150.5 60.5t-63.5 151.5zM252 553l-129 106q-4 4 -2 8l4 5q4 4 7 1l124 -101l124 101q3 3 7 -1l4 -5q2 -4 -2 -8l-129 -106q-4 -4 -8 0z" />
    <glyph glyph-name="Dcaron" unicode="&#x10e;" horiz-adv-x="733" 
d="M112 7v686q0 7 6 7h200q146 0 249.5 -102t103.5 -247q0 -146 -103.5 -248.5t-249.5 -102.5h-200q-6 0 -6 7zM129 18h189q139 0 237.5 97.5t98.5 235.5q0 137 -98.5 234t-237.5 97h-189v-664zM303 771l-129 106q-4 4 -2 8l4 5q4 4 7 1l124 -101l124 101q3 3 7 -1l4 -5
q2 -4 -2 -8l-129 -106q-4 -4 -8 0z" />
    <glyph glyph-name="dcaron" unicode="&#x10f;" horiz-adv-x="521" 
d="M52 201q0 90 57 149.5t144 59.5q38 0 73 -13t51 -27l16 -13v336q0 7 7 7h4q6 0 6 -7v-686q0 -7 -6 -7h-4q-7 0 -7 7v48q-58 -65 -154 -65q-79 0 -133 61t-54 150zM69 201q0 -81 49.5 -137t120.5 -56q28 0 54 7.5t42.5 17t30.5 21.5t19.5 18.5t7.5 10.5v248q-6 7 -16.5 17
t-47 27t-76.5 17q-80 0 -132 -54t-52 -137zM522 520l-3 6q-3 6 3 9t14.5 8.5t23 27t14.5 47.5q0 35 -13 57q-10 -10 -20 -10t-16.5 7t-6.5 16t6.5 15.5t16.5 6.5q19 0 35.5 -23t16.5 -69q0 -31 -15.5 -55.5t-31.5 -34.5l-15 -9q-7 -3 -9 1z" />
    <glyph glyph-name="Dcroat" unicode="&#x110;" horiz-adv-x="755" 
d="M114 7v333h-40q-7 0 -7 7v4q0 7 7 7h40v335q0 7 7 7h220q146 0 249.5 -102t103.5 -247q0 -146 -103.5 -248.5t-249.5 -102.5h-220q-7 0 -7 7zM132 18h209q138 0 236.5 97.5t98.5 235.5q0 137 -98.5 234t-236.5 97h-209v-324h289q7 0 7 -7v-4q0 -7 -7 -7h-289v-322z" />
    <glyph glyph-name="dcroat" unicode="&#x111;" 
d="M52 201q0 91 55.5 150t142.5 59q38 0 74 -13t52 -27l17 -13v191h-228q-7 0 -7 7v4q0 7 7 7h228v127q0 7 7 7h4q6 0 6 -7v-127h44q7 0 7 -7v-4q0 -7 -7 -7h-44v-541q0 -7 -6 -7h-4q-7 0 -7 7v52q-61 -69 -150 -69q-79 0 -135 61.5t-56 149.5zM69 201q0 -81 51 -137
t123 -56q28 0 54 8t41.5 18t29 22.5t18 19t7.5 11.5v244q-6 7 -17.5 17t-48.5 27t-77 17q-80 0 -130.5 -54t-50.5 -137z" />
    <glyph glyph-name="Emacron" unicode="&#x112;" horiz-adv-x="610" 
d="M112 7v686q0 7 7 7h407q7 0 7 -7v-4q0 -7 -7 -7h-396v-309h348q7 0 7 -7v-4q0 -7 -7 -7h-348v-337h396q7 0 7 -7v-4q0 -7 -7 -7h-407q-7 0 -7 7zM179 842q-7 0 -7 7v4q0 7 7 7h288q7 0 7 -7v-4q0 -7 -7 -7h-288z" />
    <glyph glyph-name="emacron" unicode="&#x113;" horiz-adv-x="477" 
d="M71 193q2 -80 50 -132.5t128 -52.5q83 0 136 43q5 4 8 -1l4 -6q2 -3 -2 -7q-62 -47 -146 -47q-89 0 -143 60.5t-54 151.5q0 89 54 148.5t143 59.5q80 0 131 -51t51 -132q0 -23 -4 -30q-2 -4 -6 -4h-350zM71 210h341q1 6 1 17q0 73 -46.5 119t-117.5 46q-79 0 -127 -51.5
t-51 -130.5zM102 607q-7 0 -7 7v4q0 7 7 7h288q7 0 7 -7v-4q0 -7 -7 -7h-288z" />
    <glyph glyph-name="Ebreve" unicode="&#x114;" horiz-adv-x="610" 
d="M112 7v686q0 7 7 7h407q7 0 7 -7v-4q0 -7 -7 -7h-396v-309h348q7 0 7 -7v-4q0 -7 -7 -7h-348v-337h396q7 0 7 -7v-4q0 -7 -7 -7h-407q-7 0 -7 7zM323 780q-50 0 -85 31t-42 77q-1 2 1.5 4.5t4.5 2.5h5q5 0 5 -6q6 -40 37 -66t74 -26q42 0 73 26t38 66q0 6 5 6h5
q2 0 4.5 -2.5t1.5 -4.5q-8 -47 -43 -77.5t-84 -30.5z" />
    <glyph glyph-name="ebreve" unicode="&#x115;" horiz-adv-x="477" 
d="M71 193q2 -80 50 -132.5t128 -52.5q83 0 136 43q5 4 8 -1l4 -6q2 -3 -2 -7q-62 -47 -146 -47q-89 0 -143 60.5t-54 151.5q0 89 54 148.5t143 59.5q80 0 131 -51t51 -132q0 -23 -4 -30q-2 -4 -6 -4h-350zM71 210h341q1 6 1 17q0 73 -46.5 119t-117.5 46q-79 0 -127 -51.5
t-51 -130.5zM246 545q-49 0 -84.5 30.5t-42.5 76.5q-1 3 1.5 5.5t4.5 2.5h5q5 0 5 -6q6 -41 37 -67t74 -26q42 0 73 26t38 67q0 6 5 6h5q2 0 4.5 -2.5t1.5 -5.5q-8 -46 -43 -76.5t-84 -30.5z" />
    <glyph glyph-name="Edotaccent" unicode="&#x116;" horiz-adv-x="610" 
d="M112 7v686q0 7 7 7h407q7 0 7 -7v-4q0 -7 -7 -7h-396v-309h348q7 0 7 -7v-4q0 -7 -7 -7h-348v-337h396q7 0 7 -7v-4q0 -7 -7 -7h-407q-7 0 -7 7zM322 825q-8 0 -13.5 5.5t-5.5 12.5q0 8 5.5 13.5t13.5 5.5q19 0 19 -19q0 -8 -5.5 -13t-13.5 -5z" />
    <glyph glyph-name="edotaccent" unicode="&#x117;" horiz-adv-x="477" 
d="M71 193q2 -80 50 -132.5t128 -52.5q83 0 136 43q5 4 8 -1l4 -6q2 -3 -2 -7q-62 -47 -146 -47q-89 0 -143 60.5t-54 151.5q0 89 54 148.5t143 59.5q80 0 131 -51t51 -132q0 -23 -4 -30q-2 -4 -6 -4h-350zM71 210h341q1 6 1 17q0 73 -46.5 119t-117.5 46q-79 0 -127 -51.5
t-51 -130.5zM245 599q-7 0 -13 5.5t-6 13.5q0 7 5.5 12.5t13.5 5.5t13.5 -5t5.5 -13t-5.5 -13.5t-13.5 -5.5z" />
    <glyph glyph-name="Eogonek" unicode="&#x118;" horiz-adv-x="610" 
d="M112 7v686q0 7 7 7h407q7 0 7 -7v-4q0 -7 -7 -7h-396v-309h348q7 0 7 -7v-4q0 -7 -7 -7h-348v-337h396q7 0 7 -7v-4q0 -5 -4 -7t-10 -5.5t-22.5 -16t-29 -26t-22.5 -35t-10 -44.5q0 -39 26 -57.5t65 -18.5q40 0 68 14q6 3 8 -2l3 -6q3 -5 -3 -8q-35 -16 -76 -16
q-47 0 -78 23t-31 71q0 72 78 127h-376q-7 0 -7 7z" />
    <glyph glyph-name="eogonek" unicode="&#x119;" horiz-adv-x="479" 
d="M72 193q2 -80 50 -132.5t128 -52.5q83 0 136 43q5 4 8 -1l4 -6q2 -3 -2 -7q-49 -38 -122 -46q-7 -3 -18 -11.5t-29 -24.5t-30 -40.5t-12 -51.5q0 -39 26 -57.5t65 -18.5q40 0 68 14q6 3 8 -2l3 -6q3 -5 -3 -8q-35 -16 -76 -16q-47 0 -78 23t-31 71q0 72 78 127
q-87 2 -139.5 62t-52.5 150q0 89 54 148.5t143 59.5q80 0 131 -51t51 -132q0 -23 -4 -30q-2 -4 -6 -4h-350zM72 210h341q1 6 1 17q0 73 -46.5 119t-117.5 46q-79 0 -127 -51.5t-51 -130.5z" />
    <glyph glyph-name="Ecaron" unicode="&#x11a;" horiz-adv-x="610" 
d="M112 7v686q0 7 7 7h407q7 0 7 -7v-4q0 -7 -7 -7h-396v-309h348q7 0 7 -7v-4q0 -7 -7 -7h-348v-337h396q7 0 7 -7v-4q0 -7 -7 -7h-407q-7 0 -7 7zM318 771l-129 106q-4 4 -2 8l4 5q4 4 7 1l124 -101l124 101q3 3 7 -1l4 -5q2 -4 -2 -8l-129 -106q-4 -4 -8 0z" />
    <glyph glyph-name="ecaron" unicode="&#x11b;" horiz-adv-x="477" 
d="M71 193q2 -80 50 -132.5t128 -52.5q83 0 136 43q5 4 8 -1l4 -6q2 -3 -2 -7q-62 -47 -146 -47q-89 0 -143 60.5t-54 151.5q0 89 54 148.5t143 59.5q80 0 131 -51t51 -132q0 -23 -4 -30q-2 -4 -6 -4h-350zM71 210h341q1 6 1 17q0 73 -46.5 119t-117.5 46q-79 0 -127 -51.5
t-51 -130.5zM241 553l-129 106q-4 4 -2 8l4 5q4 4 7 1l124 -101l124 101q3 3 7 -1l4 -5q2 -4 -2 -8l-129 -106q-4 -4 -8 0z" />
    <glyph glyph-name="Gcircumflex" unicode="&#x11c;" horiz-adv-x="755" 
d="M61 349q0 151 106 256t257 105q132 0 243 -93q4 -4 1 -8l-5 -6q-4 -4 -8 0q-103 89 -231 89q-143 0 -244 -100t-101 -243t100.5 -242t244.5 -99q61 0 115.5 14.5t79.5 28.5t40 26v235h-227q-7 0 -7 7v4q0 6 7 6h238q7 0 7 -6v-253q-6 -9 -32 -26t-88 -35.5t-133 -18.5
q-151 0 -257 104.5t-106 254.5zM300 763q-3 -3 -7 1l-4 5q-2 4 2 8l129 106q4 4 8 0l129 -106q4 -4 2 -8l-4 -5q-4 -4 -7 -1l-124 101z" />
    <glyph glyph-name="gcircumflex" unicode="&#x11d;" horiz-adv-x="464" 
d="M40 50q0 66 64 98q-30 40 -30 101q0 68 45.5 114.5t120.5 46.5h31h1h143q7 0 7 -7v-4q0 -7 -7 -7h-91q80 -42 80 -143q0 -67 -45.5 -114.5t-118.5 -47.5q-80 0 -124 47q-58 -27 -58 -84q0 -31 20 -49.5t46 -18.5h184q146 0 146 -128q0 -67 -56.5 -115.5t-145.5 -48.5
q-95 0 -146.5 49.5t-51.5 108.5q0 74 68 117q-32 1 -57 24.5t-25 60.5zM240 105q65 0 105.5 42t40.5 102q0 38 -12 66.5t-29 42.5t-34 22.5t-29 9.5l-12 2h-30q-67 0 -107.5 -41.5t-40.5 -101.5q0 -62 36.5 -103t111.5 -41zM72 -152q0 -53 46.5 -96.5t133.5 -43.5
q83 0 133.5 43t50.5 103q0 111 -128 111h-142q-24 -3 -59 -34.5t-35 -82.5zM131 548q-3 -3 -7 1l-4 5q-2 4 2 8l129 106q4 4 8 0l129 -106q4 -4 2 -8l-4 -5q-4 -4 -7 -1l-124 101z" />
    <glyph glyph-name="Gbreve" unicode="&#x11e;" horiz-adv-x="755" 
d="M61 349q0 151 106 256t257 105q132 0 243 -93q4 -4 1 -8l-5 -6q-4 -4 -8 0q-103 89 -231 89q-143 0 -244 -100t-101 -243t100.5 -242t244.5 -99q61 0 115.5 14.5t79.5 28.5t40 26v235h-227q-7 0 -7 7v4q0 6 7 6h238q7 0 7 -6v-253q-6 -9 -32 -26t-88 -35.5t-133 -18.5
q-151 0 -257 104.5t-106 254.5zM425 780q-50 0 -85 31t-42 77q-1 2 1.5 4.5t4.5 2.5h5q5 0 5 -6q6 -40 37 -66t74 -26q42 0 73 26t38 66q0 6 5 6h5q2 0 4.5 -2.5t1.5 -4.5q-8 -47 -43 -77.5t-84 -30.5z" />
    <glyph glyph-name="gbreve" unicode="&#x11f;" horiz-adv-x="464" 
d="M40 50q0 66 64 98q-30 40 -30 101q0 68 45.5 114.5t120.5 46.5h31h1h143q7 0 7 -7v-4q0 -7 -7 -7h-91q80 -42 80 -143q0 -67 -45.5 -114.5t-118.5 -47.5q-80 0 -124 47q-58 -27 -58 -84q0 -31 20 -49.5t46 -18.5h184q146 0 146 -128q0 -67 -56.5 -115.5t-145.5 -48.5
q-95 0 -146.5 49.5t-51.5 108.5q0 74 68 117q-32 1 -57 24.5t-25 60.5zM240 105q65 0 105.5 42t40.5 102q0 38 -12 66.5t-29 42.5t-34 22.5t-29 9.5l-12 2h-30q-67 0 -107.5 -41.5t-40.5 -101.5q0 -62 36.5 -103t111.5 -41zM72 -152q0 -53 46.5 -96.5t133.5 -43.5
q83 0 133.5 43t50.5 103q0 111 -128 111h-142q-24 -3 -59 -34.5t-35 -82.5zM256 545q-49 0 -84.5 30.5t-42.5 76.5q-1 3 1.5 5.5t4.5 2.5h5q5 0 5 -6q6 -41 37 -67t74 -26q42 0 73 26t38 67q0 6 5 6h5q2 0 4.5 -2.5t1.5 -5.5q-8 -46 -43 -76.5t-84 -30.5z" />
    <glyph glyph-name="Gdotaccent" unicode="&#x120;" horiz-adv-x="755" 
d="M61 349q0 151 106 256t257 105q132 0 243 -93q4 -4 1 -8l-5 -6q-4 -4 -8 0q-103 89 -231 89q-143 0 -244 -100t-101 -243t100.5 -242t244.5 -99q61 0 115.5 14.5t79.5 28.5t40 26v235h-227q-7 0 -7 7v4q0 6 7 6h238q7 0 7 -6v-253q-6 -9 -32 -26t-88 -35.5t-133 -18.5
q-151 0 -257 104.5t-106 254.5zM424 825q-8 0 -13.5 5.5t-5.5 12.5q0 8 5.5 13.5t13.5 5.5q19 0 19 -19q0 -8 -5.5 -13t-13.5 -5z" />
    <glyph glyph-name="gdotaccent" unicode="&#x121;" horiz-adv-x="464" 
d="M40 50q0 66 64 98q-30 40 -30 101q0 68 45.5 114.5t120.5 46.5h31h1h143q7 0 7 -7v-4q0 -7 -7 -7h-91q80 -42 80 -143q0 -67 -45.5 -114.5t-118.5 -47.5q-80 0 -124 47q-58 -27 -58 -84q0 -31 20 -49.5t46 -18.5h184q146 0 146 -128q0 -67 -56.5 -115.5t-145.5 -48.5
q-95 0 -146.5 49.5t-51.5 108.5q0 74 68 117q-32 1 -57 24.5t-25 60.5zM240 105q65 0 105.5 42t40.5 102q0 38 -12 66.5t-29 42.5t-34 22.5t-29 9.5l-12 2h-30q-67 0 -107.5 -41.5t-40.5 -101.5q0 -62 36.5 -103t111.5 -41zM72 -152q0 -53 46.5 -96.5t133.5 -43.5
q83 0 133.5 43t50.5 103q0 111 -128 111h-142q-24 -3 -59 -34.5t-35 -82.5zM255 599q-7 0 -13 5.5t-6 13.5q0 7 5.5 12.5t13.5 5.5t13.5 -5t5.5 -13t-5.5 -13.5t-13.5 -5.5z" />
    <glyph glyph-name="Gcommaaccent" unicode="&#x122;" horiz-adv-x="755" 
d="M61 349q0 151 106 256t257 105q132 0 243 -93q4 -4 1 -8l-5 -6q-4 -4 -8 0q-103 89 -231 89q-143 0 -244 -100t-101 -243t100.5 -242t244.5 -99q61 0 115.5 14.5t79.5 28.5t40 26v235h-227q-7 0 -7 7v4q0 6 7 6h238q7 0 7 -6v-253q-6 -9 -32 -26t-88 -35.5t-133 -18.5
q-151 0 -257 104.5t-106 254.5zM396 -133q0 9 6.5 15.5t16.5 6.5q19 0 35.5 -23t16.5 -69q0 -31 -15.5 -55.5t-31.5 -33.5l-15 -10q-7 -3 -9 1l-3 6q-3 7 3 9q6 3 14.5 8.5t23 27t14.5 47.5q0 35 -13 57q-10 -10 -20 -10t-16.5 7t-6.5 16z" />
    <glyph glyph-name="gcommaaccent" unicode="&#x123;" horiz-adv-x="464" 
d="M263 545q-19 0 -35.5 23t-16.5 69q0 31 15.5 55.5t31.5 33.5l15 10q7 3 9 -1l3 -6q3 -7 -3 -9q-6 -3 -14.5 -8.5t-23 -27t-14.5 -47.5q0 -35 13 -57q10 10 20 10t16.5 -7t6.5 -16t-6.5 -15.5t-16.5 -6.5zM40 50q0 66 64 98q-30 40 -30 101q0 68 45.5 114.5t120.5 46.5h31
h1h143q7 0 7 -7v-4q0 -7 -7 -7h-91q80 -42 80 -143q0 -67 -45.5 -114.5t-118.5 -47.5q-80 0 -124 47q-58 -27 -58 -84q0 -31 20 -49.5t46 -18.5h184q146 0 146 -128q0 -67 -56.5 -115.5t-145.5 -48.5q-95 0 -146.5 49.5t-51.5 108.5q0 74 68 117q-32 1 -57 24.5t-25 60.5z
M240 105q65 0 105.5 42t40.5 102q0 38 -12 66.5t-29 42.5t-34 22.5t-29 9.5l-12 2h-30q-67 0 -107.5 -41.5t-40.5 -101.5q0 -62 36.5 -103t111.5 -41zM72 -152q0 -53 46.5 -96.5t133.5 -43.5q83 0 133.5 43t50.5 103q0 111 -128 111h-142q-24 -3 -59 -34.5t-35 -82.5z" />
    <glyph glyph-name="Hcircumflex" unicode="&#x124;" horiz-adv-x="752" 
d="M112 7v686q0 7 7 7h4q7 0 7 -7v-320h492v320q0 7 7 7h4q7 0 7 -7v-686q0 -7 -7 -7h-4q-7 0 -7 7v348h-492v-348q0 -7 -7 -7h-4q-7 0 -7 7zM251 763q-3 -3 -7 1l-4 5q-2 4 2 8l129 106q4 4 8 0l129 -106q4 -4 2 -8l-4 -5q-4 -4 -7 -1l-124 101z" />
    <glyph glyph-name="hcircumflex" unicode="&#x125;" horiz-adv-x="496" 
d="M81 7v686q0 7 7 7h4q7 0 7 -7v-358q69 75 156 75q81 0 123.5 -47.5t42.5 -138.5v-217q0 -7 -7 -7h-4q-7 0 -7 7v217q0 82 -38 125t-110 43q-31 0 -60 -11t-49.5 -28t-30.5 -27.5t-16 -18.5v-300q0 -7 -7 -7h-4q-7 0 -7 7zM-34 765q-3 -3 -7 1l-4 5q-2 4 2 8l129 106
q4 4 8 0l129 -106q4 -4 2 -8l-4 -5q-4 -4 -7 -1l-124 101z" />
    <glyph glyph-name="Hbar" unicode="&#x126;" horiz-adv-x="752" 
d="M112 7v541h-29q-7 0 -7 7v4q0 7 7 7h29v127q0 7 7 7h4q7 0 7 -7v-127h492v127q0 7 7 7h4q7 0 7 -7v-127h32q7 0 7 -7v-4q0 -7 -7 -7h-32v-541q0 -7 -7 -7h-4q-7 0 -7 7v348h-492v-348q0 -7 -7 -7h-4q-7 0 -7 7zM130 373h492v175h-492v-175z" />
    <glyph glyph-name="hbar" unicode="&#x127;" horiz-adv-x="505" 
d="M81 7v541h-44q-7 0 -7 7v4q0 7 7 7h44v127q0 7 7 7h4q7 0 7 -7v-127h227q7 0 7 -7v-4q0 -7 -7 -7h-227v-213q67 75 156 75q81 0 128 -48.5t47 -137.5v-217q0 -7 -7 -7h-4q-7 0 -7 7v217q0 81 -41.5 124.5t-115.5 43.5q-40 0 -78.5 -20.5t-54.5 -37t-23 -27.5v-300
q0 -7 -7 -7h-4q-7 0 -7 7z" />
    <glyph glyph-name="Itilde" unicode="&#x128;" horiz-adv-x="242" 
d="M112 7v686q0 7 7 7h4q7 0 7 -7v-686q0 -7 -7 -7h-4q-7 0 -7 7zM-16 802l-8 2q-6 2 -3 9q27 84 86 84q16 0 28 -5.5t20 -17t11.5 -18t9.5 -20.5q19 -46 53 -46q47 0 68 72q2 7 7 5l8 -2q6 -1 3 -9q-28 -84 -86 -84q-46 0 -71 60q-6 14 -9.5 21t-15 17t-26.5 10
q-47 0 -68 -73q-2 -7 -7 -5z" />
    <glyph glyph-name="itilde" unicode="&#x129;" horiz-adv-x="180" 
d="M81 7v386q0 7 7 7h4q7 0 7 -7v-386q0 -7 -7 -7h-4q-7 0 -7 7zM-46 583l-8 2q-6 1 -3 9q27 84 86 84q16 0 28 -5.5t20 -17t11.5 -18t9.5 -20.5q19 -46 53 -46q47 0 68 72q2 7 7 5l8 -2q6 -2 3 -9q-28 -84 -86 -84q-46 0 -71 60q-6 14 -9.5 21t-15 17t-26.5 10
q-47 0 -68 -73q-2 -7 -7 -5z" />
    <glyph glyph-name="Imacron" unicode="&#x12a;" horiz-adv-x="242" 
d="M112 7v686q0 7 7 7h4q7 0 7 -7v-686q0 -7 -7 -7h-4q-7 0 -7 7zM-24 842q-7 0 -7 7v4q0 7 7 7h288q7 0 7 -7v-4q0 -7 -7 -7h-288z" />
    <glyph glyph-name="imacron" unicode="&#x12b;" horiz-adv-x="180" 
d="M81 7v386q0 7 7 7h4q7 0 7 -7v-386q0 -7 -7 -7h-4q-7 0 -7 7zM-54 607q-7 0 -7 7v4q0 7 7 7h288q7 0 7 -7v-4q0 -7 -7 -7h-288z" />
    <glyph glyph-name="Ibreve" unicode="&#x12c;" horiz-adv-x="242" 
d="M112 7v686q0 7 7 7h4q7 0 7 -7v-686q0 -7 -7 -7h-4q-7 0 -7 7zM120 780q-50 0 -85 31t-42 77q-1 2 1.5 4.5t4.5 2.5h5q5 0 5 -6q6 -40 37 -66t74 -26q42 0 73 26t38 66q0 6 5 6h5q2 0 4.5 -2.5t1.5 -4.5q-8 -47 -43 -77.5t-84 -30.5z" />
    <glyph glyph-name="ibreve" unicode="&#x12d;" horiz-adv-x="180" 
d="M81 7v386q0 7 7 7h4q7 0 7 -7v-386q0 -7 -7 -7h-4q-7 0 -7 7zM90 545q-49 0 -84.5 30.5t-42.5 76.5q-1 3 1.5 5.5t4.5 2.5h5q5 0 5 -6q6 -41 37 -67t74 -26q42 0 73 26t38 67q0 6 5 6h5q2 0 4.5 -2.5t1.5 -5.5q-8 -46 -43 -76.5t-84 -30.5z" />
    <glyph glyph-name="Iogonek" unicode="&#x12e;" horiz-adv-x="243" 
d="M113 11v682q0 7 7 7h4q7 0 7 -7v-682q0 -10 -4 -12t-10 -5.5t-22 -16t-28 -26t-22 -35t-10 -43.5q0 -39 26 -57.5t65 -18.5q40 0 68 14q6 3 8 -2l3 -6q3 -5 -3 -8q-35 -16 -76 -16q-47 0 -78 23t-31 71q0 27 11.5 52t29.5 42.5t30.5 27t24.5 16.5z" />
    <glyph glyph-name="iogonek" unicode="&#x12f;" horiz-adv-x="180" 
d="M-13 -127q0 35 20 66.5t38.5 46.5t35.5 24v383q0 7 7 7h4q7 0 7 -7v-388q0 -4 -4 -6t-10 -5.5t-21.5 -16t-27.5 -26t-21.5 -35t-9.5 -43.5q0 -39 26 -57.5t65 -18.5q40 0 68 14q6 3 8 -2l3 -6q3 -5 -3 -8q-35 -16 -76 -16q-47 0 -78 23t-31 71zM91 607q-9 0 -14.5 6
t-5.5 14q0 9 5.5 15t14.5 6q8 0 14 -6.5t6 -14.5t-6 -14t-14 -6z" />
    <glyph glyph-name="Idotaccent" unicode="&#x130;" horiz-adv-x="242" 
d="M112 7v686q0 7 7 7h4q7 0 7 -7v-686q0 -7 -7 -7h-4q-7 0 -7 7zM120 825q-8 0 -13.5 5.5t-5.5 12.5q0 8 5.5 13.5t13.5 5.5q19 0 19 -19q0 -8 -5.5 -13t-13.5 -5z" />
    <glyph glyph-name="dotlessi" unicode="&#x131;" horiz-adv-x="180" 
d="M81 7v386q0 7 7 7h4q7 0 7 -7v-386q0 -7 -7 -7h-4q-7 0 -7 7z" />
    <glyph glyph-name="IJ" unicode="&#x132;" horiz-adv-x="624" 
d="M112 7v686q0 7 7 7h4q7 0 7 -7v-686q0 -7 -7 -7h-4q-7 0 -7 7zM215 67q-4 5 1 9l4 3q5 3 8 -2q55 -69 142 -69q82 0 125.5 53.5t43.5 152.5v479q0 7 7 7h3q7 0 7 -7v-479q0 -106 -48.5 -165t-137.5 -59q-96 0 -155 77z" />
    <glyph glyph-name="ij" unicode="&#x133;" horiz-adv-x="417" 
d="M91 607q-9 0 -14.5 6t-5.5 14q0 9 5.5 15t14.5 6q8 0 14 -6.5t6 -14.5t-6 -14t-14 -6zM81 7v386q0 7 7 7h4q7 0 7 -7v-386q0 -7 -7 -7h-4q-7 0 -7 7zM327 607q-9 0 -15 6t-6 14t6 14.5t15 6.5q8 0 14 -6.5t6 -14.5t-6 -14t-14 -6zM318 -134v527q0 7 7 7h4q7 0 7 -7v-527
q0 -176 -140 -176q-70 0 -113 43q-5 5 0 10l3 3q4 4 9 0q40 -38 101 -38q122 0 122 158z" />
    <glyph glyph-name="Jcircumflex" unicode="&#x134;" horiz-adv-x="379" 
d="M-30 67q-4 5 1 9l4 3q5 3 8 -2q55 -69 142 -69q82 0 125.5 53.5t43.5 152.5v479q0 7 7 7h3q7 0 7 -7v-479q0 -106 -48.5 -165t-137.5 -59q-96 0 -155 77zM179 763q-3 -3 -7 1l-4 5q-2 4 2 8l129 106q4 4 8 0l129 -106q4 -4 2 -8l-4 -5q-4 -4 -7 -1l-124 101z" />
    <glyph glyph-name="jcircumflex" unicode="&#x135;" horiz-adv-x="180" 
d="M81 -134v527q0 7 7 7h4q7 0 7 -7v-527q0 -176 -140 -176q-70 0 -113 43q-5 5 0 10l3 3q5 4 9 0q40 -38 101 -38q122 0 122 158zM-35 548q-3 -3 -7 1l-4 5q-2 4 2 8l129 106q4 4 8 0l129 -106q4 -4 2 -8l-4 -5q-4 -4 -7 -1l-124 101z" />
    <glyph glyph-name="Kcommaaccent" unicode="&#x136;" horiz-adv-x="559" 
d="M112 7v686q0 7 7 7h4q7 0 7 -7v-333l372 339q5 5 10 0l3 -3q5 -5 0 -10l-369 -335l379 -340q7 -7 2 -11l-4 -4q-3 -4 -9 2l-384 344v-335q0 -7 -7 -7h-4q-7 0 -7 7zM306 -133q0 9 6.5 15.5t16.5 6.5q19 0 35.5 -23t16.5 -69q0 -31 -15.5 -55.5t-31.5 -33.5l-15 -10
q-7 -3 -9 1l-3 6q-3 7 3 9q6 3 14.5 8.5t23 27t14.5 47.5q0 35 -13 57q-10 -10 -20 -10t-16.5 7t-6.5 16z" />
    <glyph glyph-name="kcommaaccent" unicode="&#x137;" horiz-adv-x="413" 
d="M81 7v686q0 7 7 7h4q7 0 7 -7v-462l261 174q5 3 8 -1l4 -7q3 -5 -2 -8l-252 -167l268 -210q5 -5 1 -9l-5 -6q-3 -5 -7 -1l-276 218v-207q0 -7 -7 -7h-4q-7 0 -7 7zM181 -133q0 9 6.5 15.5t16.5 6.5q19 0 35.5 -23t16.5 -69q0 -31 -15.5 -55.5t-30.5 -33.5l-16 -10
q-7 -3 -9 1l-3 6q-3 7 3 9q6 3 14.5 8.5t23 27t14.5 47.5q0 35 -13 57q-10 -10 -20 -10t-16.5 7t-6.5 16z" />
    <glyph glyph-name="kgreenlandic" unicode="&#x138;" horiz-adv-x="413" 
d="M81 7v386q0 7 7 7h4q7 0 7 -7v-185l260 197q5 3 8 -1l5 -7q3 -5 -2 -8l-252 -190l268 -187q6 -4 1 -9l-5 -6q-3 -5 -7 -1l-276 195v-184q0 -7 -7 -7h-4q-7 0 -7 7z" />
    <glyph glyph-name="Lacute" unicode="&#x139;" horiz-adv-x="489" 
d="M112 7v686q0 7 7 7h4q6 0 6 -7v-675h349q7 0 7 -7v-4q0 -7 -7 -7h-359q-7 0 -7 7zM89 778q-6 -2 -9 3l-2 5q-2 4 3 7l182 91q6 2 9 -3l2 -4q3 -6 -3 -9z" />
    <glyph glyph-name="lacute" unicode="&#x13a;" horiz-adv-x="180" 
d="M81 7v686q0 7 7 7h4q7 0 7 -7v-686q0 -7 -7 -7h-4q-7 0 -7 7zM2 777q-6 -3 -9 3l-2 5q-2 4 3 7l182 91q6 2 9 -3l2 -4q3 -6 -3 -9z" />
    <glyph glyph-name="Lcommaaccent" unicode="&#x13b;" horiz-adv-x="492" 
d="M112 7v686q0 7 7 7h4q6 0 6 -7v-675h349q7 0 7 -7v-4q0 -7 -7 -7h-359q-7 0 -7 7zM263 -133q0 9 6.5 15.5t16.5 6.5q19 0 35.5 -23t16.5 -69q0 -31 -15.5 -55.5t-30.5 -33.5l-16 -10q-7 -3 -9 1l-3 6q-3 7 3 9q6 3 14.5 8.5t23 27t14.5 47.5q0 35 -13 57q-10 -10 -20 -10
t-16.5 7t-6.5 16z" />
    <glyph glyph-name="lcommaaccent" unicode="&#x13c;" horiz-adv-x="180" 
d="M81 7v686q0 7 7 7h4q7 0 7 -7v-686q0 -7 -7 -7h-4q-7 0 -7 7zM64 -133q0 9 6.5 15.5t16.5 6.5q19 0 35.5 -23t16.5 -69q0 -31 -15.5 -55.5t-31.5 -33.5l-15 -10q-7 -3 -9 1l-3 6q-3 7 3 9q6 3 14.5 8.5t23 27t14.5 47.5q0 35 -13 57q-10 -10 -20 -10t-16.5 7t-6.5 16z
" />
    <glyph glyph-name="Lcaron" unicode="&#x13d;" horiz-adv-x="489" 
d="M112 7v686q0 7 7 7h4q6 0 6 -7v-675h349q7 0 7 -7v-4q0 -7 -7 -7h-359q-7 0 -7 7zM359 688q0 9 6.5 15.5t16.5 6.5q19 0 35.5 -23t16.5 -69q0 -31 -15.5 -55.5t-30.5 -34.5l-16 -9q-7 -3 -9 1l-3 6q-3 6 3 9t14.5 8.5t23 27t14.5 47.5q0 35 -13 57q-10 -10 -20 -10
t-16.5 7t-6.5 16z" />
    <glyph glyph-name="lcaron" unicode="&#x13e;" horiz-adv-x="210" 
d="M81 7v686q0 7 7 7h4q7 0 7 -7v-686q0 -7 -7 -7h-4q-7 0 -7 7zM227 689q0 9 6.5 15.5t16.5 6.5q19 0 35.5 -23t16.5 -69q0 -31 -15.5 -55.5t-30.5 -33.5l-16 -10q-7 -3 -9 1l-3 6q-3 7 3 9q6 3 14.5 8.5t23 27t14.5 47.5q0 35 -13 57q-10 -10 -20 -10t-16.5 7t-6.5 16z
" />
    <glyph glyph-name="Ldot" unicode="&#x13f;" horiz-adv-x="530" 
d="M112 7v686q0 7 7 7h4q6 0 6 -7v-675h349q7 0 7 -7v-4q0 -7 -7 -7h-359q-7 0 -7 7zM433 282q-10 0 -17 7t-7 17t7 16.5t17 6.5t17 -6.5t7 -16.5t-7 -17t-17 -7z" />
    <glyph glyph-name="ldot" unicode="&#x140;" horiz-adv-x="325" 
d="M81 7v686q0 7 7 7h4q7 0 7 -7v-686q0 -7 -7 -7h-4q-7 0 -7 7zM263 281q-10 0 -17 7t-7 17t7 16.5t17 6.5t17 -6.5t7 -16.5t-7 -17t-17 -7z" />
    <glyph glyph-name="Lslash" unicode="&#x141;" horiz-adv-x="498" 
d="M120 7v322l-44 -20q-6 -3 -8 1l-4 8q-2 5 4 7l52 24v344q0 7 7 7h4q7 0 7 -7v-336l180 85q7 2 9 -3l3 -6q2 -4 -4 -7l-188 -89v-319h369q7 0 7 -7v-4q0 -7 -7 -7h-380q-7 0 -7 7z" />
    <glyph glyph-name="lslash" unicode="&#x142;" horiz-adv-x="226" 
d="M101 7v341l-85 -39q-5 -2 -7 2l-3 6q-3 5 3 8l92 43v325q0 7 7 7h4q6 0 6 -7v-318l141 67q4 3 7 -3l3 -6q2 -4 -3 -7l-148 -69v-350q0 -7 -6 -7h-4q-7 0 -7 7z" />
    <glyph glyph-name="Nacute" unicode="&#x143;" horiz-adv-x="772" 
d="M112 7v703q0 5 5 6.5t8 -2.5l517 -689v668q0 7 7 7h4q7 0 7 -7v-701q0 -5 -5 -6.5t-8 2.5l-517 689v-670q0 -7 -7 -7h-4q-7 0 -7 7zM329 778q-6 -2 -9 3l-2 5q-2 4 3 7l182 91q6 2 9 -3l2 -4q3 -6 -3 -9z" />
    <glyph glyph-name="nacute" unicode="&#x144;" horiz-adv-x="495" 
d="M81 7v386q0 7 7 7h4q7 0 7 -7v-55q67 72 156 72q81 0 123.5 -47.5t42.5 -138.5v-217q0 -7 -7 -7h-4q-7 0 -7 7v217q0 82 -38 125t-110 43q-40 0 -78 -20t-53.5 -35t-24.5 -27v-303q0 -7 -7 -7h-4q-7 0 -7 7zM165 561q-6 -3 -9 3l-2 5q-2 4 3 7l182 91q6 2 9 -3l2 -4
q3 -6 -3 -9z" />
    <glyph glyph-name="Ncommaaccent" unicode="&#x145;" horiz-adv-x="772" 
d="M112 7v703q0 5 5 6.5t8 -2.5l517 -689v668q0 7 7 7h4q7 0 7 -7v-701q0 -5 -5 -6.5t-8 2.5l-517 689v-670q0 -7 -7 -7h-4q-7 0 -7 7zM370 -133q0 9 6.5 15.5t16.5 6.5q19 0 35.5 -23t16.5 -69q0 -31 -15.5 -55.5t-31.5 -33.5l-15 -10q-7 -3 -9 1l-3 6q-3 7 3 9
q6 3 14.5 8.5t23 27t14.5 47.5q0 35 -13 57q-10 -10 -20 -10t-16.5 7t-6.5 16z" />
    <glyph glyph-name="ncommaaccent" unicode="&#x146;" horiz-adv-x="496" 
d="M81 7v386q0 7 7 7h4q7 0 7 -7v-55q67 72 156 72q81 0 123.5 -47.5t42.5 -138.5v-217q0 -7 -7 -7h-4q-7 0 -7 7v217q0 82 -38 125t-110 43q-40 0 -78 -20t-53.5 -35t-24.5 -27v-303q0 -7 -7 -7h-4q-7 0 -7 7zM226 -132q0 9 6.5 15.5t16.5 6.5q19 0 35.5 -23t16.5 -69
q0 -31 -15.5 -55.5t-31.5 -34.5l-15 -9q-7 -3 -9 1l-3 6q-3 6 3 9t14.5 8.5t23 27t14.5 47.5q0 35 -13 57q-10 -10 -20 -10t-16.5 7t-6.5 16z" />
    <glyph glyph-name="Ncaron" unicode="&#x147;" horiz-adv-x="772" 
d="M112 7v703q0 5 5 6.5t8 -2.5l517 -689v668q0 7 7 7h4q7 0 7 -7v-701q0 -5 -5 -6.5t-8 2.5l-517 689v-670q0 -7 -7 -7h-4q-7 0 -7 7zM404 771l-129 106q-4 4 -2 8l4 5q4 4 7 1l124 -101l124 101q3 3 7 -1l4 -5q2 -4 -2 -8l-129 -106q-4 -4 -8 0z" />
    <glyph glyph-name="ncaron" unicode="&#x148;" horiz-adv-x="495" 
d="M81 7v386q0 7 7 7h4q7 0 7 -7v-55q67 72 156 72q81 0 123.5 -47.5t42.5 -138.5v-217q0 -7 -7 -7h-4q-7 0 -7 7v217q0 82 -38 125t-110 43q-40 0 -78 -20t-53.5 -35t-24.5 -27v-303q0 -7 -7 -7h-4q-7 0 -7 7zM248 554l-129 106q-4 4 -2 8l4 5q4 4 7 1l124 -101l124 101
q3 3 7 -1l4 -5q2 -4 -2 -8l-129 -106q-4 -4 -8 0z" />
    <glyph glyph-name="napostrophe" unicode="&#x149;" horiz-adv-x="495" 
d="M82 7v386q0 7 7 7h4q7 0 7 -7v-55q67 72 156 72q81 0 123.5 -47.5t42.5 -138.5v-217q0 -7 -7 -7h-4q-7 0 -7 7v217q0 82 -38 125t-110 43q-40 0 -78 -20t-53.5 -35t-24.5 -27v-303q0 -7 -7 -7h-4q-7 0 -7 7zM-48 688q0 9 6.5 15.5t16.5 6.5q19 0 35.5 -23t16.5 -69
q0 -31 -15.5 -55.5t-31.5 -34.5l-15 -9q-7 -3 -9 1l-3 6q-3 6 3 9t14.5 8.5t23 27t14.5 47.5q0 35 -13 57q-10 -10 -20 -10t-16.5 7t-6.5 16z" />
    <glyph glyph-name="Eng" unicode="&#x14a;" horiz-adv-x="772" 
d="M112 7v703q0 5 5 6.5t8 -2.5l517 -689v668q0 7 7 7h4q7 0 7 -7v-826q0 -176 -140 -176q-70 0 -113 43q-5 5 0 10l3 3q4 5 9 0q40 -38 101 -38q122 0 122 158v128l-512 682v-670q0 -7 -7 -7h-4q-7 0 -7 7z" />
    <glyph glyph-name="eng" unicode="&#x14b;" horiz-adv-x="496" 
d="M81 7v386q0 7 7 7h4q7 0 7 -7v-55q67 72 156 72q81 0 123.5 -47.5t42.5 -138.5v-357q0 -176 -140 -176q-70 0 -113 43q-5 5 0 10l3 3q5 5 9 0q40 -38 101 -38q122 0 122 158v357q0 82 -38 125t-110 43q-40 0 -78 -20t-53.5 -35t-24.5 -27v-303q0 -7 -7 -7h-4q-7 0 -7 7z
" />
    <glyph glyph-name="Omacron" unicode="&#x14c;" horiz-adv-x="846" 
d="M62 349q0 151 105 256t256 105t256.5 -105t105.5 -256q0 -150 -105.5 -254.5t-256.5 -104.5t-256 104t-105 255zM80 349q0 -143 100 -242t243 -99q144 0 244 99t100 242t-100.5 243t-243.5 100t-243 -100t-100 -243zM279 842q-7 0 -7 7v4q0 7 7 7h288q7 0 7 -7v-4
q0 -7 -7 -7h-288z" />
    <glyph glyph-name="omacron" unicode="&#x14d;" horiz-adv-x="508" 
d="M51 201q0 87 59 148t144 61t144 -61t59 -148q0 -89 -59 -150t-144 -61t-144 61t-59 150zM69 201q0 -81 53.5 -137t131.5 -56t131.5 56t53.5 137q0 80 -53.5 135.5t-131.5 55.5t-131.5 -55.5t-53.5 -135.5zM110 607q-7 0 -7 7v4q0 7 7 7h288q7 0 7 -7v-4q0 -7 -7 -7h-288z
" />
    <glyph glyph-name="Obreve" unicode="&#x14e;" horiz-adv-x="846" 
d="M62 349q0 151 105 256t256 105t256.5 -105t105.5 -256q0 -150 -105.5 -254.5t-256.5 -104.5t-256 104t-105 255zM80 349q0 -143 100 -242t243 -99q144 0 244 99t100 242t-100.5 243t-243.5 100t-243 -100t-100 -243zM423 780q-50 0 -85 31t-42 77q-1 2 1.5 4.5t4.5 2.5h5
q5 0 5 -6q6 -40 37 -66t74 -26q42 0 73 26t38 66q0 6 5 6h5q2 0 4.5 -2.5t1.5 -4.5q-8 -47 -43 -77.5t-84 -30.5z" />
    <glyph glyph-name="obreve" unicode="&#x14f;" horiz-adv-x="508" 
d="M51 201q0 87 59 148t144 61t144 -61t59 -148q0 -89 -59 -150t-144 -61t-144 61t-59 150zM69 201q0 -81 53.5 -137t131.5 -56t131.5 56t53.5 137q0 80 -53.5 135.5t-131.5 55.5t-131.5 -55.5t-53.5 -135.5zM254 545q-49 0 -84.5 30.5t-42.5 76.5q-1 3 1.5 5.5t4.5 2.5h5
q5 0 5 -6q6 -41 37 -67t74 -26q42 0 73 26t38 67q0 6 5 6h5q2 0 4.5 -2.5t1.5 -5.5q-8 -46 -43 -76.5t-84 -30.5z" />
    <glyph glyph-name="Ohungarumlaut" unicode="&#x150;" horiz-adv-x="846" 
d="M62 349q0 151 105 256t256 105t256.5 -105t105.5 -256q0 -150 -105.5 -254.5t-256.5 -104.5t-256 104t-105 255zM80 349q0 -143 100 -242t243 -99q144 0 244 99t100 242t-100.5 243t-243.5 100t-243 -100t-100 -243zM507 757l-5 3q-5 4 -2 9l108 173q4 5 9 2l5 -3
q5 -4 2 -9l-108 -173q-4 -5 -9 -2zM341 757l-5 3q-5 4 -2 9l108 173q4 5 9 2l5 -3q5 -4 2 -9l-108 -173q-4 -5 -9 -2z" />
    <glyph glyph-name="ohungarumlaut" unicode="&#x151;" horiz-adv-x="508" 
d="M51 201q0 87 59 148t144 61t144 -61t59 -148q0 -89 -59 -150t-144 -61t-144 61t-59 150zM69 201q0 -81 53.5 -137t131.5 -56t131.5 56t53.5 137q0 80 -53.5 135.5t-131.5 55.5t-131.5 -55.5t-53.5 -135.5zM342 513l-5 3q-5 4 -2 9l108 173q4 5 9 2l5 -3q5 -4 2 -9
l-108 -173q-4 -5 -9 -2zM176 513l-5 3q-5 4 -2 9l108 173q4 5 9 2l5 -3q5 -4 2 -9l-108 -173q-4 -5 -9 -2z" />
    <glyph glyph-name="OE" unicode="&#x152;" horiz-adv-x="992" 
d="M62 349q0 151 104.5 256t255.5 105q38 0 83 -10h404q6 0 6 -7v-4q0 -7 -6 -7h-396v-309h348q6 0 6 -7v-4q0 -7 -6 -7h-348v-337h396q6 0 6 -7v-4q0 -7 -6 -7h-402q-45 -10 -86 -10q-151 0 -255 104t-104 255zM79 349q0 -143 99.5 -242t242.5 -99q41 0 74 8v668
q-40 8 -73 8q-143 0 -243 -100t-100 -243z" />
    <glyph glyph-name="oe" unicode="&#x153;" horiz-adv-x="797" 
d="M51 200q0 87 59 148.5t144 61.5q95 0 157 -81q56 81 158 81q79 0 130.5 -54t51.5 -135q0 -23 -4 -30q-2 -4 -6 -4h-320v-98q51 -81 148 -81q81 0 136 43q4 4 8 -2l3 -4q3 -4 -1 -8q-62 -47 -146 -47q-103 0 -158 80q-60 -80 -157 -80q-86 0 -144.5 61t-58.5 149zM421 205
h311q1 6 1 16q0 74 -46 122.5t-118 48.5q-96 0 -148 -83v-104zM69 200q0 -81 53.5 -136.5t131.5 -55.5q42 0 82.5 23t66.5 59v219q-26 36 -66.5 59.5t-82.5 23.5q-78 0 -131.5 -56t-53.5 -136z" />
    <glyph glyph-name="Racute" unicode="&#x154;" horiz-adv-x="648" 
d="M112 7v686q0 7 7 7h237q95 0 161.5 -61t66.5 -153q0 -82 -51.5 -141t-130.5 -74l156 -261q3 -5 -1 -8l-9 -5q-4 -1 -6 3l-159 268q-9 -1 -26 -1h-228v-260q0 -7 -6 -7h-4q-7 0 -7 7zM129 284h228q87 0 148.5 58t61.5 144q0 84 -61.5 140t-149.5 56h-227v-398zM221 778
q-6 -2 -9 3l-2 5q-2 4 3 7l182 91q6 2 9 -3l2 -4q3 -6 -3 -9z" />
    <glyph glyph-name="racute" unicode="&#x155;" horiz-adv-x="314" 
d="M81 7v386q0 7 7 7h4q7 0 7 -7v-53q50 70 130 70q22 0 40.5 -4.5t26.5 -9.5l7 -4q6 -4 2 -9l-3 -5q-3 -5 -9 -2q-23 16 -64 16q-28 0 -52.5 -10.5t-41 -27t-24 -26t-12.5 -18.5v-303q0 -7 -7 -7h-4q-7 0 -7 7zM76 560q-6 -2 -9 3l-2 5q-2 4 3 7l182 91q6 2 9 -3l2 -4
q3 -6 -3 -9z" />
    <glyph glyph-name="Rcommaaccent" unicode="&#x156;" horiz-adv-x="648" 
d="M112 7v686q0 7 7 7h237q95 0 161.5 -61t66.5 -153q0 -82 -51.5 -141t-130.5 -74l156 -261q3 -5 -1 -8l-9 -5q-4 -1 -6 3l-159 268q-9 -1 -26 -1h-228v-260q0 -7 -6 -7h-4q-7 0 -7 7zM129 284h228q87 0 148.5 58t61.5 144q0 84 -61.5 140t-149.5 56h-227v-398zM283 -133
q0 9 6.5 15.5t16.5 6.5q19 0 35.5 -23t16.5 -69q0 -31 -15.5 -55.5t-30.5 -33.5l-16 -10q-7 -3 -9 1l-3 6q-3 7 3 9q6 3 14.5 8.5t23 27t14.5 47.5q0 35 -13 57q-10 -10 -20 -10t-16.5 7t-6.5 16z" />
    <glyph glyph-name="rcommaaccent" unicode="&#x157;" horiz-adv-x="315" 
d="M81 7v386q0 7 7 7h4q7 0 7 -7v-53q50 70 130 70q22 0 40.5 -4.5t26.5 -9.5l7 -4q6 -4 2 -9l-3 -5q-3 -5 -9 -2q-23 16 -64 16q-28 0 -52.5 -10.5t-41 -27t-24 -26t-12.5 -18.5v-303q0 -7 -7 -7h-4q-7 0 -7 7zM66 -133q0 9 6.5 15.5t16.5 6.5q19 0 35.5 -23t16.5 -69
q0 -31 -15.5 -55.5t-31.5 -33.5l-15 -10q-7 -3 -9 1l-3 6q-3 7 3 9q6 3 14.5 8.5t23 27t14.5 47.5q0 35 -13 57q-10 -10 -20 -10t-16.5 7t-6.5 16z" />
    <glyph glyph-name="Rcaron" unicode="&#x158;" horiz-adv-x="648" 
d="M112 7v686q0 7 7 7h237q95 0 161.5 -61t66.5 -153q0 -82 -51.5 -141t-130.5 -74l156 -261q3 -5 -1 -8l-9 -5q-4 -1 -6 3l-159 268q-9 -1 -26 -1h-228v-260q0 -7 -6 -7h-4q-7 0 -7 7zM129 284h228q87 0 148.5 58t61.5 144q0 84 -61.5 140t-149.5 56h-227v-398zM296 771
l-129 106q-4 4 -2 8l4 5q4 4 7 1l124 -101l124 101q3 3 7 -1l4 -5q2 -4 -2 -8l-129 -106q-4 -4 -8 0z" />
    <glyph glyph-name="rcaron" unicode="&#x159;" horiz-adv-x="314" 
d="M81 7v386q0 7 7 7h4q7 0 7 -7v-53q50 70 130 70q22 0 40.5 -4.5t26.5 -9.5l7 -4q6 -4 2 -9l-3 -5q-3 -5 -9 -2q-23 16 -64 16q-28 0 -52.5 -10.5t-41 -27t-24 -26t-12.5 -18.5v-303q0 -7 -7 -7h-4q-7 0 -7 7zM160 553l-129 106q-4 4 -2 8l4 5q4 4 7 1l124 -101l124 101
q3 3 7 -1l4 -5q2 -4 -2 -8l-129 -106q-4 -4 -8 0z" />
    <glyph glyph-name="Sacute" unicode="&#x15a;" horiz-adv-x="556" 
d="M72 73q-4 5 0 9l4 4q4 4 9 -1q91 -77 200 -77q81 0 142 46.5t61 111.5q0 40 -14.5 69.5t-45.5 50t-66 34.5t-88 28q-51 14 -84.5 27.5t-64.5 34.5t-45.5 52t-14.5 73q0 70 54.5 122.5t163.5 52.5q44 0 87.5 -13t64.5 -25l21 -13q5 -3 2 -8l-4 -6q-3 -5 -8 -2
q-8 5 -22.5 13.5t-57 22t-83.5 13.5q-100 0 -150 -47t-50 -110q0 -71 48 -107t148 -62q116 -32 171.5 -75.5t55.5 -124.5q0 -72 -66.5 -124t-154.5 -52q-53 0 -105.5 20t-72.5 35t-35 28zM209 763q-6 -3 -9 3l-2 5q-2 4 3 7l182 91q6 2 9 -3l2 -4q3 -6 -3 -9z" />
    <glyph glyph-name="sacute" unicode="&#x15b;" horiz-adv-x="381" 
d="M61 35q-4 3 -3 7l5 7q3 5 9 0q51 -41 121 -41q54 0 90 26.5t36 65.5t-33.5 59.5t-101.5 39.5q-70 20 -101 44t-31 64q0 39 35 71t100 32t114 -32q5 -3 2 -8l-3 -5q-4 -5 -9 -2q-46 29 -104 29q-56 0 -86 -26.5t-30 -58.5q0 -34 27.5 -53.5t89.5 -37.5q32 -9 47.5 -14
t39.5 -15.5t35 -21t20 -27.5t9 -38q0 -46 -42.5 -78t-103.5 -32q-74 0 -132 45zM103 563q-6 -3 -9 3l-2 5q-2 4 3 7l182 91q6 2 9 -3l2 -4q3 -6 -3 -9z" />
    <glyph glyph-name="Scircumflex" unicode="&#x15c;" horiz-adv-x="556" 
d="M72 73q-4 5 0 9l4 4q4 4 9 -1q91 -77 200 -77q81 0 142 46.5t61 111.5q0 40 -14.5 69.5t-45.5 50t-66 34.5t-88 28q-51 14 -84.5 27.5t-64.5 34.5t-45.5 52t-14.5 73q0 70 54.5 122.5t163.5 52.5q44 0 87.5 -13t64.5 -25l21 -13q5 -3 2 -8l-4 -6q-3 -5 -8 -2
q-8 5 -22.5 13.5t-57 22t-83.5 13.5q-100 0 -150 -47t-50 -110q0 -71 48 -107t148 -62q116 -32 171.5 -75.5t55.5 -124.5q0 -72 -66.5 -124t-154.5 -52q-53 0 -105.5 20t-72.5 35t-35 28zM164 748q-3 -3 -7 1l-4 5q-2 4 2 8l129 106q4 4 8 0l129 -106q4 -4 2 -8l-4 -5
q-4 -4 -7 -1l-124 101z" />
    <glyph glyph-name="scircumflex" unicode="&#x15d;" horiz-adv-x="381" 
d="M61 35q-4 3 -3 7l5 7q3 5 9 0q51 -41 121 -41q54 0 90 26.5t36 65.5t-33.5 59.5t-101.5 39.5q-70 20 -101 44t-31 64q0 39 35 71t100 32t114 -32q5 -3 2 -8l-3 -5q-4 -5 -9 -2q-46 29 -104 29q-56 0 -86 -26.5t-30 -58.5q0 -34 27.5 -53.5t89.5 -37.5q32 -9 47.5 -14
t39.5 -15.5t35 -21t20 -27.5t9 -38q0 -46 -42.5 -78t-103.5 -32q-74 0 -132 45zM66 551q-3 -3 -7 1l-4 5q-2 4 2 8l129 106q4 4 8 0l129 -106q4 -4 2 -8l-4 -5q-4 -4 -7 -1l-124 101z" />
    <glyph glyph-name="Scedilla" unicode="&#x15e;" horiz-adv-x="557" 
d="M73 73q-5 5 0 9l4 4q4 4 9 -1q91 -77 200 -77q81 0 142 46.5t61 111.5q0 40 -14.5 69.5t-45.5 50t-66 34.5t-88 28q-51 14 -84.5 27.5t-64.5 34.5t-45.5 52t-14.5 73q0 70 54.5 122.5t163.5 52.5q44 0 87.5 -13t64.5 -25l21 -13q5 -3 2 -8l-4 -6q-3 -5 -8 -2
q-8 5 -22.5 13.5t-57 22t-83.5 13.5q-100 0 -150 -47t-50 -110q0 -71 48 -107t148 -62q116 -32 171.5 -75.5t55.5 -124.5q0 -72 -66.5 -124t-154.5 -52h-8v-44q109 -11 109 -91q0 -37 -26 -63.5t-65 -26.5q-46 0 -78 34q-4 5 0 9l6 5q5 3 9 -1q25 -29 63 -29q32 0 52 21
t20 51q0 66 -101 74q-6 0 -6 6v56q-47 4 -93 24t-64 33t-31 25z" />
    <glyph glyph-name="scedilla" unicode="&#x15f;" horiz-adv-x="383" 
d="M62 35q-4 3 -3 7l5 7q3 5 9 0q51 -41 121 -41q54 0 90 26.5t36 65.5t-33.5 59.5t-101.5 39.5q-70 20 -101 44t-31 64q0 39 35 71t100 32t114 -32q5 -3 2 -8l-3 -5q-4 -5 -9 -2q-46 29 -104 29q-56 0 -86 -26.5t-30 -58.5q0 -34 27.5 -53.5t89.5 -37.5q32 -9 47.5 -14
t39.5 -15.5t35 -21t20 -27.5t9 -38q0 -46 -42.5 -78t-103.5 -32h-12v-44q109 -11 109 -91q0 -37 -26 -63.5t-65 -26.5q-46 0 -78 34q-4 5 0 9l6 5q5 3 9 -1q25 -29 63 -29q32 0 52 21t20 51q0 66 -101 74q-6 0 -6 6v57q-60 7 -103 43z" />
    <glyph glyph-name="Scaron" unicode="&#x160;" horiz-adv-x="556" 
d="M72 73q-4 5 0 9l4 4q4 4 9 -1q91 -77 200 -77q81 0 142 46.5t61 111.5q0 40 -14.5 69.5t-45.5 50t-66 34.5t-88 28q-51 14 -84.5 27.5t-64.5 34.5t-45.5 52t-14.5 73q0 70 54.5 122.5t163.5 52.5q44 0 87.5 -13t64.5 -25l21 -13q5 -3 2 -8l-4 -6q-3 -5 -8 -2
q-8 5 -22.5 13.5t-57 22t-83.5 13.5q-100 0 -150 -47t-50 -110q0 -71 48 -107t148 -62q116 -32 171.5 -75.5t55.5 -124.5q0 -72 -66.5 -124t-154.5 -52q-53 0 -105.5 20t-72.5 35t-35 28zM284 756l-129 106q-4 4 -2 8l4 5q4 4 7 1l124 -101l124 101q3 3 7 -1l4 -5
q2 -4 -2 -8l-129 -106q-4 -4 -8 0z" />
    <glyph glyph-name="scaron" unicode="&#x161;" horiz-adv-x="381" 
d="M61 35q-4 3 -3 7l5 7q3 5 9 0q51 -41 121 -41q54 0 90 26.5t36 65.5t-33.5 59.5t-101.5 39.5q-70 20 -101 44t-31 64q0 39 35 71t100 32t114 -32q5 -3 2 -8l-3 -5q-4 -5 -9 -2q-46 29 -104 29q-56 0 -86 -26.5t-30 -58.5q0 -34 27.5 -53.5t89.5 -37.5q32 -9 47.5 -14
t39.5 -15.5t35 -21t20 -27.5t9 -38q0 -46 -42.5 -78t-103.5 -32q-74 0 -132 45zM186 556l-129 106q-4 4 -2 8l4 5q4 4 7 1l124 -101l124 101q3 3 7 -1l4 -5q2 -4 -2 -8l-129 -106q-4 -4 -8 0z" />
    <glyph glyph-name="Tcommaaccent" unicode="&#x162;" horiz-adv-x="460" 
d="M221 7v675h-208q-7 0 -7 7v4q0 7 7 7h436q7 0 7 -7v-4q0 -7 -7 -7h-210v-675q0 -7 -7 -7h-4q-7 0 -7 7zM201 -133q0 9 6.5 15.5t16.5 6.5q19 0 35.5 -23t16.5 -69q0 -31 -15.5 -55.5t-30.5 -33.5l-16 -10q-7 -3 -9 1l-3 6q-3 7 3 9q6 3 14.5 8.5t23 27t14.5 47.5
q0 35 -13 57q-10 -10 -20 -10t-16.5 7t-6.5 16z" />
    <glyph glyph-name="tcommaaccent" unicode="&#x163;" horiz-adv-x="311" 
d="M87 107v275h-42q-6 0 -6 7v4q0 7 6 7h42v108q0 7 6 7h4q7 0 7 -7v-108h163q7 0 7 -7v-4q0 -7 -7 -7h-163v-275q0 -26 1.5 -40t8 -29.5t22 -22.5t40.5 -7q29 0 62 11.5t46 20.5q6 4 8 -2l3 -6q1 -4 -2 -7q-15 -10 -50 -22.5t-67 -12.5q-31 0 -50 8t-27 27t-10 35t-2 47z
M144 -133q0 9 6.5 15.5t16.5 6.5q19 0 35.5 -23t16.5 -69q0 -31 -15.5 -55.5t-31.5 -33.5l-15 -10q-7 -3 -9 1l-3 6q-3 7 3 9q6 3 14.5 8.5t23 27t14.5 47.5q0 35 -13 57q-10 -10 -20 -10t-16.5 7t-6.5 16z" />
    <glyph glyph-name="Tcaron" unicode="&#x164;" horiz-adv-x="462" 
d="M221 7v675h-208q-7 0 -7 7v4q0 7 7 7h436q7 0 7 -7v-4q0 -7 -7 -7h-210v-675q0 -7 -7 -7h-4q-7 0 -7 7zM226 771l-129 106q-4 4 -2 8l4 5q4 4 7 1l124 -101l124 101q3 3 7 -1l4 -5q2 -4 -2 -8l-129 -106q-4 -4 -8 0z" />
    <glyph glyph-name="tcaron" unicode="&#x165;" horiz-adv-x="315" 
d="M87 107v275h-42q-6 0 -6 7v4q0 7 6 7h42v108q0 7 6 7h4q7 0 7 -7v-108h163q7 0 7 -7v-4q0 -7 -7 -7h-163v-275q0 -26 1.5 -40t8 -29.5t22 -22.5t40.5 -7q29 0 62 11.5t46 20.5q6 4 8 -2l3 -6q1 -4 -2 -7q-15 -10 -50 -22.5t-67 -12.5q-31 0 -50 8t-27 27t-10 35t-2 47z
M381 520l-3 6q-3 6 3 9t14.5 8.5t23 27t14.5 47.5q0 35 -13 57q-10 -10 -20 -10t-16.5 7t-6.5 16t6.5 15.5t16.5 6.5q19 0 35.5 -23t16.5 -69q0 -31 -15.5 -55.5t-30.5 -34.5l-16 -9q-7 -3 -9 1z" />
    <glyph glyph-name="Tbar" unicode="&#x166;" horiz-adv-x="462" 
d="M221 8v304h-147q-7 0 -7 7v4q0 6 7 6h147v353h-208q-7 0 -7 7v4q0 7 7 7h436q7 0 7 -7v-4q0 -7 -7 -7h-210v-353h151q7 0 7 -6v-4q0 -7 -7 -7h-151v-304q0 -7 -7 -7h-4q-7 0 -7 7z" />
    <glyph glyph-name="tbar" unicode="&#x167;" horiz-adv-x="315" 
d="M87 107v92h-31q-7 0 -7 7v4q0 6 7 6h31v166h-42q-6 0 -6 7v4q0 7 6 7h42v108q0 7 6 7h4q7 0 7 -7v-108h163q7 0 7 -7v-4q0 -7 -7 -7h-163v-166h143q7 0 7 -6v-4q0 -7 -7 -7h-143v-92q0 -26 1.5 -40t8 -29.5t22 -22.5t40.5 -7q29 0 62 11.5t46 20.5q6 4 8 -2l3 -6
q1 -4 -2 -7q-15 -10 -50 -22.5t-67 -12.5q-31 0 -50 8t-27 27t-10 35t-2 47z" />
    <glyph glyph-name="Utilde" unicode="&#x168;" horiz-adv-x="726" 
d="M103 252v441q0 7 7 7h4q7 0 7 -7v-441q0 -109 65 -176.5t175 -67.5q111 0 176.5 67.5t65.5 176.5v441q0 7 7 7h4q7 0 7 -7v-441q0 -117 -70.5 -189.5t-189.5 -72.5q-118 0 -188 72.5t-70 189.5zM225 802l-8 2q-6 2 -3 9q27 84 86 84q16 0 28 -5.5t20 -17t11.5 -18
t9.5 -20.5q19 -46 53 -46q47 0 68 72q2 7 7 5l8 -2q6 -1 3 -9q-28 -84 -86 -84q-46 0 -71 60q-6 14 -9.5 21t-15 17t-26.5 10q-47 0 -68 -73q-2 -7 -7 -5z" />
    <glyph glyph-name="utilde" unicode="&#x169;" horiz-adv-x="486" 
d="M75 174v219q0 7 7 7h4q7 0 7 -7v-219q0 -82 38 -124t110 -42q31 0 59 11t46.5 27.5t27 26t13.5 17.5v303q0 7 7 7h4q7 0 7 -7v-386q0 -7 -7 -7h-4q-7 0 -7 7v53q-57 -70 -146 -70q-81 0 -123.5 46.5t-42.5 137.5zM107 583l-8 2q-6 1 -3 9q27 84 86 84q16 0 28 -5.5
t20 -17t11.5 -18t9.5 -20.5q19 -46 53 -46q47 0 68 72q2 7 7 5l8 -2q6 -2 3 -9q-28 -84 -86 -84q-46 0 -71 60q-6 14 -9.5 21t-15 17t-26.5 10q-47 0 -68 -73q-2 -7 -7 -5z" />
    <glyph glyph-name="Umacron" unicode="&#x16a;" horiz-adv-x="726" 
d="M103 252v441q0 7 7 7h4q7 0 7 -7v-441q0 -109 65 -176.5t175 -67.5q111 0 176.5 67.5t65.5 176.5v441q0 7 7 7h4q7 0 7 -7v-441q0 -117 -70.5 -189.5t-189.5 -72.5q-118 0 -188 72.5t-70 189.5zM218 842q-7 0 -7 7v4q0 7 7 7h288q7 0 7 -7v-4q0 -7 -7 -7h-288z" />
    <glyph glyph-name="umacron" unicode="&#x16b;" horiz-adv-x="486" 
d="M75 174v219q0 7 7 7h4q7 0 7 -7v-219q0 -82 38 -124t110 -42q31 0 59 11t46.5 27.5t27 26t13.5 17.5v303q0 7 7 7h4q7 0 7 -7v-386q0 -7 -7 -7h-4q-7 0 -7 7v53q-57 -70 -146 -70q-81 0 -123.5 46.5t-42.5 137.5zM99 607q-7 0 -7 7v4q0 7 7 7h288q7 0 7 -7v-4q0 -7 -7 -7
h-288z" />
    <glyph glyph-name="Ubreve" unicode="&#x16c;" horiz-adv-x="726" 
d="M103 252v441q0 7 7 7h4q7 0 7 -7v-441q0 -109 65 -176.5t175 -67.5q111 0 176.5 67.5t65.5 176.5v441q0 7 7 7h4q7 0 7 -7v-441q0 -117 -70.5 -189.5t-189.5 -72.5q-118 0 -188 72.5t-70 189.5zM362 780q-50 0 -85 31t-42 77q-1 2 1.5 4.5t4.5 2.5h5q5 0 5 -6
q6 -40 37 -66t74 -26q42 0 73 26t38 66q0 6 5 6h5q2 0 4.5 -2.5t1.5 -4.5q-8 -47 -43 -77.5t-84 -30.5z" />
    <glyph glyph-name="ubreve" unicode="&#x16d;" horiz-adv-x="486" 
d="M75 174v219q0 7 7 7h4q7 0 7 -7v-219q0 -82 38 -124t110 -42q31 0 59 11t46.5 27.5t27 26t13.5 17.5v303q0 7 7 7h4q7 0 7 -7v-386q0 -7 -7 -7h-4q-7 0 -7 7v53q-57 -70 -146 -70q-81 0 -123.5 46.5t-42.5 137.5zM243 545q-49 0 -84.5 30.5t-42.5 76.5q-1 3 1.5 5.5
t4.5 2.5h5q5 0 5 -6q6 -41 37 -67t74 -26q42 0 73 26t38 67q0 6 5 6h5q2 0 4.5 -2.5t1.5 -5.5q-8 -46 -43 -76.5t-84 -30.5z" />
    <glyph glyph-name="Uring" unicode="&#x16e;" horiz-adv-x="726" 
d="M103 252v441q0 7 7 7h4q7 0 7 -7v-441q0 -109 65 -176.5t175 -67.5q111 0 176.5 67.5t65.5 176.5v441q0 7 7 7h4q7 0 7 -7v-441q0 -117 -70.5 -189.5t-189.5 -72.5q-118 0 -188 72.5t-70 189.5zM363 750q-44 0 -74 30t-30 74t30 74t74 30q43 0 73.5 -30t30.5 -74t-30 -74
t-74 -30zM363 766q35 0 61 26t26 62q0 35 -26 61.5t-61 26.5q-36 0 -61.5 -26t-25.5 -62t25.5 -62t61.5 -26z" />
    <glyph glyph-name="uring" unicode="&#x16f;" horiz-adv-x="486" 
d="M75 174v219q0 7 7 7h4q7 0 7 -7v-219q0 -82 38 -124t110 -42q31 0 59 11t46.5 27.5t27 26t13.5 17.5v303q0 7 7 7h4q7 0 7 -7v-386q0 -7 -7 -7h-4q-7 0 -7 7v53q-57 -70 -146 -70q-81 0 -123.5 46.5t-42.5 137.5zM243 500q-44 0 -74 30t-30 74t30 74t74 30q43 0 73.5 -30
t30.5 -74t-30 -74t-74 -30zM243 516q35 0 61 26t26 62q0 35 -26 61.5t-61 26.5q-36 0 -61.5 -26t-25.5 -62t25.5 -62t61.5 -26z" />
    <glyph glyph-name="Uhungarumlaut" unicode="&#x170;" horiz-adv-x="726" 
d="M103 252v441q0 7 7 7h4q7 0 7 -7v-441q0 -109 65 -176.5t175 -67.5q111 0 176.5 67.5t65.5 176.5v441q0 7 7 7h4q7 0 7 -7v-441q0 -117 -70.5 -189.5t-189.5 -72.5q-118 0 -188 72.5t-70 189.5zM446 757l-5 3q-5 4 -2 9l108 173q4 5 9 2l5 -3q5 -4 2 -9l-108 -173
q-4 -5 -9 -2zM280 757l-5 3q-5 4 -2 9l108 173q4 5 9 2l5 -3q5 -4 2 -9l-108 -173q-4 -5 -9 -2z" />
    <glyph glyph-name="uhungarumlaut" unicode="&#x171;" horiz-adv-x="486" 
d="M75 174v219q0 7 7 7h4q7 0 7 -7v-219q0 -82 38 -124t110 -42q31 0 59 11t46.5 27.5t27 26t13.5 17.5v303q0 7 7 7h4q7 0 7 -7v-386q0 -7 -7 -7h-4q-7 0 -7 7v53q-57 -70 -146 -70q-81 0 -123.5 46.5t-42.5 137.5zM321 513l-5 3q-5 4 -2 9l108 173q4 5 9 2l5 -3q5 -4 2 -9
l-108 -173q-4 -5 -9 -2zM155 513l-5 3q-5 4 -2 9l108 173q4 5 9 2l5 -3q5 -4 2 -9l-108 -173q-4 -5 -9 -2z" />
    <glyph glyph-name="Uogonek" unicode="&#x172;" horiz-adv-x="730" 
d="M106 252v441q0 7 7 7h4q7 0 7 -7v-441q0 -109 65 -176.5t175 -67.5q111 0 176.5 67.5t65.5 176.5v441q0 7 7 7h4q7 0 7 -7v-441q0 -116 -69.5 -188.5t-186.5 -73.5q-7 -3 -18.5 -11t-29 -23.5t-30 -40t-12.5 -50.5q0 -39 26 -57.5t65 -18.5q40 0 68 14q6 3 8 -2l3 -6
q3 -5 -3 -8q-35 -16 -76 -16q-47 0 -78 23t-31 71q0 73 77 127q-107 8 -169 79t-62 181z" />
    <glyph glyph-name="uogonek" unicode="&#x173;" horiz-adv-x="486" 
d="M75 174v219q0 7 7 7h4q7 0 7 -7v-219q0 -82 38 -124t110 -42q31 0 59 11t46.5 27.5t27 26t13.5 17.5v303q0 7 7 7h4q7 0 7 -7v-386q0 -5 -5 -8q-4 -2 -10 -5.5t-22 -16t-28 -26t-22 -35t-10 -43.5q0 -39 26 -57.5t65 -18.5q40 0 68 14q6 3 8 -2l3 -6q3 -5 -3 -8
q-35 -16 -76 -16q-47 0 -78 23t-31 71q0 36 22 69t39.5 46t35.5 23v49q-57 -70 -146 -70q-81 0 -123.5 46.5t-42.5 137.5z" />
    <glyph glyph-name="Wcircumflex" unicode="&#x174;" horiz-adv-x="889" 
d="M245 -12l-204 705q-1 5 3 6l8 3q4 2 6 -3l194 -668l184 677q2 5 7 5t7 -5l193 -676l187 667q2 5 6 3l8 -3q4 -1 3 -6l-197 -705q-2 -5 -7 -5t-7 5l-193 676l-184 -676q-1 -5 -7 -5t-7 5zM319 763q-3 -3 -7 1l-4 5q-2 4 2 8l129 106q4 4 8 0l129 -106q4 -4 2 -8l-4 -5
q-4 -4 -7 -1l-124 101z" />
    <glyph glyph-name="wcircumflex" unicode="&#x175;" horiz-adv-x="596" 
d="M165 -12l-134 408q-2 6 3 8l6 2q6 1 7 -3l125 -376l119 388q1 5 7 5t7 -5l119 -388l125 376q1 4 7 3l6 -2q5 -2 3 -8l-134 -408q-1 -5 -7 -5t-7 5l-119 387l-119 -387q-1 -5 -7 -5t-7 5zM175 548q-3 -3 -7 1l-4 5q-2 4 2 8l129 106q4 4 8 0l129 -106q4 -4 2 -8l-4 -5
q-4 -4 -7 -1l-124 101z" />
    <glyph glyph-name="Ycircumflex" unicode="&#x176;" horiz-adv-x="544" 
d="M263 7v336l-264 345q-4 6 1 9l6 4q3 2 8 -3l258 -339l258 339q4 6 8 3l6 -4q5 -3 1 -9l-264 -344v-337q0 -7 -7 -7h-4q-7 0 -7 7zM148 763q-3 -3 -7 1l-4 5q-2 4 2 8l129 106q4 4 8 0l129 -106q4 -4 2 -8l-4 -5q-4 -4 -7 -1l-124 101z" />
    <glyph glyph-name="ycircumflex" unicode="&#x177;" horiz-adv-x="422" 
d="M207 8l-194 387q-3 7 1 8l7 3q4 2 7 -3l188 -376l176 376q3 5 7 3l7 -3q4 -1 1 -8l-326 -696q-3 -6 -8 -3l-5 3q-4 3 -2 8zM91 548q-3 -3 -7 1l-4 5q-2 4 2 8l129 106q4 4 8 0l129 -106q4 -4 2 -8l-4 -5q-4 -4 -7 -1l-124 101z" />
    <glyph glyph-name="Ydieresis" unicode="&#x178;" horiz-adv-x="544" 
d="M263 7v336l-264 345q-4 6 1 9l6 4q3 2 8 -3l258 -339l258 339q4 6 8 3l6 -4q5 -3 1 -9l-264 -344v-337q0 -7 -7 -7h-4q-7 0 -7 7zM377 810q-9 0 -15 6t-6 14q0 9 6 15t15 6t15 -6t6 -15q0 -8 -6 -14t-15 -6zM170 810q-9 0 -15 6t-6 14q0 9 6 15t15 6t15 -6t6 -15
q0 -8 -6 -14t-15 -6z" />
    <glyph glyph-name="Zacute" unicode="&#x179;" horiz-adv-x="528" 
d="M29 11l439 671h-399q-7 0 -7 7v4q0 7 7 7h419q4 0 6 -3.5t0 -7.5l-439 -671h411q7 0 7 -7v-4q0 -7 -7 -7h-431q-4 0 -6 3.5t0 7.5zM200 778q-6 -2 -9 3l-2 5q-2 4 3 7l182 91q6 2 9 -3l2 -4q3 -6 -3 -9z" />
    <glyph glyph-name="zacute" unicode="&#x17a;" horiz-adv-x="377" 
d="M31 11l277 371h-243q-6 0 -6 7v4q0 7 6 7h267q5 0 7 -3.5t-1 -7.5l-279 -371h262q7 0 7 -7v-4q0 -7 -7 -7h-284q-5 0 -7 3.5t1 7.5zM116 560q-6 -2 -9 3l-2 5q-2 4 3 7l182 91q6 2 9 -3l2 -4q3 -6 -3 -9z" />
    <glyph glyph-name="Zdotaccent" unicode="&#x17b;" horiz-adv-x="528" 
d="M29 11l439 671h-399q-7 0 -7 7v4q0 7 7 7h419q4 0 6 -3.5t0 -7.5l-439 -671h411q7 0 7 -7v-4q0 -7 -7 -7h-431q-4 0 -6 3.5t0 7.5zM279 825q-8 0 -13.5 5.5t-5.5 12.5q0 8 5.5 13.5t13.5 5.5q19 0 19 -19q0 -8 -5.5 -13t-13.5 -5z" />
    <glyph glyph-name="zdotaccent" unicode="&#x17c;" horiz-adv-x="377" 
d="M31 11l277 371h-243q-6 0 -6 7v4q0 7 6 7h267q5 0 7 -3.5t-1 -7.5l-279 -371h262q7 0 7 -7v-4q0 -7 -7 -7h-284q-5 0 -7 3.5t1 7.5zM200 599q-8 0 -13.5 5.5t-5.5 13.5q0 7 5.5 12.5t13.5 5.5t13.5 -5t5.5 -13t-5.5 -13.5t-13.5 -5.5z" />
    <glyph glyph-name="Zcaron" unicode="&#x17d;" horiz-adv-x="528" 
d="M29 11l439 671h-399q-7 0 -7 7v4q0 7 7 7h419q4 0 6 -3.5t0 -7.5l-439 -671h411q7 0 7 -7v-4q0 -7 -7 -7h-431q-4 0 -6 3.5t0 7.5zM275 771l-129 106q-4 4 -2 8l4 5q4 4 7 1l124 -101l124 101q3 3 7 -1l4 -5q2 -4 -2 -8l-129 -106q-4 -4 -8 0z" />
    <glyph glyph-name="zcaron" unicode="&#x17e;" horiz-adv-x="377" 
d="M31 11l277 371h-243q-6 0 -6 7v4q0 7 6 7h267q5 0 7 -3.5t-1 -7.5l-279 -371h262q7 0 7 -7v-4q0 -7 -7 -7h-284q-5 0 -7 3.5t1 7.5zM194 553l-129 106q-4 4 -2 8l4 5q4 4 7 1l124 -101l124 101q3 3 7 -1l4 -5q2 -4 -2 -8l-129 -106q-4 -4 -8 0z" />
    <glyph glyph-name="florin" unicode="&#x192;" horiz-adv-x="345" 
d="M130 -134v516h-110q-7 0 -7 7v4q0 7 7 7h110v134q0 87 40 131.5t109 44.5t114 -43q5 -5 0 -10l-3 -3q-5 -5 -10 0q-40 38 -101 38t-96 -39.5t-35 -118.5v-134h181q7 0 7 -7v-4q0 -7 -7 -7h-181v-516q0 -87 -40 -131.5t-109 -44.5t-114 43q-5 5 0 10l3 3q5 5 10 0
q40 -38 101 -38t96 39.5t35 118.5z" />
    <glyph glyph-name="Aringacute" unicode="&#x1fa;" horiz-adv-x="639" 
d="M241 919q-6 -3 -9 3l-2 5q-2 4 3 7l182 91q6 2 9 -3l2 -4q3 -6 -3 -9zM8 7l304 701q-41 4 -67.5 33t-26.5 71q0 44 30 74t74 30t74 -30t30 -74q0 -42 -27 -71t-68 -33l299 -701q2 -5 -3 -6l-9 -3q-3 -1 -5 3l-89 209h-409l-90 -209q-2 -4 -5 -3l-9 3q-5 1 -3 6zM322 724
q35 0 61 26t26 62q0 35 -26 61.5t-61 26.5q-36 0 -61.5 -26t-25.5 -62t25.5 -62t61.5 -26zM123 227h393l-194 458z" />
    <glyph glyph-name="aringacute" unicode="&#x1fb;" horiz-adv-x="436" 
d="M47 125q0 60 48.5 98.5t127.5 38.5q55 0 118 -23v37q0 61 -24.5 88.5t-86.5 27.5q-34 0 -64.5 -7.5t-43.5 -14.5l-14 -8q-5 -3 -9 2l-3 5q-3 5 2 8q50 33 132 33q72 0 100.5 -32t28.5 -102v-269q0 -7 -7 -7h-4q-7 0 -7 7v45q-71 -62 -155 -62q-60 0 -99.5 36.5
t-39.5 98.5zM65 125q0 -54 34 -85.5t87 -31.5q49 0 92.5 22.5t62.5 46.5v144q-80 23 -118 23q-71 0 -114.5 -33.5t-43.5 -85.5zM223 430q-44 0 -74 30t-30 74t30 74t74 30q43 0 73.5 -30t30.5 -74t-30 -74t-74 -30zM223 446q35 0 61 26t26 62q0 35 -26 61.5t-61 26.5
q-36 0 -61.5 -26t-25.5 -62t25.5 -62t61.5 -26zM135 641q-6 -3 -9 3l-2 5q-2 4 3 7l182 91q6 2 9 -3l2 -4q3 -6 -3 -9z" />
    <glyph glyph-name="AEacute" unicode="&#x1fc;" horiz-adv-x="936" 
d="M-1 -1l-5 3q-5 3 -2 8l445 682q5 8 17 8h398q7 0 7 -7v-4q0 -7 -7 -7h-396v-309h348q7 0 7 -7v-4q0 -7 -7 -7h-348v-337h396q7 0 7 -7v-4q0 -7 -7 -7h-406q-7 0 -7 7v203h-295l-137 -210q-3 -4 -8 -1zM154 227h285v435zM548 779q-6 -3 -9 3l-2 5q-2 4 3 7l182 91
q6 2 9 -3l2 -4q3 -6 -3 -9z" />
    <glyph glyph-name="aeacute" unicode="&#x1fd;" horiz-adv-x="721" 
d="M47 126q0 60 48.5 98t127.5 38q58 0 121 -23v37q0 61 -25.5 88.5t-87.5 27.5q-34 0 -65 -7.5t-44 -14.5l-14 -8q-6 -3 -9 2l-3 6q-2 5 2 7q50 33 133 33q96 0 120 -64q56 64 142 64q80 0 131.5 -51.5t51.5 -132.5q0 -22 -5 -30q-2 -4 -6 -4h-303v-121q56 -63 131 -63
q82 0 137 43q5 4 7 -1l3 -6q2 -4 -1 -7q-59 -47 -146 -47q-82 0 -140 65q-25 -25 -71 -45t-96 -20q-60 0 -99.5 37t-39.5 99zM362 210h295q1 6 1 16q0 73 -46.5 119.5t-118.5 46.5q-89 0 -136 -68q5 -23 5 -48v-66zM65 126q0 -54 34.5 -86t86.5 -32q49 0 94.5 20.5
t63.5 43.5v149q-80 23 -121 23q-71 0 -114.5 -33t-43.5 -85zM310 560q-6 -2 -9 3l-2 5q-2 4 3 7l182 91q6 2 9 -3l2 -4q3 -6 -3 -9z" />
    <glyph glyph-name="Oslashacute" unicode="&#x1fe;" horiz-adv-x="848" 
d="M88 34q-5 5 0 10l66 64q-91 104 -91 241q0 151 105 256t256 105t255 -104l68 65q4 5 9 0l3 -3q5 -5 0 -10l-68 -65q95 -106 95 -244q0 -150 -105.5 -254.5t-256.5 -104.5q-154 0 -258 104l-66 -63q-4 -5 -9 0zM167 120l499 474q-101 98 -242 98q-143 0 -243 -100
t-100 -243q0 -133 86 -229zM180 107q97 -99 244 -99q144 0 244 99t100 242q0 133 -89 232zM344 778q-6 -2 -9 3l-2 5q-2 4 3 7l182 91q6 2 9 -3l2 -4q3 -6 -3 -9z" />
    <glyph glyph-name="oslashacute" unicode="&#x1ff;" horiz-adv-x="510" 
d="M72 43q-5 5 0 10l20 20q-40 55 -40 125q0 88 59 150t144 62q89 0 148 -66l26 23q4 4 9 0l3 -3q5 -5 0 -10l-26 -24q43 -59 43 -132q0 -88 -58.5 -148t-144.5 -60q-91 0 -151 68l-20 -19q-4 -5 -10 1zM107 85l281 246q-53 61 -133 61q-77 0 -131 -57t-54 -137
q0 -63 37 -113zM119 71q53 -63 136 -63q78 0 131.5 54.5t53.5 135.5q0 67 -39 120zM165 560q-6 -2 -9 3l-2 5q-2 4 3 7l182 91q6 2 9 -3l2 -4q3 -6 -3 -9z" />
    <glyph glyph-name="Scommaaccent" unicode="&#x218;" horiz-adv-x="556" 
d="M72 73q-4 5 0 9l4 4q4 4 9 -1q91 -77 200 -77q81 0 142 46.5t61 111.5q0 40 -14.5 69.5t-45.5 50t-66 34.5t-88 28q-51 14 -84.5 27.5t-64.5 34.5t-45.5 52t-14.5 73q0 70 54.5 122.5t163.5 52.5q44 0 87.5 -13t64.5 -25l21 -13q5 -3 2 -8l-4 -6q-3 -5 -8 -2
q-8 5 -22.5 13.5t-57 22t-83.5 13.5q-100 0 -150 -47t-50 -110q0 -71 48 -107t148 -62q116 -32 171.5 -75.5t55.5 -124.5q0 -72 -66.5 -124t-154.5 -52q-53 0 -105.5 20t-72.5 35t-35 28zM260 -148q0 9 6.5 15.5t16.5 6.5q19 0 35.5 -23t16.5 -69q0 -31 -15.5 -55.5
t-31.5 -34.5l-15 -9q-7 -3 -9 1l-3 6q-3 6 3 9t14.5 8.5t23 27t14.5 47.5q0 35 -13 57q-10 -10 -20 -10t-16.5 7t-6.5 16z" />
    <glyph glyph-name="scommaaccent" unicode="&#x219;" horiz-adv-x="382" 
d="M61 35q-4 3 -3 7l5 7q3 5 9 0q51 -41 121 -41q54 0 90 26.5t36 65.5t-33.5 59.5t-101.5 39.5q-70 20 -101 44t-31 64q0 39 35 71t100 32t114 -32q5 -3 2 -8l-3 -5q-4 -5 -9 -2q-46 29 -104 29q-56 0 -86 -26.5t-30 -58.5q0 -34 27.5 -53.5t89.5 -37.5q32 -9 47.5 -14
t39.5 -15.5t35 -21t20 -27.5t9 -38q0 -46 -42.5 -78t-103.5 -32q-74 0 -132 45zM162 -130q0 9 6.5 15.5t16.5 6.5q19 0 35.5 -23t16.5 -69q0 -31 -15.5 -55.5t-31.5 -34.5l-15 -9q-7 -3 -9 1l-3 6q-3 6 3 9t14.5 8.5t23 27t14.5 47.5q0 35 -13 57q-10 -10 -20 -10t-16.5 7
t-6.5 16z" />
    <glyph glyph-name="uni021A" unicode="&#x21a;" horiz-adv-x="460" 
d="M221 7v675h-208q-7 0 -7 7v4q0 7 7 7h436q7 0 7 -7v-4q0 -7 -7 -7h-210v-675q0 -7 -7 -7h-4q-7 0 -7 7zM201 -133q0 9 6.5 15.5t16.5 6.5q19 0 35.5 -23t16.5 -69q0 -31 -15.5 -55.5t-30.5 -33.5l-16 -10q-7 -3 -9 1l-3 6q-3 7 3 9q6 3 14.5 8.5t23 27t14.5 47.5
q0 35 -13 57q-10 -10 -20 -10t-16.5 7t-6.5 16z" />
    <glyph glyph-name="uni021B" unicode="&#x21b;" horiz-adv-x="311" 
d="M87 107v275h-42q-6 0 -6 7v4q0 7 6 7h42v108q0 7 6 7h4q7 0 7 -7v-108h163q7 0 7 -7v-4q0 -7 -7 -7h-163v-275q0 -26 1.5 -40t8 -29.5t22 -22.5t40.5 -7q29 0 62 11.5t46 20.5q6 4 8 -2l3 -6q1 -4 -2 -7q-15 -10 -50 -22.5t-67 -12.5q-31 0 -50 8t-27 27t-10 35t-2 47z
M144 -133q0 9 6.5 15.5t16.5 6.5q19 0 35.5 -23t16.5 -69q0 -31 -15.5 -55.5t-31.5 -33.5l-15 -10q-7 -3 -9 1l-3 6q-3 7 3 9q6 3 14.5 8.5t23 27t14.5 47.5q0 35 -13 57q-10 -10 -20 -10t-16.5 7t-6.5 16z" />
    <glyph glyph-name="dotlessj" unicode="&#x237;" horiz-adv-x="180" 
d="M81 -134v527q0 7 7 7h4q7 0 7 -7v-527q0 -176 -140 -176q-70 0 -113 43q-5 5 0 10l3 3q5 4 9 0q40 -38 101 -38q122 0 122 158z" />
    <glyph glyph-name="circumflex" unicode="&#x2c6;" horiz-adv-x="373" 
d="M62 548q-3 -3 -7 1l-4 5q-2 4 2 8l129 106q4 4 8 0l129 -106q4 -4 2 -8l-4 -5q-4 -4 -7 -1l-124 101z" />
    <glyph glyph-name="caron" unicode="&#x2c7;" horiz-adv-x="373" 
d="M182 553l-129 106q-4 4 -2 8l4 5q4 4 7 1l124 -101l124 101q3 3 7 -1l4 -5q2 -4 -2 -8l-129 -106q-4 -4 -8 0z" />
    <glyph glyph-name="uni02C9" unicode="&#x2c9;" horiz-adv-x="414" 
d="M63 607q-7 0 -7 7v4q0 7 7 7h288q7 0 7 -7v-4q0 -7 -7 -7h-288z" />
    <glyph glyph-name="breve" unicode="&#x2d8;" horiz-adv-x="346" 
d="M173 545q-49 0 -84.5 30.5t-42.5 76.5q-1 3 1.5 5.5t4.5 2.5h5q5 0 5 -6q6 -41 37 -67t74 -26q42 0 73 26t38 67q0 6 5 6h5q2 0 4.5 -2.5t1.5 -5.5q-8 -46 -43 -76.5t-84 -30.5z" />
    <glyph glyph-name="dotaccent" unicode="&#x2d9;" horiz-adv-x="219" 
d="M108 599q-8 0 -13.5 5.5t-5.5 13.5q0 7 5.5 12.5t13.5 5.5t13.5 -5t5.5 -13t-5.5 -13.5t-13.5 -5.5z" />
    <glyph glyph-name="ring" unicode="&#x2da;" horiz-adv-x="290" 
d="M145 500q-44 0 -74 30t-30 74t30 74t74 30q43 0 73.5 -30t30.5 -74t-30 -74t-74 -30zM145 516q35 0 61 26t26 62q0 35 -26 61.5t-61 26.5q-36 0 -61.5 -26t-25.5 -62t25.5 -62t61.5 -26z" />
    <glyph glyph-name="ogonek" unicode="&#x2db;" horiz-adv-x="276" 
d="M34 -127q0 25 10.5 49t25.5 40t30 28.5t26 17.5l10 6q4 3 9 -2l3 -7q0 -4 -4 -6t-10 -5.5t-22 -16t-28 -26t-22 -35t-10 -43.5q0 -39 26 -57.5t65 -18.5q40 0 68 14q6 3 8 -2l3 -6q3 -5 -3 -8q-35 -16 -76 -16q-47 0 -78 23t-31 71z" />
    <glyph glyph-name="tilde" unicode="&#x2dc;" horiz-adv-x="380" 
d="M44 583l-8 2q-6 1 -3 9q27 84 86 84q16 0 28 -5.5t20 -17t11.5 -18t9.5 -20.5q19 -46 53 -46q47 0 68 72q2 7 7 5l8 -2q6 -2 3 -9q-28 -84 -86 -84q-46 0 -71 60q-6 14 -9.5 21t-15 17t-26.5 10q-47 0 -68 -73q-2 -7 -7 -5z" />
    <glyph glyph-name="hungarumlaut" unicode="&#x2dd;" horiz-adv-x="392" 
d="M234 513l-5 3q-5 4 -2 9l108 173q4 5 9 2l5 -3q5 -4 2 -9l-108 -173q-4 -5 -9 -2zM68 513l-5 3q-5 4 -2 9l108 173q4 5 9 2l5 -3q5 -4 2 -9l-108 -173q-4 -5 -9 -2z" />
    <glyph glyph-name="uni0394" unicode="&#x394;" horiz-adv-x="658" 
d="M24 19l302 698q2 4 5 4h2q3 0 5 -4l298 -700q7 -17 -13 -17h-588q-9 0 -11.5 2t0.5 17zM41 18h575l-284 667z" />
    <glyph glyph-name="uni03A9" unicode="&#x3a9;" horiz-adv-x="781" 
d="M58 7v4q0 7 7 7h186q-100 41 -161 130t-61 201q0 151 105 256t256 105t256.5 -105t105.5 -256q0 -110 -60 -199.5t-158 -131.5h185q7 0 7 -7v-4q0 -7 -7 -7h-238q-7 0 -7 7v4q0 7 7 7q111 30 182 121.5t71 209.5q0 143 -100.5 243t-243.5 100t-243 -100t-100 -243
q0 -120 71.5 -211.5t184.5 -119.5q7 0 7 -7v-4q0 -7 -7 -7h-238q-7 0 -7 7z" />
    <glyph glyph-name="uni03BC" unicode="&#x3bc;" horiz-adv-x="504" 
d="M100 78v-371q0 -7 -7 -7h-4q-7 0 -7 7v686q0 7 7 7h4q7 0 7 -7v-219q0 -82 38 -124t110 -42q31 0 59 11t46.5 27.5t27 26t13.5 17.5v303q0 7 7 7h4q7 0 7 -7v-386q0 -7 -7 -7h-4q-7 0 -7 7v53q-58 -70 -146 -70q-117 0 -148 88z" />
    <glyph glyph-name="pi" unicode="&#x3c0;" horiz-adv-x="773" 
d="M228 7v375h-125q-7 0 -7 7v4q0 7 7 7h545q7 0 7 -7v-4q0 -7 -7 -7h-126v-375q0 -7 -7 -7h-3q-7 0 -7 7v375h-259v-375q0 -7 -7 -7h-4q-7 0 -7 7z" />
    <glyph glyph-name="Wgrave" unicode="&#x1e80;" horiz-adv-x="889" 
d="M245 -12l-204 705q-1 5 3 6l8 3q4 2 6 -3l194 -668l184 677q2 5 7 5t7 -5l193 -676l187 667q2 5 6 3l8 -3q4 -1 3 -6l-197 -705q-2 -5 -7 -5t-7 5l-193 676l-184 -676q-1 -5 -7 -5t-7 5zM531 778l-182 90q-6 3 -3 9l2 4q3 5 9 3l182 -91q5 -3 3 -7l-2 -5q-3 -5 -9 -3z
" />
    <glyph glyph-name="wgrave" unicode="&#x1e81;" horiz-adv-x="596" 
d="M165 -12l-134 408q-2 6 3 8l6 2q6 1 7 -3l125 -376l119 388q1 5 7 5t7 -5l119 -388l125 376q1 4 7 3l6 -2q5 -2 3 -8l-134 -408q-1 -5 -7 -5t-7 5l-119 387l-119 -387q-1 -5 -7 -5t-7 5zM386 560l-182 90q-6 3 -3 9l2 4q3 5 9 3l182 -91q5 -3 3 -7l-2 -5q-3 -5 -9 -3z
" />
    <glyph glyph-name="Wacute" unicode="&#x1e82;" horiz-adv-x="889" 
d="M245 -12l-204 705q-1 5 3 6l8 3q4 2 6 -3l194 -668l184 677q2 5 7 5t7 -5l193 -676l187 667q2 5 6 3l8 -3q4 -1 3 -6l-197 -705q-2 -5 -7 -5t-7 5l-193 676l-184 -676q-1 -5 -7 -5t-7 5zM355 778q-6 -2 -9 3l-2 5q-2 4 3 7l182 91q6 2 9 -3l2 -4q3 -6 -3 -9z" />
    <glyph glyph-name="wacute" unicode="&#x1e83;" horiz-adv-x="596" 
d="M165 -12l-134 408q-2 6 3 8l6 2q6 1 7 -3l125 -376l119 388q1 5 7 5t7 -5l119 -388l125 376q1 4 7 3l6 -2q5 -2 3 -8l-134 -408q-1 -5 -7 -5t-7 5l-119 387l-119 -387q-1 -5 -7 -5t-7 5zM212 560q-6 -2 -9 3l-2 5q-2 4 3 7l182 91q6 2 9 -3l2 -4q3 -6 -3 -9z" />
    <glyph glyph-name="Wdieresis" unicode="&#x1e84;" horiz-adv-x="889" 
d="M245 -12l-204 705q-1 5 3 6l8 3q4 2 6 -3l194 -668l184 677q2 5 7 5t7 -5l193 -676l187 667q2 5 6 3l8 -3q4 -1 3 -6l-197 -705q-2 -5 -7 -5t-7 5l-193 676l-184 -676q-1 -5 -7 -5t-7 5zM547 810q-9 0 -15 6t-6 14q0 9 6 15t15 6t15 -6t6 -15q0 -8 -6 -14t-15 -6z
M340 810q-9 0 -15 6t-6 14q0 9 6 15t15 6t15 -6t6 -15q0 -8 -6 -14t-15 -6z" />
    <glyph glyph-name="wdieresis" unicode="&#x1e85;" horiz-adv-x="596" 
d="M165 -12l-134 408q-2 6 3 8l6 2q6 1 7 -3l125 -376l119 388q1 5 7 5t7 -5l119 -388l125 376q1 4 7 3l6 -2q5 -2 3 -8l-134 -408q-1 -5 -7 -5t-7 5l-119 387l-119 -387q-1 -5 -7 -5t-7 5zM393 607q-9 0 -14.5 6t-5.5 14q0 21 20 21q9 0 15 -6t6 -15q0 -8 -6 -14t-15 -6z
M204 607q-9 0 -15 6t-6 14q0 9 6 15t15 6q20 0 20 -21q0 -8 -5.5 -14t-14.5 -6z" />
    <glyph glyph-name="Ygrave" unicode="&#x1ef2;" horiz-adv-x="544" 
d="M263 7v336l-264 345q-4 6 1 9l6 4q3 2 8 -3l258 -339l258 339q4 6 8 3l6 -4q5 -3 1 -9l-264 -344v-337q0 -7 -7 -7h-4q-7 0 -7 7zM361 778l-182 90q-6 3 -3 9l2 4q3 5 9 3l182 -91q5 -3 3 -7l-2 -5q-3 -5 -9 -3z" />
    <glyph glyph-name="ygrave" unicode="&#x1ef3;" horiz-adv-x="422" 
d="M207 8l-194 387q-3 7 1 8l7 3q4 2 7 -3l188 -376l176 376q3 5 7 3l7 -3q4 -1 1 -8l-326 -696q-3 -6 -8 -3l-5 3q-4 3 -2 8zM304 560l-182 90q-6 3 -3 9l2 4q3 5 9 3l182 -91q5 -3 3 -7l-2 -5q-3 -5 -9 -3z" />
    <glyph glyph-name="endash" unicode="&#x2013;" horiz-adv-x="739" 
d="M170 243q-7 0 -7 7v4q0 7 7 7h399q7 0 7 -7v-4q0 -7 -7 -7h-399z" />
    <glyph glyph-name="emdash" unicode="&#x2014;" horiz-adv-x="955" 
d="M170 243q-7 0 -7 7v4q0 7 7 7h615q7 0 7 -7v-4q0 -7 -7 -7h-615z" />
    <glyph glyph-name="quoteleft" unicode="&#x2018;" horiz-adv-x="174" 
d="M99 516q-19 0 -35.5 23t-16.5 69q0 31 15.5 55.5t31.5 34.5l15 9q7 3 9 -1l3 -6q3 -6 -3 -9t-14.5 -8.5t-23 -27t-14.5 -47.5q0 -35 13 -57q10 10 20 10t16.5 -7t6.5 -16t-6.5 -15.5t-16.5 -6.5z" />
    <glyph glyph-name="quoteright" unicode="&#x2019;" horiz-adv-x="173" 
d="M59 520l-3 6q-3 6 3 9t14.5 8.5t23 27t14.5 47.5q0 35 -13 57q-10 -10 -20 -10t-16.5 7t-6.5 16t6.5 15.5t16.5 6.5q19 0 35.5 -23t16.5 -69q0 -31 -15.5 -55.5t-30.5 -34.5l-16 -9q-7 -3 -9 1z" />
    <glyph glyph-name="quotesinglbase" unicode="&#x201a;" horiz-adv-x="262" 
d="M103 13q0 9 6.5 15.5t16.5 6.5q19 0 35.5 -23t16.5 -69q0 -31 -15.5 -55.5t-30.5 -33.5l-16 -10q-7 -3 -9 1l-3 6q-3 7 3 9q6 3 14.5 8.5t23 27t14.5 47.5q0 35 -13 57q-10 -10 -20 -10t-16.5 7t-6.5 16z" />
    <glyph glyph-name="quotedblleft" unicode="&#x201c;" horiz-adv-x="352" 
d="M277 516q-19 0 -35.5 23t-16.5 69q0 31 15.5 55.5t31.5 34.5l15 9q7 3 9 -1l3 -6q3 -6 -3 -9t-14.5 -8.5t-23 -27t-14.5 -47.5q0 -35 13 -57q10 10 20 10t16.5 -7t6.5 -16t-6.5 -15.5t-16.5 -6.5zM99 516q-19 0 -35.5 23t-16.5 69q0 31 15.5 55.5t31.5 34.5l15 9
q7 3 9 -1l3 -6q3 -6 -3 -9t-14.5 -8.5t-23 -27t-14.5 -47.5q0 -35 13 -57q10 10 20 10t16.5 -7t6.5 -16t-6.5 -15.5t-16.5 -6.5z" />
    <glyph glyph-name="quotedblright" unicode="&#x201d;" horiz-adv-x="351" 
d="M237 520l-3 6q-3 6 3 9t14.5 8.5t23 27t14.5 47.5q0 35 -13 57q-10 -10 -20 -10t-16.5 7t-6.5 16t6.5 15.5t16.5 6.5q19 0 35.5 -23t16.5 -69q0 -31 -15.5 -55.5t-30.5 -34.5l-16 -9q-7 -3 -9 1zM59 520l-3 6q-3 6 3 9t14.5 8.5t23 27t14.5 47.5q0 35 -13 57
q-10 -10 -20 -10t-16.5 7t-6.5 16t6.5 15.5t16.5 6.5q19 0 35.5 -23t16.5 -69q0 -31 -15.5 -55.5t-30.5 -34.5l-16 -9q-7 -3 -9 1z" />
    <glyph glyph-name="quotedblbase" unicode="&#x201e;" horiz-adv-x="440" 
d="M281 13q0 9 6.5 15.5t16.5 6.5q19 0 35.5 -23t16.5 -69q0 -31 -15.5 -55.5t-30.5 -33.5l-16 -10q-7 -3 -9 1l-3 6q-3 7 3 9q6 3 14.5 8.5t23 27t14.5 47.5q0 35 -13 57q-10 -10 -20 -10t-16.5 7t-6.5 16zM103 13q0 9 6.5 15.5t16.5 6.5q19 0 35.5 -23t16.5 -69
q0 -31 -15.5 -55.5t-30.5 -33.5l-16 -10q-7 -3 -9 1l-3 6q-3 7 3 9q6 3 14.5 8.5t23 27t14.5 47.5q0 35 -13 57q-10 -10 -20 -10t-16.5 7t-6.5 16z" />
    <glyph glyph-name="dagger" unicode="&#x2020;" horiz-adv-x="523" 
d="M37 382q-7 0 -7 7v4q0 7 7 7h215v293q0 7 7 7h4q7 0 7 -7v-293h216q7 0 7 -7v-4q0 -7 -7 -7h-216v-675q0 -7 -7 -7h-4q-7 0 -7 7v675h-215z" />
    <glyph glyph-name="daggerdbl" unicode="&#x2021;" horiz-adv-x="523" 
d="M60 7v4q0 7 7 7h185v382h-215q-7 0 -7 7v4q0 7 7 7h215v275q0 7 7 7h4q7 0 7 -7v-275h216q7 0 7 -7v-4q0 -7 -7 -7h-216v-382h186q7 0 7 -7v-4q0 -7 -7 -7h-186v-293q0 -7 -7 -7h-4q-7 0 -7 7v293h-185q-7 0 -7 7z" />
    <glyph glyph-name="bullet" unicode="&#x2022;" horiz-adv-x="354" 
d="M176 189q-16 0 -26.5 11t-10.5 26q0 17 10.5 28t26.5 11t27.5 -11.5t11.5 -27.5q0 -15 -11.5 -26t-27.5 -11z" />
    <glyph glyph-name="ellipsis" unicode="&#x2026;" horiz-adv-x="624" 
d="M480 21q0 10 6.5 16.5t16.5 6.5t17 -6.5t7 -16.5t-7 -17t-17 -7t-16.5 7t-6.5 17zM287 21q0 10 6.5 16.5t16.5 6.5t17 -6.5t7 -16.5t-7 -17t-17 -7t-16.5 7t-6.5 17zM97 21q0 10 7 16.5t17 6.5t16.5 -6.5t6.5 -16.5t-6.5 -17t-16.5 -7t-17 7t-7 17z" />
    <glyph glyph-name="perthousand" unicode="&#x2030;" horiz-adv-x="1018" 
d="M191 427q-59 0 -100 41.5t-41 100.5t41 100t100 41t100.5 -41.5t41.5 -99.5q0 -59 -41.5 -100.5t-100.5 -41.5zM191 445q51 0 87.5 36t36.5 88q0 51 -36.5 87t-87.5 36t-87 -36t-36 -87q0 -52 36 -88t87 -36zM683 131q0 59 41.5 100.5t100.5 41.5q58 0 99.5 -41.5
t41.5 -100.5q0 -58 -41.5 -99.5t-99.5 -41.5q-59 0 -100.5 41t-41.5 100zM360 131q0 59 41 100.5t100 41.5t100 -41.5t41 -100.5t-41 -100t-100 -41t-100 41t-41 100zM701 131q0 -51 36 -87t88 -36q50 0 86.5 36t36.5 87t-36 87.5t-87 36.5q-52 0 -88 -36t-36 -88zM378 131
q0 -51 36 -87t87 -36t87.5 36t36.5 87q0 52 -36.5 88t-87.5 36t-87 -36t-36 -88zM120 12l417 686q3 4 8 1l6 -3q5 -3 2 -8l-417 -686q-4 -5 -7 -3l-8 5q-4 3 -1 8z" />
    <glyph glyph-name="guilsinglleft" unicode="&#x2039;" horiz-adv-x="230" 
d="M158 32l-122 172q-3 4 0 8l122 170q3 5 9 2l5 -3q6 -3 2 -8l-117 -165l117 -167q4 -5 -2 -8l-5 -3q-6 -3 -9 2z" />
    <glyph glyph-name="guilsinglright" unicode="&#x203a;" horiz-adv-x="230" 
d="M58 33q-6 3 -2 8l117 167l-117 165q-4 5 2 8l5 3q6 3 9 -2l122 -170q3 -4 0 -8l-122 -172q-3 -5 -9 -2z" />
    <glyph glyph-name="fraction" unicode="&#x2044;" horiz-adv-x="157" 
d="M-112 2q-4 -5 -7 -3l-8 5q-4 3 -1 8l417 686q3 4 8 1l6 -3q5 -3 2 -8z" />
    <glyph glyph-name="zerosuperior" unicode="&#x2070;" horiz-adv-x="343" 
d="M171 494q-57 0 -89 42.5t-32 115.5q0 74 32 116t89 42t89.5 -42t32.5 -116q0 -73 -32.5 -115.5t-89.5 -42.5zM171 512q49 0 76.5 37t27.5 103t-27.5 103.5t-76.5 37.5t-76.5 -37.5t-27.5 -103.5q0 -65 27.5 -102.5t76.5 -37.5z" />
    <glyph glyph-name="foursuperior" unicode="&#x2074;" horiz-adv-x="374" 
d="M255 504q-7 0 -7 7v61h-192q-5 0 -6.5 3.5t1.5 7.5l203 223q4 3 8 1.5t4 -6.5v-212h50q7 0 7 -7v-4q0 -6 -7 -6h-50v-61q0 -7 -7 -7h-4zM78 589h170v185z" />
    <glyph glyph-name="fivesuperior" unicode="&#x2075;" horiz-adv-x="324" 
d="M152 494q-57 0 -99 39q-5 5 0 10l4 4q5 5 10 0q32 -35 85 -35q45 0 74.5 25.5t29.5 61.5q0 37 -26.5 58t-77.5 20h-86q-7 0 -7 7v109q0 7 7 7h160q7 0 7 -7v-4q0 -7 -7 -7h-149v-87h75q59 1 90.5 -24.5t31.5 -71.5q0 -43 -35 -74t-87 -31z" />
    <glyph glyph-name="sixsuperior" unicode="&#x2076;" horiz-adv-x="330" 
d="M169 494q-55 0 -87 37.5t-32 94.5q0 44 19 80.5t48.5 59t51.5 34.5t42 19q6 2 8 -4l2 -7q0 -6 -4 -7q-16 -6 -34 -15t-42 -25.5t-43 -42.5t-26 -56q44 42 100 42q44 0 76 -28.5t32 -74.5q0 -44 -32.5 -75.5t-78.5 -31.5zM169 512q38 0 65.5 26t27.5 63q0 38 -26.5 61
t-63.5 23q-32 0 -57.5 -13.5t-34.5 -27.5l-10 -13v-2q0 -50 26.5 -83.5t72.5 -33.5z" />
    <glyph glyph-name="sevensuperior" unicode="&#x2077;" horiz-adv-x="308" 
d="M92 502l-7 4q-4 1 -1 8l148 268h-176q-6 0 -6 7v4q0 7 6 7h195q10 0 6 -10l-157 -285q-3 -6 -8 -3z" />
    <glyph glyph-name="eightsuperior" unicode="&#x2078;" horiz-adv-x="327" 
d="M164 494q-50 0 -82 21t-32 63q0 28 20 49t55 29q-30 8 -47.5 27t-17.5 44q0 35 25.5 59t77.5 24t78.5 -24t26.5 -59q0 -25 -18 -44t-48 -27q36 -8 55.5 -28.5t19.5 -49.5q0 -42 -32 -63t-81 -21zM164 668q38 2 61.5 18t23.5 41q0 28 -22.5 47.5t-63.5 19.5q-42 0 -63 -19
t-21 -48q0 -25 23.5 -41t61.5 -18zM164 510q40 0 66.5 17.5t26.5 50.5q0 29 -25 46.5t-68 19.5q-43 -2 -68 -19.5t-25 -46.5q0 -33 26.5 -50.5t66.5 -17.5z" />
    <glyph glyph-name="ninesuperior" unicode="&#x2079;" horiz-adv-x="330" 
d="M119 485q-6 -2 -8 4l-2 7q0 6 4 7q16 6 34 15t42 25.5t43 42.5t26 56q-44 -42 -100 -42q-44 0 -76 28.5t-32 74.5q0 44 32.5 75.5t78.5 31.5q55 0 87 -37.5t32 -94.5q0 -44 -19 -80.5t-48.5 -59t-51.5 -34.5t-42 -19zM158 619q32 0 57.5 13.5t34.5 27.5l10 13v2
q0 50 -26.5 83.5t-72.5 33.5q-38 0 -65.5 -26t-27.5 -63q0 -38 26.5 -61t63.5 -23z" />
    <glyph glyph-name="zeroinferior" unicode="&#x2080;" horiz-adv-x="343" 
d="M50 -2q0 74 32 116t89 42t89.5 -42t32.5 -116q0 -73 -32.5 -115.5t-89.5 -42.5t-89 42.5t-32 115.5zM67 -2q0 -65 27.5 -102.5t76.5 -37.5t76.5 37t27.5 103t-27.5 103.5t-76.5 37.5t-76.5 -37.5t-27.5 -103.5z" />
    <glyph glyph-name="oneinferior" unicode="&#x2081;" horiz-adv-x="187" 
d="M56 83l-5 7q-2 4 2 7l73 53q4 3 7.5 1t3.5 -7v-287q0 -7 -7 -7h-4q-7 0 -7 7v266l-55 -41q-5 -3 -8 1z" />
    <glyph glyph-name="twoinferior" unicode="&#x2082;" horiz-adv-x="309" 
d="M72 99l-5 4q-4 4 -2 8q3 5 9 12.5t29.5 20t51.5 12.5q48 0 76 -27t28 -64q0 -52 -62 -104l-112 -93h165q6 0 6 -7v-4q0 -7 -6 -7h-192q-5 0 -7 4.5t2 7.5l132 110q56 47 56 93q0 30 -23.5 51.5t-62.5 21.5q-24 0 -42.5 -9t-24.5 -18l-7 -9q-3 -7 -9 -3z" />
    <glyph glyph-name="threeinferior" unicode="&#x2083;" horiz-adv-x="324" 
d="M100 -1v4q0 7 7 7h65q32 0 53 19t21 46q0 29 -21.5 46t-59.5 17q-26 0 -48 -9t-31 -18l-8 -9q-4 -4 -7 -1l-5 4q-5 4 -2 9q4 5 11.5 12t33.5 18.5t56 11.5q46 0 73 -21.5t27 -59.5q0 -22 -15.5 -43t-36.5 -30q27 -9 44 -30t17 -45q0 -38 -31.5 -62.5t-82.5 -24.5
q-61 0 -107 42q-5 5 0 10l3 3q5 5 10 0q41 -37 95 -37q43 0 68.5 19.5t25.5 49.5q0 27 -22.5 46t-60.5 19h-65q-7 0 -7 7z" />
    <glyph glyph-name="fourinferior" unicode="&#x2084;" horiz-adv-x="374" 
d="M51 -71l203 223q4 3 8 1.5t4 -6.5v-212h50q7 0 7 -7v-4q0 -6 -7 -6h-50v-61q0 -7 -7 -7h-4q-7 0 -7 7v61h-192q-5 0 -6.5 3.5t1.5 7.5zM78 -65h170v185z" />
    <glyph glyph-name="fiveinferior" unicode="&#x2085;" horiz-adv-x="324" 
d="M59 30v109q0 7 7 7h160q7 0 7 -7v-4q0 -7 -7 -7h-149v-87h75q59 1 90.5 -24.5t31.5 -71.5q0 -43 -35 -74t-87 -31q-57 0 -99 39q-5 5 0 10l4 4q5 5 10 0q32 -35 85 -35q45 0 74.5 25.5t29.5 61.5q0 37 -26.5 58t-77.5 20h-86q-7 0 -7 7z" />
    <glyph glyph-name="sixinferior" unicode="&#x2086;" horiz-adv-x="330" 
d="M50 -28q0 44 19 80.5t48.5 59t51.5 34.5t42 19q6 2 8 -4l2 -7q0 -6 -4 -7q-16 -6 -34 -15t-42 -25.5t-43 -42.5t-26 -56q44 42 100 42q44 0 76 -28.5t32 -74.5q0 -44 -32.5 -75.5t-78.5 -31.5q-55 0 -87 37.5t-32 94.5zM70 -23v-2q0 -50 26.5 -83.5t72.5 -33.5
q38 0 65.5 26t27.5 63q0 38 -26.5 61t-63.5 23q-32 0 -57.5 -13.5t-34.5 -27.5z" />
    <glyph glyph-name="seveninferior" unicode="&#x2087;" horiz-adv-x="308" 
d="M56 128q-6 0 -6 7v4q0 7 6 7h195q10 0 6 -10l-157 -285q-3 -6 -8 -3l-7 4q-4 1 -1 8l148 268h-176z" />
    <glyph glyph-name="eightinferior" unicode="&#x2088;" horiz-adv-x="327" 
d="M50 -76q0 28 20 49t55 29q-30 8 -47.5 27t-17.5 44q0 35 25.5 59t77.5 24t78.5 -24t26.5 -59q0 -25 -18 -44t-48 -27q36 -8 55.5 -28.5t19.5 -49.5q0 -42 -32 -63t-81 -21q-50 0 -82 21t-32 63zM79 73q0 -25 23.5 -41t61.5 -18q38 2 61.5 18t23.5 41q0 28 -22.5 47.5
t-63.5 19.5q-42 0 -63 -19t-21 -48zM71 -76q0 -33 26.5 -50.5t66.5 -17.5t66.5 17.5t26.5 50.5q0 29 -25 46.5t-68 19.5q-43 -2 -68 -19.5t-25 -46.5z" />
    <glyph glyph-name="nineinferior" unicode="&#x2089;" horiz-adv-x="330" 
d="M50 49q0 44 32.5 75.5t78.5 31.5q55 0 87 -37.5t32 -94.5q0 -44 -19 -80.5t-48.5 -59t-51.5 -34.5t-42 -19q-6 -2 -8 4l-2 7q0 6 4 7q16 6 34 15t42 25.5t43 42.5t26 56q-44 -42 -100 -42q-44 0 -76 28.5t-32 74.5zM68 49q0 -38 26.5 -61t63.5 -23q32 0 57.5 13.5
t34.5 27.5l10 13v2q0 50 -26.5 83.5t-72.5 33.5q-38 0 -65.5 -26t-27.5 -63z" />
    <glyph glyph-name="Euro" unicode="&#x20ac;" horiz-adv-x="743" 
d="M26 265q-6 0 -6 6v4q0 3 2 5.5t4 1.5h54q-6 32 -6 67q0 22 1 33h-49q-6 0 -6 7v4q0 7 6 7h51q19 133 121 221.5t239 88.5q132 0 243 -93q4 -4 1 -8l-5 -6q-4 -4 -8 0q-103 89 -231 89q-130 0 -226.5 -83.5t-114.5 -208.5h366q7 0 7 -7v-4q0 -7 -7 -7h-369q-1 -11 -1 -33
q0 -35 6 -67h325q6 0 6 -7v-4q0 -6 -6 -6h-321q29 -113 121.5 -185t213.5 -72q129 0 231 93q5 5 8 0l5 -6q3 -3 0 -7q-102 -98 -244 -98q-128 0 -226 77.5t-127 197.5h-58z" />
    <glyph glyph-name="afii61289" unicode="&#x2113;" horiz-adv-x="505" 
d="M61 217q-6 -1 -8 5l-2 8q-2 6 6 8q43 8 81 21l21 105q35 173 81.5 259.5t115.5 86.5q46 0 72.5 -33t26.5 -88q0 -125 -84.5 -211t-214.5 -133l-6 -28q-7 -34 -8 -66t6.5 -66t33 -54.5t67.5 -20.5q101 0 171 47q6 4 10 -1l3 -4q4 -6 0 -10q-8 -6 -25 -15.5t-63 -23
t-96 -13.5q-47 0 -77 21t-40.5 56.5t-10.5 73.5t9 80l3 16q-42 -14 -72 -20zM160 266q119 44 196.5 126t77.5 197q0 46 -20.5 73.5t-57.5 27.5q-61 0 -101.5 -81.5t-74.5 -246.5z" />
    <glyph glyph-name="trademark" unicode="&#x2122;" horiz-adv-x="721" 
d="M289 389q-5 2 -4 8l83 309q2 5 7 5t6 -5l92 -281l91 281q2 5 7 5t7 -5l82 -309q1 -7 -4 -8l-8 -2q-4 -1 -6 4l-72 270l-90 -278q-2 -5 -7 -5t-7 5l-90 278l-73 -270q-1 -6 -8 -4zM117 389q-7 0 -7 7v286h-104q-7 0 -7 7v4q0 7 7 7h224q7 0 7 -7v-4q0 -7 -7 -7h-102v-286
q0 -7 -7 -7h-4z" />
    <glyph glyph-name="Omega" unicode="&#x2126;" horiz-adv-x="781" 
d="M58 7v4q0 7 7 7h186q-100 41 -161 130t-61 201q0 151 105 256t256 105t256.5 -105t105.5 -256q0 -110 -60 -199.5t-158 -131.5h185q7 0 7 -7v-4q0 -7 -7 -7h-238q-7 0 -7 7v4q0 7 7 7q111 30 182 121.5t71 209.5q0 143 -100.5 243t-243.5 100t-243 -100t-100 -243
q0 -120 71.5 -211.5t184.5 -119.5q7 0 7 -7v-4q0 -7 -7 -7h-238q-7 0 -7 7z" />
    <glyph glyph-name="estimated" unicode="&#x212e;" horiz-adv-x="823" 
d="M157 118q47 -52 113 -81t141 -29q129 0 231 93q5 5 8 0l5 -6q3 -3 0 -7q-102 -98 -244 -98q-151 0 -256 104t-105 255t105 256t256 105q150 0 255.5 -104t106.5 -254v-1v-4q0 -7 -7 -7h-633v-193q12 -17 24 -29zM133 358h558v191q-48 66 -121.5 104.5t-158.5 38.5
t-158 -37.5t-120 -103.5v-193z" />
    <glyph glyph-name="onethird" unicode="&#x2153;" horiz-adv-x="599" 
d="M126 404q-7 0 -7 7v266l-55 -41q-5 -3 -8 1l-5 7q-2 4 2 7l73 53q4 3 7.5 1t3.5 -7v-287q0 -7 -7 -7h-4zM63 4q-4 3 -1 8l417 686q3 4 8 1l6 -3q5 -3 2 -8l-417 -686q-4 -5 -7 -3zM353 32q-5 5 0 10l3 3q5 5 10 0q41 -37 95 -37q43 0 68.5 19.5t25.5 49.5q0 27 -22.5 46
t-60.5 19h-65q-7 0 -7 7v4q0 7 7 7h65q32 0 53 19t21 46q0 29 -21.5 46t-59.5 17q-26 0 -48 -9t-31 -18l-8 -9q-4 -4 -7 -1l-5 4q-5 4 -2 9q4 5 11.5 12t33.5 18.5t56 11.5q46 0 73 -21.5t27 -59.5q0 -22 -15.5 -43t-36.5 -30q27 -9 44 -30t17 -45q0 -38 -31.5 -62.5
t-82.5 -24.5q-61 0 -107 42z" />
    <glyph glyph-name="twothirds" unicode="&#x2154;" horiz-adv-x="599" 
d="M-14 404q-5 0 -7 4.5t2 7.5l132 110q56 47 56 93q0 30 -23.5 51.5t-62.5 21.5q-24 0 -42.5 -9t-24.5 -18l-7 -9q-3 -7 -9 -3l-5 4q-4 4 -2 8q3 5 9 12.5t29.5 20t51.5 12.5q48 0 76 -27t28 -64q0 -52 -62 -104l-112 -93h165q6 0 6 -7v-4q0 -7 -6 -7h-192zM63 4q-4 3 -1 8
l417 686q3 4 8 1l6 -3q5 -3 2 -8l-417 -686q-4 -5 -7 -3zM353 32q-5 5 0 10l3 3q5 5 10 0q41 -37 95 -37q43 0 68.5 19.5t25.5 49.5q0 27 -22.5 46t-60.5 19h-65q-7 0 -7 7v4q0 7 7 7h65q32 0 53 19t21 46q0 29 -21.5 46t-59.5 17q-26 0 -48 -9t-31 -18l-8 -9q-4 -4 -7 -1
l-5 4q-5 4 -2 9q4 5 11.5 12t33.5 18.5t56 11.5q46 0 73 -21.5t27 -59.5q0 -22 -15.5 -43t-36.5 -30q27 -9 44 -30t17 -45q0 -38 -31.5 -62.5t-82.5 -24.5q-61 0 -107 42z" />
    <glyph glyph-name="oneeighth" unicode="&#x215b;" horiz-adv-x="624" 
d="M126 404q-7 0 -7 7v266l-55 -41q-5 -3 -8 1l-5 7q-2 4 2 7l73 53q4 3 7.5 1t3.5 -7v-287q0 -7 -7 -7h-4zM63 4q-4 3 -1 8l417 686q3 4 8 1l6 -3q5 -3 2 -8l-417 -686q-4 -5 -7 -3zM360 74q0 28 20 49t55 29q-30 8 -47.5 27t-17.5 44q0 35 25.5 59t77.5 24t78.5 -24
t26.5 -59q0 -25 -18 -44t-48 -27q36 -8 55.5 -28.5t19.5 -49.5q0 -42 -32 -63t-81 -21q-50 0 -82 21t-32 63zM389 223q0 -25 23.5 -41t61.5 -18q38 2 61.5 18t23.5 41q0 28 -22.5 47.5t-63.5 19.5q-42 0 -63 -19t-21 -48zM381 74q0 -33 26.5 -50.5t66.5 -17.5t66.5 17.5
t26.5 50.5q0 29 -25 46.5t-68 19.5q-43 -2 -68 -19.5t-25 -46.5z" />
    <glyph glyph-name="threeeighths" unicode="&#x215c;" horiz-adv-x="684" 
d="M160 394q-61 0 -107 42q-5 5 0 10l3 3q5 5 10 0q41 -37 95 -37q43 0 68.5 19.5t25.5 49.5q0 27 -22.5 46t-60.5 19h-65q-7 0 -7 7v4q0 7 7 7h65q32 0 53 19t21 46q0 29 -21.5 46t-59.5 17q-26 0 -48 -9t-31 -18l-8 -9q-4 -4 -7 -1l-5 4q-5 4 -2 9q4 5 11.5 12t33.5 18.5
t56 11.5q46 0 73 -21.5t27 -59.5q0 -22 -15.5 -43t-36.5 -30q27 -9 44 -30t17 -45q0 -38 -31.5 -62.5t-82.5 -24.5zM122 12l417 686q3 4 8 1l6 -3q5 -3 2 -8l-417 -686q-4 -5 -7 -3l-8 5q-4 3 -1 8zM410 74q0 28 20 49t55 29q-30 8 -47.5 27t-17.5 44q0 35 25.5 59t77.5 24
t78.5 -24t26.5 -59q0 -25 -18 -44t-48 -27q36 -8 55.5 -28.5t19.5 -49.5q0 -42 -32 -63t-81 -21q-50 0 -82 21t-32 63zM439 223q0 -25 23.5 -41t61.5 -18q38 2 61.5 18t23.5 41q0 28 -22.5 47.5t-63.5 19.5q-42 0 -63 -19t-21 -48zM431 74q0 -33 26.5 -50.5t66.5 -17.5
t66.5 17.5t26.5 50.5q0 29 -25 46.5t-68 19.5q-43 -2 -68 -19.5t-25 -46.5z" />
    <glyph glyph-name="fiveeighths" unicode="&#x215d;" horiz-adv-x="684" 
d="M163 394q-57 0 -99 39q-5 5 0 10l4 4q5 5 10 0q32 -35 85 -35q45 0 74.5 25.5t29.5 61.5q0 37 -26.5 58t-77.5 20h-86q-7 0 -7 7v109q0 7 7 7h160q7 0 7 -7v-4q0 -7 -7 -7h-149v-87h75q59 1 90.5 -24.5t31.5 -71.5q0 -43 -35 -74t-87 -31zM122 12l417 686q3 4 8 1l6 -3
q5 -3 2 -8l-417 -686q-4 -5 -7 -3l-8 5q-4 3 -1 8zM410 74q0 28 20 49t55 29q-30 8 -47.5 27t-17.5 44q0 35 25.5 59t77.5 24t78.5 -24t26.5 -59q0 -25 -18 -44t-48 -27q36 -8 55.5 -28.5t19.5 -49.5q0 -42 -32 -63t-81 -21q-50 0 -82 21t-32 63zM439 223q0 -25 23.5 -41
t61.5 -18q38 2 61.5 18t23.5 41q0 28 -22.5 47.5t-63.5 19.5q-42 0 -63 -19t-21 -48zM431 74q0 -33 26.5 -50.5t66.5 -17.5t66.5 17.5t26.5 50.5q0 29 -25 46.5t-68 19.5q-43 -2 -68 -19.5t-25 -46.5z" />
    <glyph glyph-name="seveneighths" unicode="&#x215e;" horiz-adv-x="684" 
d="M152 402l-7 4q-4 1 -1 8l148 268h-176q-6 0 -6 7v4q0 7 6 7h195q10 0 6 -10l-157 -285q-3 -6 -8 -3zM122 12l417 686q3 4 8 1l6 -3q5 -3 2 -8l-417 -686q-4 -5 -7 -3l-8 5q-4 3 -1 8zM410 74q0 28 20 49t55 29q-30 8 -47.5 27t-17.5 44q0 35 25.5 59t77.5 24t78.5 -24
t26.5 -59q0 -25 -18 -44t-48 -27q36 -8 55.5 -28.5t19.5 -49.5q0 -42 -32 -63t-81 -21q-50 0 -82 21t-32 63zM439 223q0 -25 23.5 -41t61.5 -18q38 2 61.5 18t23.5 41q0 28 -22.5 47.5t-63.5 19.5q-42 0 -63 -19t-21 -48zM431 74q0 -33 26.5 -50.5t66.5 -17.5t66.5 17.5
t26.5 50.5q0 29 -25 46.5t-68 19.5q-43 -2 -68 -19.5t-25 -46.5z" />
    <glyph glyph-name="partialdiff" unicode="&#x2202;" horiz-adv-x="600" 
d="M70 222q0 98 64.5 159.5t154.5 61.5q133 0 221 -118q-8 66 -37 124t-64.5 96.5t-79 70t-74 47t-57.5 24.5q-5 3 -4 8l2 7q2 5 8 3q23 -8 51 -22.5t67 -39t74 -60t66 -79t49.5 -103t18.5 -125.5q0 -124 -63 -205t-172 -81q-92 0 -158.5 68t-66.5 164zM87 222
q0 -89 61.5 -151.5t146.5 -62.5q101 0 159.5 75.5t58.5 192.5v14q-36 54 -72 82q-69 53 -152 53t-142.5 -56t-59.5 -147z" />
    <glyph glyph-name="Delta" unicode="&#x2206;" horiz-adv-x="658" 
d="M24 19l302 698q2 4 5 4h2q3 0 5 -4l298 -700q7 -17 -13 -17h-588q-9 0 -11.5 2t0.5 17zM41 18h575l-284 667z" />
    <glyph glyph-name="product" unicode="&#x220f;" horiz-adv-x="624" 
d="M48 7v686q0 7 7 7h514q7 0 7 -7v-686q0 -7 -7 -7h-4q-7 0 -7 7v675h-492v-675q0 -7 -7 -7h-4q-7 0 -7 7z" />
    <glyph glyph-name="summation" unicode="&#x2211;" horiz-adv-x="515" 
d="M47 18l350 347l-350 317q-5 4 -3 11t10 7h407q7 0 7 -7v-4q0 -7 -7 -7h-385l337 -306q7 -7 7 -10v-4q0 -3 -7 -10l-341 -334h389q7 0 7 -7v-4q0 -7 -7 -7h-407q-7 0 -9 7t2 11z" />
    <glyph glyph-name="minus" unicode="&#x2212;" horiz-adv-x="503" 
d="M57 340q-7 0 -7 7v4q0 7 7 7h389q7 0 7 -7v-4q0 -7 -7 -7h-389z" />
    <glyph glyph-name="uni2215" unicode="&#x2215;" horiz-adv-x="157" 
d="M-112 2q-4 -5 -7 -3l-8 5q-4 3 -1 8l417 686q3 4 8 1l6 -3q5 -3 2 -8z" />
    <glyph glyph-name="uni2219" unicode="&#x2219;" horiz-adv-x="354" 
d="M177 238q-10 0 -17 7t-7 17t7 16.5t17 6.5t17 -6.5t7 -16.5t-7 -17t-17 -7z" />
    <glyph glyph-name="radical" unicode="&#x221a;" horiz-adv-x="638" 
d="M310 -16l-174 411q-2 5 3 6l9 3q3 1 5 -3l163 -385l294 676q3 8 11 8h112q7 0 7 -7v-4q0 -7 -7 -7h-108l-303 -698q-2 -4 -6 -4t-6 4z" />
    <glyph glyph-name="infinity" unicode="&#x221e;" horiz-adv-x="648" 
d="M191 155q-59 0 -100 41.5t-41 99.5q0 59 41 100.5t100 41.5q45 0 81.5 -26t50.5 -67q15 41 51.5 67t82.5 26q58 0 99.5 -41.5t41.5 -100.5q0 -58 -41.5 -99.5t-99.5 -41.5q-46 0 -82.5 25.5t-51.5 66.5q-14 -41 -50.5 -66.5t-81.5 -25.5zM333 296q0 -51 36 -87t88 -36
q50 0 86.5 36t36.5 87q0 52 -36 88t-87 36q-52 0 -88 -36t-36 -88zM191 173q51 0 87.5 36t36.5 87q0 52 -36.5 88t-87.5 36t-87 -36t-36 -88q0 -51 36 -87t87 -36z" />
    <glyph glyph-name="integral" unicode="&#x222b;" horiz-adv-x="314" 
d="M103 -134v668q0 87 40 131.5t109 44.5t114 -43q5 -5 0 -10l-3 -3q-5 -5 -10 0q-40 38 -101 38t-96 -39.5t-35 -118.5v-668q0 -87 -40 -131.5t-109 -44.5t-114 43q-5 5 0 10l3 3q5 5 10 0q40 -38 101 -38t96 39.5t35 118.5z" />
    <glyph glyph-name="approxequal" unicode="&#x2248;" horiz-adv-x="559" 
d="M46 345l-6 4q-3 2 -1 6q2 3 4.5 8.5t13 19.5t22 24.5t30 19t38.5 8.5q41 0 82 -50q34 -45 69 -45q28 0 51 18t32 36l9 17q2 5 6 3l7 -4q4 -3 1 -8q-1 -3 -4 -8.5t-13 -19t-21 -23.5t-29.5 -18.5t-38.5 -8.5q-19 0 -35.5 9t-24.5 17.5t-21 23.5q-33 44 -70 44
q-28 0 -51.5 -17.5t-33.5 -34.5l-9 -18q-4 -5 -7 -3zM46 179l-6 4q-3 2 -1 6q2 3 4.5 8.5t13 19.5t22 24.5t30 19t38.5 8.5q41 0 82 -50q34 -45 69 -45q28 0 51 18t32 36l9 17q2 5 6 3l7 -4q4 -3 1 -8q-1 -3 -4 -8.5t-13 -19t-21 -23.5t-29.5 -18.5t-38.5 -8.5
q-19 0 -35.5 9t-24.5 17.5t-21 23.5q-33 44 -70 44q-28 0 -51.5 -17.5t-33.5 -34.5l-9 -18q-4 -5 -7 -3z" />
    <glyph glyph-name="notequal" unicode="&#x2260;" horiz-adv-x="445" 
d="M115 83q-6 4 -2 9l48 84h-104q-7 0 -7 7v4q0 7 7 7h115l108 188h-223q-7 0 -7 7v4q0 7 7 7h233l38 66q4 5 10 2l3 -2q7 -3 3 -9l-33 -57h77q7 0 7 -7v-4q0 -7 -7 -7h-88l-108 -188h196q7 0 7 -7v-4q0 -7 -7 -7h-207l-53 -93q-4 -6 -9 -2z" />
    <glyph glyph-name="lessequal" unicode="&#x2264;" horiz-adv-x="448" 
d="M35 393q-10 6 0 12l385 205q6 3 9 -2l3 -5q4 -6 -2 -9l-370 -195l370 -188q6 -3 2 -9l-3 -5q-3 -5 -9 -2zM41 85q-7 0 -7 7v4q0 7 7 7h389q7 0 7 -7v-4q0 -7 -7 -7h-389z" />
    <glyph glyph-name="greaterequal" unicode="&#x2265;" horiz-adv-x="448" 
d="M47 195q-6 -3 -9 2l-3 5q-4 6 2 9l370 188l-370 195q-6 3 -2 9l3 5q3 5 9 2l385 -205q10 -6 0 -12zM37 85q-7 0 -7 7v4q0 7 7 7h389q7 0 7 -7v-4q0 -7 -7 -7h-389z" />
    <glyph glyph-name="lozenge" unicode="&#x25ca;" horiz-adv-x="658" 
d="M326 3l-216 335q-10 17 -10 22t10 21l216 336q2 4 5 4h2q3 0 5 -4l212 -334q11 -17 11 -23t-11 -23l-212 -334q-2 -4 -5 -4h-2q-3 0 -5 4zM332 28l212 332l-212 331l-216 -331z" />
    <glyph glyph-name="uniF8FF" unicode="&#xf8ff;" horiz-adv-x="599" 
d="M50 30v640q0 30 30 30h439q30 0 30 -30v-640q0 -30 -30 -30h-439q-30 0 -30 30zM262 314q0 -12 14 -12h36q15 0 15 13v26q0 16 16.5 32t36 28.5t36 36.5t16.5 53q0 48 -35.5 79.5t-89.5 31.5q-24 0 -46.5 -6.5t-37 -15t-25.5 -17.5t-16 -15l-5 -7q-8 -12 0 -18l22 -22
q8 -6 17 0q1 1 7.5 7t9.5 9t11.5 8.5t15.5 8.5t18 5.5t22 2.5q29 0 45 -15t16 -37q0 -21 -15.5 -39t-34 -30t-34 -32.5t-15.5 -45.5v-29zM245 156q0 -20 14.5 -34t33.5 -14q20 0 34.5 14t14.5 34t-14.5 34t-34.5 14q-19 0 -33.5 -14t-14.5 -34z" />
    <glyph glyph-name="CR" horiz-adv-x="0" 
 />
    <glyph glyph-name="grave.cap" horiz-adv-x="302" 
d="M249 778l-182 90q-6 3 -3 9l2 4q3 5 9 3l182 -91q5 -3 3 -7l-2 -5q-3 -5 -9 -3z" />
    <glyph glyph-name="acute.cap" horiz-adv-x="302" 
d="M71 778q-6 -2 -9 3l-2 5q-2 4 3 7l182 91q6 2 9 -3l2 -4q3 -6 -3 -9z" />
    <glyph glyph-name="circumflex.cap" horiz-adv-x="373" 
d="M62 763q-3 -3 -7 1l-4 5q-2 4 2 8l129 106q4 4 8 0l129 -106q4 -4 2 -8l-4 -5q-4 -4 -7 -1l-124 101z" />
    <glyph glyph-name="caron.cap" horiz-adv-x="373" 
d="M182 771l-129 106q-4 4 -2 8l4 5q4 4 7 1l124 -101l124 101q3 3 7 -1l4 -5q2 -4 -2 -8l-129 -106q-4 -4 -8 0z" />
    <glyph glyph-name="caron.alt" horiz-adv-x="373" 
d="M143 689q0 9 6.5 15.5t16.5 6.5q19 0 35.5 -23t16.5 -69q0 -31 -15.5 -55.5t-30.5 -33.5l-16 -10q-7 -3 -9 1l-3 6q-3 7 3 9q6 3 14.5 8.5t23 27t14.5 47.5q0 35 -13 57q-10 -10 -20 -10t-16.5 7t-6.5 16z" />
    <glyph glyph-name="tilde.cap" horiz-adv-x="380" 
d="M53 802l-8 2q-6 2 -3 9q27 84 86 84q16 0 28 -5.5t20 -17t11.5 -18t9.5 -20.5q19 -46 53 -46q47 0 68 72q2 7 7 5l8 -2q6 -1 3 -9q-28 -84 -86 -84q-46 0 -71 60q-6 14 -9.5 21t-15 17t-26.5 10q-47 0 -68 -73q-2 -7 -7 -5z" />
    <glyph glyph-name="dieresis.cap" horiz-adv-x="474" 
d="M341 810q-9 0 -15 6t-6 14q0 9 6 15t15 6t15 -6t6 -15q0 -8 -6 -14t-15 -6zM134 810q-9 0 -15 6t-6 14q0 9 6 15t15 6t15 -6t6 -15q0 -8 -6 -14t-15 -6z" />
    <glyph glyph-name="macron.cap" horiz-adv-x="414" 
d="M63 842q-7 0 -7 7v4q0 7 7 7h288q7 0 7 -7v-4q0 -7 -7 -7h-288z" />
    <glyph glyph-name="breve.cap" horiz-adv-x="346" 
d="M173 780q-50 0 -85 31t-42 77q-1 2 1.5 4.5t4.5 2.5h5q5 0 5 -6q6 -40 37 -66t74 -26q42 0 73 26t38 66q0 6 5 6h5q2 0 4.5 -2.5t1.5 -4.5q-8 -47 -43 -77.5t-84 -30.5z" />
    <glyph glyph-name="ring.cap" horiz-adv-x="290" 
d="M146 750q-44 0 -74 30t-30 74t30 74t74 30t74 -30t30 -74t-30 -74t-74 -30zM146 766q35 0 61 26t26 62q0 35 -26 61.5t-61 26.5q-36 0 -61.5 -26t-25.5 -62t25.5 -62t61.5 -26z" />
    <glyph glyph-name="hungarumlaut.cap" horiz-adv-x="392" 
d="M221 757l-5 3q-5 4 -2 9l108 173q4 5 9 2l5 -3q5 -4 2 -9l-108 -173q-4 -5 -9 -2zM55 757l-5 3q-5 4 -2 9l108 173q4 5 9 2l5 -3q5 -4 2 -9l-108 -173q-4 -5 -9 -2z" />
    <glyph glyph-name="dotaccent.cap" horiz-adv-x="219" 
d="M108 825q-8 0 -13.5 5.5t-5.5 12.5q0 8 5.5 13.5t13.5 5.5q19 0 19 -19q0 -8 -5.5 -13t-13.5 -5z" />
    <glyph glyph-name="cedilla.cap" horiz-adv-x="247" 
d="M88 -6q0 6 6 6h6q5 0 5 -6v-48q109 -11 109 -91q0 -37 -26 -63.5t-65 -26.5q-46 0 -78 34q-5 5 0 9l6 5q5 3 9 -1q25 -29 63 -29q32 0 52 21t20 51q0 66 -101 74q-6 0 -6 6v59z" />
    <glyph glyph-name="ogonek.cap" horiz-adv-x="276" 
d="M34 -127q0 25 10.5 49t25.5 40t30 28.5t26 17.5l10 6q4 3 9 -2l3 -7q0 -4 -4 -6t-10 -5.5t-22 -16t-28 -26t-22 -35t-10 -43.5q0 -39 26 -57.5t65 -18.5q40 0 68 14q6 3 8 -2l3 -6q3 -5 -3 -8q-35 -16 -76 -16q-47 0 -78 23t-31 71z" />
    <glyph glyph-name="commaaccent" horiz-adv-x="292" 
d="M113 -133q0 9 6.5 15.5t16.5 6.5q19 0 35.5 -23t16.5 -69q0 -31 -15.5 -55.5t-30.5 -33.5l-16 -10q-7 -3 -9 1l-3 6q-3 7 3 9q6 3 14.5 8.5t23 27t14.5 47.5q0 35 -13 57q-10 -10 -20 -10t-16.5 7t-6.5 16z" />
    <glyph glyph-name="commaaccent.alt" horiz-adv-x="292" 
d="M113 -133q0 9 6.5 15.5t16.5 6.5q19 0 35.5 -23t16.5 -69q0 -31 -15.5 -55.5t-30.5 -33.5l-16 -10q-7 -3 -9 1l-3 6q-3 7 3 9q6 3 14.5 8.5t23 27t14.5 47.5q0 35 -13 57q-10 -10 -20 -10t-16.5 7t-6.5 16z" />
    <glyph glyph-name="commaaccent.cap" horiz-adv-x="292" 
d="M113 -133q0 9 6.5 15.5t16.5 6.5q19 0 35.5 -23t16.5 -69q0 -31 -15.5 -55.5t-30.5 -33.5l-16 -10q-7 -3 -9 1l-3 6q-3 7 3 9q6 3 14.5 8.5t23 27t14.5 47.5q0 35 -13 57q-10 -10 -20 -10t-16.5 7t-6.5 16z" />
    <glyph glyph-name="brokenbar.case" horiz-adv-x="358" 
d="M177 504q-7 0 -7 7v361q0 7 7 7h4q7 0 7 -7v-361q0 -7 -7 -7h-4zM170 189q0 6 7 6h4q7 0 7 -6v-361q0 -7 -7 -7h-4q-7 0 -7 7v361z" />
    <glyph glyph-name="zero.tf" horiz-adv-x="604" 
d="M302 -11q-117 0 -182 93.5t-65 258.5q0 166 65 259t182 93t182 -93t65 -259q0 -165 -65 -258.5t-182 -93.5zM302 7q110 0 169.5 88t59.5 246t-59.5 246t-169.5 88t-169.5 -88t-59.5 -246t59.5 -246t169.5 -88z" />
    <glyph glyph-name="one.tf" horiz-adv-x="604" 
d="M126 0q-6 0 -6 7v4q0 7 6 7h211v638l-196 -153q-5 -3 -8 1l-5 7q-2 4 2 7l214 165q4 3 7.5 1t3.5 -7v-659h158q6 0 6 -7v-4q0 -7 -6 -7h-387z" />
    <glyph glyph-name="two.tf" horiz-adv-x="604" 
d="M75 12l285 266q120 112 120 216q0 76 -53.5 128.5t-149.5 52.5q-31 0 -59 -9.5t-45.5 -23.5t-30 -27.5t-18.5 -22.5l-5 -10q-3 -5 -7 -3l-7 4q-5 4 -2 9q2 4 6.5 11t20 24t33.5 30t49 24t65 11q105 0 163 -57t58 -141q0 -62 -32 -116.5t-94 -111.5l-265 -248h379
q7 0 7 -7v-4q0 -7 -7 -7h-406q-5 0 -7 4.5t2 7.5z" />
    <glyph glyph-name="three.tf" horiz-adv-x="604" 
d="M78 80q-4 5 0 9l5 4q5 3 9 -1q15 -16 24.5 -24t34 -25.5t58 -26t73.5 -8.5q96 0 153 50t57 128q0 63 -50 111t-127 48h-135q-7 0 -7 7v4q0 7 7 7h135q64 0 111.5 44.5t47.5 111.5q0 68 -48 112t-126 44q-34 0 -65.5 -8.5t-51.5 -21t-36 -24.5t-23 -21l-7 -8q-3 -5 -8 -2
l-6 4q-5 3 -2 8q3 4 8 10t24 21.5t40.5 27.5t55.5 21.5t71 9.5q86 0 139 -48.5t53 -124.5q0 -58 -35 -103t-87 -61q61 -16 100.5 -64.5t39.5 -104.5q0 -85 -62.5 -140.5t-165.5 -55.5q-43 0 -79 9.5t-62 27.5t-37 27.5t-26 25.5z" />
    <glyph glyph-name="four.tf" horiz-adv-x="604" 
d="M32 159q-5 0 -6.5 3.5t1.5 7.5l433 524q2 4 6.5 2.5t4.5 -6.5v-514h71q7 0 7 -6v-4q0 -7 -7 -7h-71v-152q0 -7 -7 -7h-3q-7 0 -7 7v152h-422zM55 176h399v484z" />
    <glyph glyph-name="five.tf" horiz-adv-x="604" 
d="M96 76q-4 5 0 9l5 4q4 3 9 -2q68 -79 182 -79q95 0 157 62t62 152q0 93 -55.5 141t-162.5 47h-181q-7 0 -7 7v258q0 7 7 7h326q7 0 7 -7v-3q0 -7 -7 -7h-315v-238h170q115 1 175.5 -52t60.5 -153q0 -97 -67.5 -164.5t-169.5 -67.5q-124 0 -196 86z" />
    <glyph glyph-name="six.tf" horiz-adv-x="604" 
d="M77 276q0 66 18.5 125.5t49.5 103t66 79t74 60t67 39t51 22.5q6 2 8 -3l2 -7q1 -5 -4 -8q-27 -9 -57.5 -24.5t-74 -47t-79 -70t-64.5 -96.5t-37 -124q88 118 221 118q90 0 154.5 -61.5t64.5 -159.5q0 -96 -66.5 -164t-158.5 -68q-109 0 -172 81t-63 205zM94 276
q0 -117 58.5 -192.5t159.5 -75.5q85 0 146.5 62.5t61.5 151.5q0 91 -59.5 147t-142.5 56q-40 0 -76 -12.5t-59.5 -28.5t-44 -37t-29 -33t-14.5 -22l-1 -2v-14z" />
    <glyph glyph-name="seven.tf" horiz-adv-x="604" 
d="M212 9l288 656h-410q-7 0 -7 7v3q0 7 7 7h426q4 0 6 -3t0 -6l-295 -672q-3 -6 -8 -3l-5 2q-5 2 -2 9z" />
    <glyph glyph-name="eight.tf" horiz-adv-x="604" 
d="M79 175q0 66 48 112t132 60q-73 14 -117.5 58t-44.5 105q0 74 50 126t153 52t155 -52.5t52 -125.5q0 -61 -44 -105t-117 -58q85 -15 132 -59t47 -113q0 -92 -62 -138.5t-162 -46.5q-99 0 -160.5 46.5t-61.5 138.5zM302 359q82 5 134.5 45t52.5 106q0 67 -48 114.5
t-141 47.5t-139 -47.5t-46 -114.5q0 -66 52.5 -106t134.5 -45zM96 175q0 -84 57 -126.5t148 -42.5q92 0 149.5 42.5t57.5 126.5q0 66 -56.5 110t-149.5 51q-95 -7 -150.5 -49t-55.5 -112z" />
    <glyph glyph-name="nine.tf" horiz-adv-x="604" 
d="M191 -8q-1 5 4 8q27 9 57.5 24.5t74 47t79 70t64.5 96.5t37 124q-88 -118 -221 -118q-90 0 -154.5 61.5t-64.5 159.5q0 96 66.5 164t158.5 68q109 0 172 -81t63 -205q0 -66 -18.5 -125.5t-49.5 -103t-66 -79t-74 -60t-67 -39t-51 -22.5q-6 -2 -8 3zM286 262q40 0 76 12.5
t59.5 28.5t44 37t29 33t14.5 22l1 2v14q0 117 -58.5 192.5t-159.5 75.5q-85 0 -146.5 -62.5t-61.5 -151.5q0 -91 59.5 -147t142.5 -56z" />
    <glyph glyph-name="zero.denom" horiz-adv-x="343" 
d="M50 148q0 74 32 116t89 42t89.5 -42t32.5 -116q0 -73 -32.5 -115.5t-89.5 -42.5t-89 42.5t-32 115.5zM67 148q0 -65 27.5 -102.5t76.5 -37.5t76.5 37t27.5 103t-27.5 103.5t-76.5 37.5t-76.5 -37.5t-27.5 -103.5z" />
    <glyph glyph-name="one.denom" horiz-adv-x="187" 
d="M119 7v266l-55 -41q-5 -3 -8 1l-5 7q-2 4 2 7l73 53q4 3 7.5 1t3.5 -7v-287q0 -7 -7 -7h-4q-7 0 -7 7z" />
    <glyph glyph-name="two.denom" horiz-adv-x="309" 
d="M53 12l132 110q56 47 56 93q0 30 -23.5 51.5t-62.5 21.5q-24 0 -42.5 -9t-24.5 -18l-7 -9q-3 -7 -9 -3l-5 4q-4 4 -2 8q3 5 9 12.5t29.5 20t51.5 12.5q48 0 76 -27t28 -64q0 -52 -62 -104l-112 -93h165q6 0 6 -7v-4q0 -7 -6 -7h-192q-5 0 -7 4.5t2 7.5z" />
    <glyph glyph-name="three.denom" horiz-adv-x="324" 
d="M53 32q-5 5 0 10l3 3q5 5 10 0q41 -37 95 -37q43 0 68.5 19.5t25.5 49.5q0 27 -22.5 46t-60.5 19h-65q-7 0 -7 7v4q0 7 7 7h65q32 0 53 19t21 46q0 29 -21.5 46t-59.5 17q-26 0 -48 -9t-31 -18l-8 -9q-4 -4 -7 -1l-5 4q-5 4 -2 9q4 5 11.5 12t33.5 18.5t56 11.5
q46 0 73 -21.5t27 -59.5q0 -22 -15.5 -43t-36.5 -30q27 -9 44 -30t17 -45q0 -38 -31.5 -62.5t-82.5 -24.5q-61 0 -107 42z" />
    <glyph glyph-name="four.denom" horiz-adv-x="374" 
d="M56 68q-5 0 -6.5 3.5t1.5 7.5l203 223q4 3 8 1.5t4 -6.5v-212h50q7 0 7 -7v-4q0 -6 -7 -6h-50v-61q0 -7 -7 -7h-4q-7 0 -7 7v61h-192zM78 85h170v185z" />
    <glyph glyph-name="five.denom" horiz-adv-x="324" 
d="M53 29q-5 5 0 10l4 4q5 5 10 0q32 -35 85 -35q45 0 74.5 25.5t29.5 61.5q0 37 -26.5 58t-77.5 20h-86q-7 0 -7 7v109q0 7 7 7h160q7 0 7 -7v-4q0 -7 -7 -7h-149v-87h75q59 1 90.5 -24.5t31.5 -71.5q0 -43 -35 -74t-87 -31q-57 0 -99 39z" />
    <glyph glyph-name="six.denom" horiz-adv-x="330" 
d="M50 122q0 44 19 80.5t48.5 59t51.5 34.5t42 19q6 2 8 -4l2 -7q0 -6 -4 -7q-16 -6 -34 -15t-42 -25.5t-43 -42.5t-26 -56q44 42 100 42q44 0 76 -28.5t32 -74.5q0 -44 -32.5 -75.5t-78.5 -31.5q-55 0 -87 37.5t-32 94.5zM70 125q0 -50 26.5 -83.5t72.5 -33.5q38 0 65.5 26
t27.5 63q0 38 -26.5 61t-63.5 23q-32 0 -57.5 -13.5t-34.5 -27.5l-10 -13v-2z" />
    <glyph glyph-name="seven.denom" horiz-adv-x="308" 
d="M84 10l148 268h-176q-6 0 -6 7v4q0 7 6 7h195q10 0 6 -10l-157 -285q-3 -6 -8 -3l-7 4q-4 1 -1 8z" />
    <glyph glyph-name="eight.denom" horiz-adv-x="327" 
d="M50 74q0 28 20 49t55 29q-30 8 -47.5 27t-17.5 44q0 35 25.5 59t77.5 24t78.5 -24t26.5 -59q0 -25 -18 -44t-48 -27q36 -8 55.5 -28.5t19.5 -49.5q0 -42 -32 -63t-81 -21q-50 0 -82 21t-32 63zM164 164q38 2 61.5 18t23.5 41q0 28 -22.5 47.5t-63.5 19.5q-42 0 -63 -19
t-21 -48q0 -25 23.5 -41t61.5 -18zM71 74q0 -33 26.5 -50.5t66.5 -17.5t66.5 17.5t26.5 50.5q0 29 -25 46.5t-68 19.5q-43 -2 -68 -19.5t-25 -46.5z" />
    <glyph glyph-name="nine.denom" horiz-adv-x="330" 
d="M109 -8q0 6 4 7q16 6 34 15t42 25.5t43 42.5t26 56q-44 -42 -100 -42q-44 0 -76 28.5t-32 74.5q0 44 32.5 75.5t78.5 31.5q55 0 87 -37.5t32 -94.5q0 -44 -19 -80.5t-48.5 -59t-51.5 -34.5t-42 -19q-6 -2 -8 4zM158 115q32 0 57.5 13.5t34.5 27.5l10 13v2
q0 50 -26.5 83.5t-72.5 33.5q-38 0 -65.5 -26t-27.5 -63q0 -38 26.5 -61t63.5 -23z" />
    <glyph glyph-name="zero.num" horiz-adv-x="343" 
d="M171 394q-57 0 -89 42.5t-32 115.5q0 74 32 116t89 42t89.5 -42t32.5 -116q0 -73 -32.5 -115.5t-89.5 -42.5zM171 412q49 0 76.5 37t27.5 103t-27.5 103.5t-76.5 37.5t-76.5 -37.5t-27.5 -103.5q0 -65 27.5 -102.5t76.5 -37.5z" />
    <glyph glyph-name="one.num" horiz-adv-x="187" 
d="M126 404q-7 0 -7 7v266l-55 -41q-5 -3 -8 1l-5 7q-2 4 2 7l73 53q4 3 7.5 1t3.5 -7v-287q0 -7 -7 -7h-4z" />
    <glyph glyph-name="two.num" horiz-adv-x="309" 
d="M58 404q-5 0 -7 4.5t2 7.5l132 110q56 47 56 93q0 30 -23.5 51.5t-62.5 21.5q-24 0 -42.5 -9t-24.5 -18l-7 -9q-3 -7 -9 -3l-5 4q-4 4 -2 8q3 5 9 12.5t29.5 20t51.5 12.5q48 0 76 -27t28 -64q0 -52 -62 -104l-112 -93h165q6 0 6 -7v-4q0 -7 -6 -7h-192z" />
    <glyph glyph-name="three.num" horiz-adv-x="324" 
d="M160 394q-61 0 -107 42q-5 5 0 10l3 3q5 5 10 0q41 -37 95 -37q43 0 68.5 19.5t25.5 49.5q0 27 -22.5 46t-60.5 19h-65q-7 0 -7 7v4q0 7 7 7h65q32 0 53 19t21 46q0 29 -21.5 46t-59.5 17q-26 0 -48 -9t-31 -18l-8 -9q-4 -4 -7 -1l-5 4q-5 4 -2 9q4 5 11.5 12t33.5 18.5
t56 11.5q46 0 73 -21.5t27 -59.5q0 -22 -15.5 -43t-36.5 -30q27 -9 44 -30t17 -45q0 -38 -31.5 -62.5t-82.5 -24.5z" />
    <glyph glyph-name="four.num" horiz-adv-x="374" 
d="M56 472q-5 0 -6.5 3.5t1.5 7.5l203 223q4 3 8 1.5t4 -6.5v-212h50q7 0 7 -7v-4q0 -6 -7 -6h-50v-61q0 -7 -7 -7h-4q-7 0 -7 7v61h-192zM78 489h170v185z" />
    <glyph glyph-name="five.num" horiz-adv-x="324" 
d="M152 394q-57 0 -99 39q-5 5 0 10l4 4q5 5 10 0q32 -35 85 -35q45 0 74.5 25.5t29.5 61.5q0 37 -26.5 58t-77.5 20h-86q-7 0 -7 7v109q0 7 7 7h160q7 0 7 -7v-4q0 -7 -7 -7h-149v-87h75q59 1 90.5 -24.5t31.5 -71.5q0 -43 -35 -74t-87 -31z" />
    <glyph glyph-name="six.num" horiz-adv-x="330" 
d="M169 394q-55 0 -87 37.5t-32 94.5q0 44 19 80.5t48.5 59t51.5 34.5t42 19q6 2 8 -4l2 -7q0 -6 -4 -7q-16 -6 -34 -15t-42 -25.5t-43 -42.5t-26 -56q44 42 100 42q44 0 76 -28.5t32 -74.5q0 -44 -32.5 -75.5t-78.5 -31.5zM169 412q38 0 65.5 26t27.5 63q0 38 -26.5 61
t-63.5 23q-32 0 -57.5 -13.5t-34.5 -27.5l-10 -13v-2q0 -50 26.5 -83.5t72.5 -33.5z" />
    <glyph glyph-name="seven.num" horiz-adv-x="308" 
d="M92 402l-7 4q-4 1 -1 8l148 268h-176q-6 0 -6 7v4q0 7 6 7h195q10 0 6 -10l-157 -285q-3 -6 -8 -3z" />
    <glyph glyph-name="eight.num" horiz-adv-x="327" 
d="M164 394q-50 0 -82 21t-32 63q0 28 20 49t55 29q-30 8 -47.5 27t-17.5 44q0 35 25.5 59t77.5 24t78.5 -24t26.5 -59q0 -25 -18 -44t-48 -27q36 -8 55.5 -28.5t19.5 -49.5q0 -42 -32 -63t-81 -21zM164 568q38 2 61.5 18t23.5 41q0 28 -22.5 47.5t-63.5 19.5q-42 0 -63 -19
t-21 -48q0 -25 23.5 -41t61.5 -18zM164 410q40 0 66.5 17.5t26.5 50.5q0 29 -25 46.5t-68 19.5q-43 -2 -68 -19.5t-25 -46.5q0 -33 26.5 -50.5t66.5 -17.5z" />
    <glyph glyph-name="nine.num" horiz-adv-x="330" 
d="M119 385q-6 -2 -8 4l-2 7q0 6 4 7q16 6 34 15t42 25.5t43 42.5t26 56q-44 -42 -100 -42q-44 0 -76 28.5t-32 74.5q0 44 32.5 75.5t78.5 31.5q55 0 87 -37.5t32 -94.5q0 -44 -19 -80.5t-48.5 -59t-51.5 -34.5t-42 -19zM158 519q32 0 57.5 13.5t34.5 27.5l10 13v2
q0 50 -26.5 83.5t-72.5 33.5q-38 0 -65.5 -26t-27.5 -63q0 -38 26.5 -61t63.5 -23z" />
    <glyph glyph-name="a.alt" 
d="M410 393v-386q0 -7 -6 -7h-4q-7 0 -7 7v48q-58 -65 -150 -65q-79 0 -135 62t-56 150t58.5 148t143.5 60q76 0 139 -55v38q0 7 7 7h4q6 0 6 -7zM393 83v245q-7 10 -18 21t-45.5 27t-75.5 16q-78 0 -131.5 -54.5t-53.5 -135.5t51 -137.5t123 -56.5q45 0 82.5 19t49.5 32.5
t18 23.5z" />
    <glyph glyph-name="agrave.alt" 
d="M410 393v-386q0 -7 -6 -7h-4q-7 0 -7 7v48q-58 -65 -150 -65q-79 0 -135 62t-56 150t58.5 148t143.5 60q76 0 139 -55v38q0 7 7 7h4q6 0 6 -7zM393 83v245q-7 10 -18 21t-45.5 27t-75.5 16q-78 0 -131.5 -54.5t-53.5 -135.5t51 -137.5t123 -56.5q45 0 82.5 19t49.5 32.5
t18 23.5zM350 560l-182 90q-6 3 -3 9l2 4q3 5 9 3l182 -91q5 -3 3 -7l-2 -5q-3 -5 -9 -3z" />
    <glyph glyph-name="aacute.alt" 
d="M410 393v-386q0 -7 -6 -7h-4q-7 0 -7 7v48q-58 -65 -150 -65q-79 0 -135 62t-56 150t58.5 148t143.5 60q76 0 139 -55v38q0 7 7 7h4q6 0 6 -7zM393 83v245q-7 10 -18 21t-45.5 27t-75.5 16q-78 0 -131.5 -54.5t-53.5 -135.5t51 -137.5t123 -56.5q45 0 82.5 19t49.5 32.5
t18 23.5zM174 560q-6 -2 -9 3l-2 5q-2 4 3 7l182 91q6 2 9 -3l2 -4q3 -6 -3 -9z" />
    <glyph glyph-name="acircumflex.alt" 
d="M410 393v-386q0 -7 -6 -7h-4q-7 0 -7 7v48q-58 -65 -150 -65q-79 0 -135 62t-56 150t58.5 148t143.5 60q76 0 139 -55v38q0 7 7 7h4q6 0 6 -7zM393 83v245q-7 10 -18 21t-45.5 27t-75.5 16q-78 0 -131.5 -54.5t-53.5 -135.5t51 -137.5t123 -56.5q45 0 82.5 19t49.5 32.5
t18 23.5zM135 548q-3 -3 -7 1l-4 5q-2 4 2 8l129 106q4 4 8 0l129 -106q4 -4 2 -8l-4 -5q-4 -4 -7 -1l-124 101z" />
    <glyph glyph-name="atilde.alt" 
d="M410 393v-386q0 -7 -6 -7h-4q-7 0 -7 7v48q-58 -65 -150 -65q-79 0 -135 62t-56 150t58.5 148t143.5 60q76 0 139 -55v38q0 7 7 7h4q6 0 6 -7zM393 83v245q-7 10 -18 21t-45.5 27t-75.5 16q-78 0 -131.5 -54.5t-53.5 -135.5t51 -137.5t123 -56.5q45 0 82.5 19t49.5 32.5
t18 23.5zM126 583l-8 2q-6 1 -3 9q27 84 86 84q16 0 28 -5.5t20 -17t11.5 -18t9.5 -20.5q19 -46 53 -46q47 0 68 72q2 7 7 5l8 -2q6 -2 3 -9q-28 -84 -86 -84q-46 0 -71 60q-6 14 -9.5 21t-15 17t-26.5 10q-47 0 -68 -73q-2 -7 -7 -5z" />
    <glyph glyph-name="adieresis.alt" 
d="M410 393v-386q0 -7 -6 -7h-4q-7 0 -7 7v48q-58 -65 -150 -65q-79 0 -135 62t-56 150t58.5 148t143.5 60q76 0 139 -55v38q0 7 7 7h4q6 0 6 -7zM393 83v245q-7 10 -18 21t-45.5 27t-75.5 16q-78 0 -131.5 -54.5t-53.5 -135.5t51 -137.5t123 -56.5q45 0 82.5 19t49.5 32.5
t18 23.5zM357 607q-9 0 -14.5 6t-5.5 14q0 21 20 21q9 0 15 -6t6 -15q0 -8 -6 -14t-15 -6zM168 607q-9 0 -15 6t-6 14q0 9 6 15t15 6q20 0 20 -21q0 -8 -5.5 -14t-14.5 -6z" />
    <glyph glyph-name="amacron.alt" 
d="M410 393v-386q0 -7 -6 -7h-4q-7 0 -7 7v48q-58 -65 -150 -65q-79 0 -135 62t-56 150t58.5 148t143.5 60q76 0 139 -55v38q0 7 7 7h4q6 0 6 -7zM393 83v245q-7 10 -18 21t-45.5 27t-75.5 16q-78 0 -131.5 -54.5t-53.5 -135.5t51 -137.5t123 -56.5q45 0 82.5 19t49.5 32.5
t18 23.5zM114 607q-7 0 -7 7v4q0 7 7 7h288q7 0 7 -7v-4q0 -7 -7 -7h-288z" />
    <glyph glyph-name="abreve.alt" 
d="M410 393v-386q0 -7 -6 -7h-4q-7 0 -7 7v48q-58 -65 -150 -65q-79 0 -135 62t-56 150t58.5 148t143.5 60q76 0 139 -55v38q0 7 7 7h4q6 0 6 -7zM393 83v245q-7 10 -18 21t-45.5 27t-75.5 16q-78 0 -131.5 -54.5t-53.5 -135.5t51 -137.5t123 -56.5q45 0 82.5 19t49.5 32.5
t18 23.5zM261 545q-49 0 -84.5 30.5t-42.5 76.5q-1 3 1.5 5.5t4.5 2.5h5q5 0 5 -6q6 -41 37 -67t74 -26q42 0 73 26t38 67q0 6 5 6h5q2 0 4.5 -2.5t1.5 -5.5q-8 -46 -43 -76.5t-84 -30.5z" />
    <glyph glyph-name="aring.alt" 
d="M410 393v-386q0 -7 -6 -7h-4q-7 0 -7 7v48q-58 -65 -150 -65q-79 0 -135 62t-56 150t58.5 148t143.5 60q76 0 139 -55v38q0 7 7 7h4q6 0 6 -7zM393 83v245q-7 10 -18 21t-45.5 27t-75.5 16q-78 0 -131.5 -54.5t-53.5 -135.5t51 -137.5t123 -56.5q45 0 82.5 19t49.5 32.5
t18 23.5zM263 500q-44 0 -74 30t-30 74t30 74t74 30q43 0 73.5 -30t30.5 -74t-30 -74t-74 -30zM263 516q35 0 61 26t26 62q0 35 -26 61.5t-61 26.5q-36 0 -61.5 -26t-25.5 -62t25.5 -62t61.5 -26z" />
    <glyph glyph-name="aringacute.alt" 
d="M410 393v-386q0 -7 -6 -7h-4q-7 0 -7 7v48q-58 -65 -150 -65q-79 0 -135 62t-56 150t58.5 148t143.5 60q76 0 139 -55v38q0 7 7 7h4q6 0 6 -7zM393 83v245q-7 10 -18 21t-45.5 27t-75.5 16q-78 0 -131.5 -54.5t-53.5 -135.5t51 -137.5t123 -56.5q45 0 82.5 19t49.5 32.5
t18 23.5zM264 436q-44 0 -74 30t-30 74t30 74t74 30t74 -30t30 -74t-30 -74t-74 -30zM264 452q35 0 61 26t26 62q0 35 -26 61.5t-61 26.5q-36 0 -61.5 -26t-25.5 -62t25.5 -62t61.5 -26zM176 641q-6 -3 -9 3l-2 5q-2 4 3 7l182 91q6 2 9 -3l2 -4q3 -6 -3 -9z" />
    <glyph glyph-name="aogonek.alt" 
d="M294 -127q0 28 12.5 54t31.5 43.5t31.5 26.5t23.5 15v43q-58 -65 -150 -65q-79 0 -135 62t-56 150t58.5 148t143.5 60q76 0 139 -55v38q0 7 7 7h4q6 0 6 -7v-386q0 -5 -6 -8q-4 -2 -10 -5.5t-22 -16t-28 -26t-22 -35t-10 -43.5q0 -39 26 -57.5t65 -18.5q40 0 68 14
q6 3 8 -2l3 -6q3 -5 -3 -8q-35 -16 -76 -16q-47 0 -78 23t-31 71zM393 83v245q-7 10 -18 21t-45.5 27t-75.5 16q-78 0 -131.5 -54.5t-53.5 -135.5t51 -137.5t123 -56.5q45 0 82.5 19t49.5 32.5t18 23.5z" />
    <glyph glyph-name="parenleft.case" horiz-adv-x="344" 
d="M309 -31q7 0 7 -7v-4q0 -6 -7 -6q-46 2 -87 23t-76.5 64.5t-56.5 122t-21 184.5q0 105 21 183.5t56.5 122t76 65t87.5 23.5q7 0 7 -7v-4q0 -7 -7 -7q-34 -2 -64.5 -14t-60.5 -40t-51 -69.5t-34 -106.5t-13 -146q0 -82 13 -147t34 -106.5t51 -69.5t60.5 -40t64.5 -14z" />
    <glyph glyph-name="parenright.case" horiz-adv-x="344" 
d="M35 -31q34 2 64.5 14t60.5 40t51 69.5t34 106.5t13 147q0 81 -13 146t-34 106.5t-51 69.5t-60.5 40t-64.5 14q-7 0 -7 7v4q0 7 7 7q47 -2 87.5 -23.5t76 -65t56.5 -122t21 -183.5q0 -106 -21 -184.5t-56.5 -122t-76.5 -64.5t-87 -23q-7 0 -7 6v4q0 7 7 7z" />
    <glyph glyph-name="hyphen.case" horiz-adv-x="597" 
d="M177 333q-6 0 -6 7v4q0 7 6 7h243q6 0 6 -7v-4q0 -7 -6 -7h-243z" />
    <glyph glyph-name="bracketleft.case" horiz-adv-x="333" 
d="M106 -162h192q7 0 7 -7v-4q0 -7 -7 -7h-203q-7 0 -7 7v986q0 7 7 7h203q7 0 7 -7v-4q0 -7 -7 -7h-192v-964z" />
    <glyph glyph-name="bracketright.case" horiz-adv-x="333" 
d="M35 -162h192v964h-192q-7 0 -7 7v4q0 7 7 7h203q7 0 7 -7v-986q0 -7 -7 -7h-203q-7 0 -7 7v4q0 7 7 7z" />
    <glyph glyph-name="braceleft.case" horiz-adv-x="333" 
d="M108 55v168q0 41 -24.5 66t-48.5 25q-7 0 -7 7v4q0 7 7 7q22 0 47.5 24.5t25.5 66.5v165q0 242 190 242q7 0 7 -7v-4q0 -7 -7 -7q-172 0 -172 -224v-165q0 -68 -60 -100q60 -32 60 -100v-168q0 -227 172 -227q7 0 7 -7v-4q0 -7 -7 -7q-190 0 -190 245z" />
    <glyph glyph-name="bar.case" horiz-adv-x="192" 
d="M87 -173v1045q0 7 7 7h4q7 0 7 -7v-1045q0 -7 -7 -7h-4q-7 0 -7 7z" />
    <glyph glyph-name="braceright.case" horiz-adv-x="333" 
d="M207 55v168q0 68 60 100q-60 32 -60 100v165q0 224 -172 224q-7 0 -7 7v4q0 7 7 7q190 0 190 -242v-165q0 -42 25.5 -66.5t47.5 -24.5q7 0 7 -7v-4q0 -7 -7 -7q-24 0 -48.5 -25t-24.5 -66v-168q0 -245 -190 -245q-7 0 -7 7v4q0 7 7 7q172 0 172 227z" />
    <glyph glyph-name="guilsinglleft.case" horiz-adv-x="230" 
d="M158 152l-122 172q-3 4 0 8l122 170q3 5 9 2l5 -3q6 -3 2 -8l-117 -165l117 -167q4 -5 -2 -8l-5 -3q-6 -3 -9 2z" />
    <glyph glyph-name="guilsinglright.case" horiz-adv-x="230" 
d="M58 153q-6 3 -2 8l117 167l-117 165q-4 5 2 8l5 3q6 3 9 -2l122 -170q3 -4 0 -8l-122 -172q-3 -5 -9 -2z" />
    <glyph glyph-name="guillemotleft.case" horiz-adv-x="390" 
d="M196 324q-3 4 0 8l122 170q3 5 9 2l5 -3q6 -3 2 -8l-117 -165l117 -167q4 -5 -2 -8l-5 -3q-6 -3 -9 2zM158 152l-122 172q-3 4 0 8l122 170q3 5 9 2l5 -3q6 -3 2 -8l-117 -165l117 -167q4 -5 -2 -8l-5 -3q-6 -3 -9 2z" />
    <glyph glyph-name="guillemotright.case" horiz-adv-x="390" 
d="M216 161l117 167l-117 165q-4 5 2 8l5 3q6 3 9 -2l122 -170q3 -4 0 -8l-122 -172q-3 -5 -9 -2l-5 3q-6 3 -2 8zM58 153q-6 3 -2 8l117 167l-117 165q-4 5 2 8l5 3q6 3 9 -2l122 -170q3 -4 0 -8l-122 -172q-3 -5 -9 -2z" />
    <glyph glyph-name="endash.case" horiz-adv-x="739" 
d="M170 333q-7 0 -7 7v4q0 7 7 7h399q7 0 7 -7v-4q0 -7 -7 -7h-399z" />
    <glyph glyph-name="emdash.case" horiz-adv-x="955" 
d="M170 333q-7 0 -7 7v4q0 7 7 7h615q7 0 7 -7v-4q0 -7 -7 -7h-615z" />
    <glyph glyph-name="bullet.case" horiz-adv-x="354" 
d="M176 279q-16 0 -26.5 11t-10.5 26q0 17 10.5 28t26.5 11t27.5 -11.5t11.5 -27.5q0 -15 -11.5 -26t-27.5 -11z" />
    <glyph glyph-name="periodcentered.case" horiz-adv-x="258" 
d="M129 328q-10 0 -17 7t-7 17t7 16.5t17 6.5t17 -6.5t7 -16.5t-7 -17t-17 -7z" />
    </font>
</defs>
</svg>
